<?xml version="1.0" encoding="utf-8"?>
<!-- Generator: Adobe Illustrator 22.0.1, SVG Export Plug-In . SVG Version: 6.00 Build 0)  -->
<svg version="1.0" id="Layer_1" xmlns="http://www.w3.org/2000/svg" xmlns:xlink="http://www.w3.org/1999/xlink" x="0px" y="0px"
	 width="50.9px" height="48.3px" viewBox="0 0 50.9 48.3" style="enable-background:new 0 0 50.9 48.3;" xml:space="preserve">
<style type="text/css">
	.st0{fill:none;stroke:#8626B2;stroke-width:1.25;stroke-linecap:round;stroke-linejoin:round;stroke-miterlimit:10;}
</style>
<path class="st0" d="M15.6,40.9c0,3.7-3.4,6.7-7.5,6.7c-4.1,0-7.5-3-7.5-6.7c0-3.7,3.4-6.7,7.5-6.7C12.3,34.1,15.6,37.2,15.6,40.9z"
	/>
<line class="st0" x1="15.6" y1="40.9" x2="15.6" y2="2.7"/>
<path class="st0" d="M15.8,0.6c0,0-2,5.5,7.5,6.8c0,0,7.2,0.1,7.2,6.4"/>
<line class="st0" x1="50.2" y1="13.2" x2="35.2" y2="13.2"/>
<line class="st0" x1="50.2" y1="24.1" x2="20.9" y2="24.1"/>
<line class="st0" x1="10" y1="13.2" x2="1" y2="13.2"/>
<line class="st0" x1="10" y1="24.1" x2="1" y2="24.1"/>
<line class="st0" x1="50.2" y1="34.9" x2="20.9" y2="34.9"/>
</svg>
