<?xml version="1.0" encoding="utf-8"?>
<!-- Generator: Adobe Illustrator 22.0.1, SVG Export Plug-In . SVG Version: 6.00 Build 0)  -->
<svg version="1.0" id="Layer_1" xmlns="http://www.w3.org/2000/svg" xmlns:xlink="http://www.w3.org/1999/xlink" x="0px" y="0px"
	 width="40.2px" height="46.5px" viewBox="0 0 40.2 46.5" style="enable-background:new 0 0 40.2 46.5;" xml:space="preserve">
<style type="text/css">
	.st0{fill:none;stroke:#FFFFFF;stroke-width:1.25;stroke-linecap:round;stroke-linejoin:round;stroke-miterlimit:10;}
	.st1{fill:#FFFFFF;}
</style>
<path class="st0" d="M21.5,3.7c-4.1,4.1-4.1,10.8,0,15c4.1,4.1,10.8,4.1,15,0c4.1-4.1,4.1-10.8,0-15C32.3-0.4,25.6-0.4,21.5,3.7z"/>
<path class="st0" d="M14.4,18.8c0.6,1.5,1.6,3,2.8,4.2c1,1,2.2,1.9,3.5,2.5"/>
<polyline class="st0" points="18.4,14 1.6,33.8 6.4,38.6 26.2,21.8 "/>
<line class="st0" x1="33.9" y1="16.1" x2="37" y2="19.2"/>
<line class="st0" x1="31.8" y1="14.1" x2="21.1" y2="3.3"/>
<path class="st1" d="M31.6,4.5c-0.2,0.2-0.2,0.5,0,0.8c0.2,0.2,0.5,0.2,0.8,0c0.2-0.2,0.2-0.5,0-0.8C32.2,4.3,31.8,4.3,31.6,4.5z"/>
<path class="st1" d="M27.4,4.2c-0.2,0.2-0.2,0.5,0,0.8c0.2,0.2,0.5,0.2,0.8,0c0.2-0.2,0.2-0.5,0-0.8C27.9,4,27.6,4,27.4,4.2z"/>
<g>
	<path class="st0" d="M4,36.2c0,0-1.1,1.1-2.5,2.5s-1.1,3.9,0.5,5.5l0.4,0.4c1.7,1.7,4.4,1.7,6.1,0l9.5-9.5c1.7-1.7,4.4-1.7,6-0.1
		s1.6,4.3-0.1,6l-3.9,3.9"/>
</g>
</svg>
