<?xml version="1.0" encoding="utf-8"?>
<!-- Generator: Adobe Illustrator 14.0.0, SVG Export Plug-In . SVG Version: 6.00 Build 43363)  -->
<!DOCTYPE svg PUBLIC "-//W3C//DTD SVG 1.1//EN" "http://www.w3.org/Graphics/SVG/1.1/DTD/svg11.dtd">
<svg version="1.1" id="Layer_1" xmlns="http://www.w3.org/2000/svg" xmlns:xlink="http://www.w3.org/1999/xlink" x="0px" y="0px"
	 width="30px" height="30px" viewBox="0 0 30 30" enable-background="new 0 0 30 30" xml:space="preserve">
<circle fill="#F6F6F6" cx="15" cy="15" r="15"/>
<g>
	<path fill="#4F4F4F" d="M15.836,8.234c-1.971,0-3.838,0.856-5.125,2.349c-0.18,0.21-0.156,0.524,0.053,0.706
		c0.209,0.179,0.523,0.156,0.705-0.053c1.096-1.271,2.688-2.002,4.367-2.002c3.178,0,5.765,2.587,5.765,5.766
		c0,3.18-2.587,5.766-5.765,5.766c-1.678,0-3.271-0.73-4.369-2.002c-0.18-0.211-0.496-0.232-0.705-0.053s-0.232,0.496-0.051,0.705
		c1.287,1.492,3.156,2.35,5.125,2.35c3.73,0,6.765-3.035,6.765-6.766S19.566,8.234,15.836,8.234z"/>
	<path fill="#4F4F4F" d="M11.891,15.375h2.734v1.516c0,0.207,0.168,0.375,0.375,0.375s0.375-0.168,0.375-0.375v-1.516h1.437v0.707
		c0,0.207,0.168,0.375,0.375,0.375s0.375-0.168,0.375-0.375v-0.707h0.803c0.207,0,0.375-0.168,0.375-0.375s-0.168-0.375-0.375-0.375
		h-6.474c-0.181-1.07-1.107-1.89-2.227-1.89c-1.249,0-2.266,1.017-2.266,2.265s1.017,2.266,2.266,2.266
		C10.783,17.266,11.711,16.445,11.891,15.375z M9.664,16.516c-0.836,0-1.516-0.68-1.516-1.516c0-0.835,0.68-1.515,1.516-1.515
		c0.834,0,1.514,0.68,1.514,1.515C11.178,15.836,10.498,16.516,9.664,16.516z"/>
</g>
</svg>
