<?xml version="1.0" encoding="utf-8"?>
<!-- Generator: Adobe Illustrator 14.0.0, SVG Export Plug-In . SVG Version: 6.00 Build 43363)  -->
<!DOCTYPE svg PUBLIC "-//W3C//DTD SVG 1.1//EN" "http://www.w3.org/Graphics/SVG/1.1/DTD/svg11.dtd">
<svg version="1.1" id="Layer_1" xmlns="http://www.w3.org/2000/svg" xmlns:xlink="http://www.w3.org/1999/xlink" x="0px" y="0px"
	 width="30px" height="30px" viewBox="0 0 30 30" enable-background="new 0 0 30 30" xml:space="preserve">
<circle fill="#E5E5E5" cx="15" cy="15" r="15"/>
<g>
	<path fill="#4F4F4F" d="M19.087,17.571v1.064h1.064c0.207,0,0.375,0.168,0.375,0.375s-0.168,0.375-0.375,0.375h-1.064v1.064
		c0,0.207-0.168,0.375-0.375,0.375s-0.375-0.168-0.375-0.375v-1.064h-1.064c-0.207,0-0.375-0.168-0.375-0.375
		s0.168-0.375,0.375-0.375h1.064v-1.064c0-0.207,0.168-0.375,0.375-0.375S19.087,17.364,19.087,17.571z"/>
	<g>
		<path fill="#4F4F4F" d="M18.712,15.485c-0.175,0-0.344,0.027-0.512,0.051c-0.418-0.646-0.958-1.195-1.57-1.631
			c0.273-0.617,0.443-1.313,0.443-2.064c0-2.413-1.608-4.377-3.586-4.377s-3.586,1.964-3.586,4.377c0,0.748,0.169,1.443,0.441,2.059
			c-1.596,1.131-2.579,3.041-2.579,5.111c0,0.275,0.224,0.5,0.5,0.5h6.975c0.245,1.705,1.701,3.025,3.475,3.025
			c1.944,0,3.525-1.582,3.525-3.525C22.237,17.065,20.656,15.485,18.712,15.485z M13.487,8.464c1.426,0,2.586,1.516,2.586,3.377
			c0,1.862-1.16,3.377-2.586,3.377s-2.586-1.515-2.586-3.377C10.901,9.979,12.062,8.464,13.487,8.464z M10.839,14.767
			c0.656,0.885,1.596,1.451,2.648,1.451c1.05,0,1.986-0.562,2.644-1.443c0.4,0.297,0.756,0.658,1.057,1.07
			c-1.034,0.502-1.781,1.486-1.95,2.666H8.785C8.921,16.993,9.677,15.624,10.839,14.767z M18.712,21.786
			c-1.435,0-2.604-1.098-2.747-2.496c-0.01-0.094-0.028-0.184-0.028-0.279s0.019-0.188,0.028-0.281
			c0.103-1.004,0.732-1.852,1.617-2.248c0.31-0.139,0.648-0.219,1.005-0.234c0.042-0.002,0.082-0.012,0.125-0.012
			c1.53,0,2.775,1.244,2.775,2.775C21.487,20.54,20.242,21.786,18.712,21.786z"/>
		<path fill="#4F4F4F" d="M20.151,18.636h-1.064v-1.064c0-0.207-0.168-0.375-0.375-0.375s-0.375,0.168-0.375,0.375v1.064h-1.064
			c-0.207,0-0.375,0.168-0.375,0.375s0.168,0.375,0.375,0.375h1.064v1.064c0,0.207,0.168,0.375,0.375,0.375s0.375-0.168,0.375-0.375
			v-1.064h1.064c0.207,0,0.375-0.168,0.375-0.375S20.358,18.636,20.151,18.636z"/>
	</g>
</g>
</svg>
