<?xml version="1.0" encoding="utf-8"?>
<!-- Generator: Adobe Illustrator 14.0.0, SVG Export Plug-In . SVG Version: 6.00 Build 43363)  -->
<!DOCTYPE svg PUBLIC "-//W3C//DTD SVG 1.1//EN" "http://www.w3.org/Graphics/SVG/1.1/DTD/svg11.dtd">
<svg version="1.1" id="Layer_1" xmlns="http://www.w3.org/2000/svg" xmlns:xlink="http://www.w3.org/1999/xlink" x="0px" y="0px"
	 width="30px" height="30px" viewBox="0 0 30 30" enable-background="new 0 0 30 30" xml:space="preserve">
<circle fill="#F6F6F6" cx="15" cy="15" r="15"/>
<path fill="#4F4F4F" d="M21.64,12.911c-0.003-0.028-0.009-0.052-0.016-0.08c-0.029-0.107-0.075-0.207-0.152-0.283l-4.807-4.805
	c-0.076-0.077-0.177-0.123-0.284-0.152c-0.027-0.007-0.051-0.012-0.079-0.016c-0.027-0.004-0.051-0.016-0.079-0.016h-6.068
	c-0.345,0-0.625,0.28-0.625,0.625v13.632c0,0.345,0.28,0.625,0.625,0.625h10.877c0.345,0,0.625-0.28,0.625-0.625v-8.825
	C21.656,12.963,21.644,12.938,21.64,12.911z M16.848,9.693l2.675,2.673h-2.675V9.693z M10.779,21.191V8.809h4.818v4.182
	c0,0.345,0.28,0.625,0.625,0.625h4.184v7.575H10.779z"/>
</svg>
