<?xml version="1.0" encoding="utf-8"?>
<!-- Generator: Adobe Illustrator 15.1.0, SVG Export Plug-In . SVG Version: 6.00 Build 0)  -->
<!DOCTYPE svg PUBLIC "-//W3C//DTD SVG 1.1//EN" "http://www.w3.org/Graphics/SVG/1.1/DTD/svg11.dtd">
<svg version="1.1" id="Layer_1" xmlns="http://www.w3.org/2000/svg" xmlns:xlink="http://www.w3.org/1999/xlink" x="0px" y="0px"
	 width="30px" height="30px" viewBox="0 0 30 30" enable-background="new 0 0 30 30" xml:space="preserve">
<circle fill="#F6F6F6" cx="15" cy="15" r="15"/>
<path fill="#4F4F4F" d="M20.947,12.991c0-0.141-0.068-0.256-0.161-0.347c-0.004-0.003-0.007-0.007-0.01-0.01
	c-0.024-0.022-0.04-0.053-0.068-0.07l-4.733-4.733c-0.062-0.061-0.141-0.098-0.227-0.121c-0.022-0.006-0.042-0.01-0.064-0.013
	c-0.021-0.003-0.041-0.013-0.063-0.013H9.553c-0.276,0-0.5,0.224-0.5,0.5v13.631c0,0.276,0.224,0.5,0.5,0.5h10.875
	c0.276,0,0.5-0.224,0.5-0.5v-8.728C20.935,13.056,20.947,13.025,20.947,12.991z M16.12,9.391l3.101,3.1H16.12V9.391z M10.053,21.315
	V8.684h5.067v4.307c0,0.276,0.224,0.5,0.5,0.5h4.308v7.824H10.053z"/>
</svg>
