<?xml version="1.0" encoding="utf-8"?>
<!-- Generator: Adobe Illustrator 15.1.0, SVG Export Plug-In . SVG Version: 6.00 Build 0)  -->
<!DOCTYPE svg PUBLIC "-//W3C//DTD SVG 1.1//EN" "http://www.w3.org/Graphics/SVG/1.1/DTD/svg11.dtd">
<svg version="1.1" id="Layer_1" xmlns="http://www.w3.org/2000/svg" xmlns:xlink="http://www.w3.org/1999/xlink" x="0px" y="0px"
	 width="29.996px" height="30px" viewBox="2.5 2.5 29.996 30" enable-background="new 2.5 2.5 29.996 30" xml:space="preserve">
<circle fill="#F6F6F6" cx="17.5" cy="17.5" r="15"/>
<g>
	<g>
		<path fill="#4F4F4F" d="M17.5,23.99c-3.241,0-5.877-2.635-5.877-5.877c0-2.312,1.364-4.419,3.474-5.364
			c0.267-0.121,0.58,0,0.7,0.267s0,0.581-0.266,0.7c-1.73,0.776-2.847,2.502-2.848,4.397c0,2.656,2.161,4.816,4.817,4.816
			c2.654,0,4.816-2.16,4.816-4.816c0-1.875-1.102-3.593-2.803-4.376c-0.267-0.123-0.384-0.438-0.26-0.703
			c0.121-0.267,0.436-0.385,0.702-0.26c2.077,0.957,3.42,3.052,3.42,5.339C23.377,21.355,20.74,23.99,17.5,23.99z"/>
	</g>
	<g>
		<path fill="#4F4F4F" d="M17.5,18.643c-0.293,0-0.53-0.235-0.53-0.528v-6.572c0-0.292,0.237-0.53,0.53-0.53s0.529,0.238,0.529,0.53
			v6.572C18.029,18.406,17.793,18.643,17.5,18.643z"/>
	</g>
</g>
</svg>
