<?xml version="1.0" encoding="utf-8"?>
<!-- Generator: Adobe Illustrator 15.1.0, SVG Export Plug-In . SVG Version: 6.00 Build 0)  -->
<!DOCTYPE svg PUBLIC "-//W3C//DTD SVG 1.1//EN" "http://www.w3.org/Graphics/SVG/1.1/DTD/svg11.dtd">
<svg version="1.1" id="Layer_1" xmlns="http://www.w3.org/2000/svg" xmlns:xlink="http://www.w3.org/1999/xlink" x="0px" y="0px"
	 width="30px" height="30px" viewBox="0 0 30 30" enable-background="new 0 0 30 30" xml:space="preserve">
<circle fill="#E5E5EC" cx="15" cy="15" r="15"/>
<g>
	<g>
		<path fill="#4F4F4F" d="M15,21.5c-3.584,0-6.5-2.914-6.5-6.5c0-3.584,2.916-6.5,6.5-6.5s6.5,2.916,6.5,6.5
			C21.5,18.586,18.584,21.5,15,21.5z M15,9.673c-2.938,0-5.327,2.39-5.327,5.327c0,2.938,2.389,5.328,5.327,5.328
			c2.938,0,5.327-2.391,5.327-5.328C20.327,12.063,17.938,9.673,15,9.673z"/>
	</g>
	<g>
		<g>
			<path fill="#4F4F4F" d="M14.125,16.111v-0.338c0-0.293,0.062-0.547,0.188-0.766c0.125-0.217,0.354-0.447,0.688-0.691
				c0.32-0.229,0.531-0.416,0.635-0.559c0.102-0.143,0.153-0.305,0.153-0.48c0-0.198-0.073-0.349-0.22-0.452
				c-0.147-0.104-0.354-0.156-0.614-0.156c-0.458,0-0.979,0.149-1.565,0.449l-0.5-1.004c0.679-0.381,1.403-0.571,2.166-0.571
				c0.629,0,1.129,0.151,1.5,0.453c0.371,0.302,0.557,0.705,0.557,1.21c0,0.334-0.076,0.625-0.229,0.869
				c-0.15,0.241-0.439,0.518-0.867,0.823c-0.293,0.216-0.479,0.381-0.558,0.492c-0.078,0.115-0.117,0.262-0.117,0.445v0.271h-1.215
				L14.125,16.111L14.125,16.111z M13.979,17.678c0-0.256,0.069-0.449,0.207-0.58s0.338-0.197,0.601-0.197
				c0.253,0,0.448,0.066,0.588,0.201s0.209,0.328,0.209,0.576c0,0.242-0.071,0.432-0.211,0.57c-0.142,0.141-0.337,0.209-0.586,0.209
				c-0.257,0-0.456-0.068-0.597-0.203C14.05,18.119,13.979,17.926,13.979,17.678z"/>
		</g>
	</g>
</g>
</svg>
