<?xml version="1.0" encoding="utf-8"?>
<!-- Generator: Adobe Illustrator 15.1.0, SVG Export Plug-In . SVG Version: 6.00 Build 0)  -->
<!DOCTYPE svg PUBLIC "-//W3C//DTD SVG 1.1//EN" "http://www.w3.org/Graphics/SVG/1.1/DTD/svg11.dtd">
<svg version="1.1" id="Layer_1" xmlns="http://www.w3.org/2000/svg" xmlns:xlink="http://www.w3.org/1999/xlink" x="0px" y="0px"
	 width="30px" height="30px" viewBox="2.5 2.5 30 30" enable-background="new 2.5 2.5 30 30" xml:space="preserve">
<circle fill="#F6F6F6" cx="17.5" cy="17.5" r="15"/>
<g>
	<g>
		<path fill="#4F4F4F" d="M17.5,24c-3.584,0-6.5-2.914-6.5-6.5c0-3.584,2.916-6.5,6.5-6.5s6.5,2.916,6.5,6.5
			C24,21.086,21.084,24,17.5,24z M17.5,12.173c-2.938,0-5.327,2.39-5.327,5.327c0,2.938,2.389,5.328,5.327,5.328
			c2.938,0,5.327-2.391,5.327-5.328C22.827,14.563,20.438,12.173,17.5,12.173z"/>
	</g>
	<g>
		<g>
			<path fill="#4F4F4F" d="M16.625,18.611v-0.338c0-0.293,0.063-0.547,0.188-0.765c0.125-0.217,0.354-0.447,0.687-0.691
				c0.32-0.229,0.531-0.416,0.635-0.559c0.102-0.143,0.153-0.305,0.153-0.48c0-0.199-0.073-0.35-0.22-0.453
				c-0.147-0.104-0.353-0.156-0.614-0.156c-0.458,0-0.98,0.149-1.566,0.449l-0.499-1.004c0.68-0.381,1.403-0.571,2.166-0.571
				c0.628,0,1.128,0.151,1.5,0.453c0.371,0.302,0.557,0.705,0.557,1.21c0,0.334-0.077,0.625-0.229,0.869
				c-0.151,0.242-0.44,0.518-0.868,0.824c-0.293,0.215-0.479,0.381-0.557,0.492c-0.078,0.115-0.117,0.262-0.117,0.445v0.272h-1.215
				V18.611z M16.479,20.178c0-0.256,0.069-0.449,0.206-0.58c0.138-0.131,0.338-0.197,0.601-0.197c0.253,0,0.448,0.066,0.588,0.201
				c0.14,0.135,0.209,0.328,0.209,0.576c0,0.242-0.071,0.432-0.211,0.57c-0.141,0.141-0.337,0.209-0.586,0.209
				c-0.257,0-0.456-0.068-0.596-0.203S16.479,20.426,16.479,20.178z"/>
		</g>
	</g>
</g>
</svg>
