<?xml version="1.0" encoding="utf-8"?>
<!-- Generator: Adobe Illustrator 15.1.0, SVG Export Plug-In . SVG Version: 6.00 Build 0)  -->
<!DOCTYPE svg PUBLIC "-//W3C//DTD SVG 1.1//EN" "http://www.w3.org/Graphics/SVG/1.1/DTD/svg11.dtd">
<svg version="1.1" id="Layer_1" xmlns="http://www.w3.org/2000/svg" xmlns:xlink="http://www.w3.org/1999/xlink" x="0px" y="0px"
	 width="30px" height="30px" viewBox="2.5 2.5 30 30" enable-background="new 2.5 2.5 30 30" xml:space="preserve">
<circle fill="#E5E5E5" cx="17.5" cy="17.5" r="15"/>
<path fill="#4F4F4F" d="M20.633,17.912c0.271-0.614,0.44-1.307,0.44-2.052c0-2.404-1.603-4.36-3.573-4.36
	c-1.97,0-3.573,1.956-3.573,4.36c0,0.745,0.168,1.438,0.439,2.051c-1.59,1.126-2.569,3.03-2.569,5.091
	c0,0.275,0.223,0.498,0.498,0.498h10.41c0.275,0,0.498-0.223,0.498-0.498C23.203,20.939,22.225,19.038,20.633,17.912z M17.5,12.496
	c1.421,0,2.576,1.509,2.576,3.364s-1.155,3.365-2.576,3.365s-2.577-1.51-2.577-3.365S16.079,12.496,17.5,12.496z M12.815,22.504
	c0.136-1.511,0.888-2.874,2.045-3.729c0.654,0.882,1.59,1.445,2.639,1.445s1.983-0.563,2.64-1.445
	c1.157,0.854,1.909,2.219,2.045,3.729H12.815z"/>
</svg>
