<?xml version="1.0" encoding="utf-8"?>
<!-- Generator: Adobe Illustrator 22.0.1, SVG Export Plug-In . SVG Version: 6.00 Build 0)  -->
<svg version="1.0" id="Layer_1" xmlns="http://www.w3.org/2000/svg" xmlns:xlink="http://www.w3.org/1999/xlink" x="0px" y="0px"
	 width="54.6px" height="48.2px" viewBox="0 0 54.6 48.2" style="enable-background:new 0 0 54.6 48.2;" xml:space="preserve">
<style type="text/css">
	.st0{fill:none;stroke:#FFFFFF;stroke-width:1.25;stroke-linecap:round;stroke-linejoin:round;stroke-miterlimit:10;}
</style>
<g>
	<g>
		<path class="st0" d="M44,27.6c0.3,0.9,1.2,1.5,2.1,1.5h5.6c1.2,0,2.3-1,2.3-2.3c0-1.2-1-2.3-2.3-2.3h-4.1l-4.5-12
			c-0.3-0.9-1.1-1.4-2.1-1.5c-0.9,0-1.8,0.5-2.1,1.4l-4,9.4L29.7,2.3c-0.3-1-1.2-1.7-2.3-1.7c-1,0-1.9,0.8-2.1,1.8L19.1,35
			l-4.4-17.6c-0.2-1-1.1-1.6-2.1-1.7c-1,0-1.9,0.5-2.2,1.5l-3.2,8.6H2.9c-1.2,0-2.3,1-2.3,2.3s1,2.3,2.3,2.3h5.8
			c0.9,0,1.8-0.6,2.1-1.5l1.2-3.3l5.2,20.4c0.3,1,1.2,1.7,2.2,1.7c0,0,0,0,0.1,0c1.1,0,2-0.8,2.1-1.8l6.3-32.9l4.4,16.4
			c0.2,0.9,1.1,1.6,2,1.7c0.9,0.1,1.9-0.5,2.2-1.4l4.4-10.3L44,27.6z"/>
	</g>
</g>
</svg>
