<?xml version="1.0" encoding="utf-8"?>
<!-- Generator: Adobe Illustrator 22.0.1, SVG Export Plug-In . SVG Version: 6.00 Build 0)  -->
<svg version="1.0" id="Layer_1" xmlns="http://www.w3.org/2000/svg" xmlns:xlink="http://www.w3.org/1999/xlink" x="0px" y="0px"
	 width="46.2px" height="48.2px" viewBox="0 0 46.2 48.2" style="enable-background:new 0 0 46.2 48.2;" xml:space="preserve">
<style type="text/css">
	.st0{fill:none;stroke:#8626B2;stroke-width:1.25;stroke-linecap:round;stroke-linejoin:round;stroke-miterlimit:10;}
</style>
<path class="st0" d="M14.1,25.9c0,3-3,5.4-6.7,5.4c-3.7,0-6.7-2.4-6.7-5.4c0-3,3-5.4,6.7-5.4C11,20.5,14.1,22.9,14.1,25.9z"/>
<polyline class="st0" points="14.1,24.8 14.1,0.6 20,6.4 "/>
<path class="st0" d="M24.5,42.2c0,3-3,5.4-6.7,5.4s-6.7-2.4-6.7-5.4c0-3,3-5.4,6.7-5.4S24.5,39.3,24.5,42.2z"/>
<path class="st0" d="M45.6,42.2c0,3-3,5.4-6.7,5.4s-6.7-2.4-6.7-5.4c0-3,3-5.4,6.7-5.4S45.6,39.3,45.6,42.2z"/>
<polyline class="st0" points="24.5,41.2 24.5,17 45.6,17 45.6,41.2 "/>
</svg>
