<?xml version="1.0" encoding="utf-8"?>
<!-- Generator: Adobe Illustrator 22.0.1, SVG Export Plug-In . SVG Version: 6.00 Build 0)  -->
<svg version="1.0" id="Layer_1" xmlns="http://www.w3.org/2000/svg" xmlns:xlink="http://www.w3.org/1999/xlink" x="0px" y="0px"
	 width="62.9px" height="48.2px" viewBox="0 0 62.9 48.2" style="enable-background:new 0 0 62.9 48.2;" xml:space="preserve">
<style type="text/css">
	.st0{fill:none;stroke:#FFFFFF;stroke-width:1.25;stroke-linecap:round;stroke-linejoin:round;stroke-miterlimit:10;}
</style>
<g>
	<path class="st0" d="M27.3,33.4C27.1,32.3,27,31.2,27,30c0-6.4,3.4-12.1,8.6-15.2l0,0c0.2,1.1,0.3,2.3,0.3,3.4
		C35.9,24.7,32.5,30.4,27.3,33.4"/>
	<g>
		<path class="st0" d="M24.9,34.7c-2,0.8-4.3,1.3-6.6,1.3C8.5,35.9,0.6,28,0.6,18.3S8.5,0.6,18.3,0.6c7.6,0,14.1,4.8,16.6,11.5"/>
		<polygon class="st0" points="19.5,22.2 19.5,26.1 27,18.7 19.5,11.2 19.5,15.1 9.6,15.1 9.6,22.2 		"/>
		<path class="st0" d="M38,13.6c2-0.8,4.3-1.3,6.6-1.3c9.7,0,17.6,7.9,17.6,17.6c0,9.7-7.9,17.6-17.6,17.6
			c-7.6,0-14.1-4.8-16.6-11.5"/>
		<polygon class="st0" points="43.4,26 43.4,22.1 35.9,29.6 43.4,37.1 43.4,33.2 53.3,33.2 53.3,26 		"/>
	</g>
</g>
<line class="st0" x1="32.9" y1="16.8" x2="35.7" y2="20.9"/>
<line class="st0" x1="30.6" y1="19.2" x2="34.6" y2="25"/>
<line class="st0" x1="28.7" y1="22.3" x2="32.8" y2="28.2"/>
<line class="st0" x1="27.4" y1="26.1" x2="30.7" y2="30.8"/>
</svg>
