<?xml version="1.0" encoding="utf-8"?>
<!-- Generator: Adobe Illustrator 15.1.0, SVG Export Plug-In . SVG Version: 6.00 Build 0)  -->
<!DOCTYPE svg PUBLIC "-//W3C//DTD SVG 1.1//EN" "http://www.w3.org/Graphics/SVG/1.1/DTD/svg11.dtd">
<svg version="1.1" id="Layer_1" xmlns="http://www.w3.org/2000/svg" xmlns:xlink="http://www.w3.org/1999/xlink" x="0px" y="0px"
	 width="14px" height="14px" viewBox="10.5 8.875 14 14" enable-background="new 10.5 8.875 14 14" xml:space="preserve">
<g>
	<rect x="10.5" y="8.875" fill="#F26740" width="14" height="14"/>
</g>
<g>
	<path fill="#FFFFFF" d="M16.561,19.342c-0.215,0-0.421-0.093-0.563-0.255l-2.214-2.521c-0.273-0.312-0.243-0.785,0.068-1.06
		c0.312-0.272,0.786-0.243,1.059,0.068l1.61,1.832l3.45-4.524c0.251-0.328,0.722-0.393,1.051-0.142
		c0.33,0.251,0.393,0.722,0.143,1.052l-4.005,5.253c-0.136,0.179-0.345,0.287-0.57,0.295C16.578,19.342,16.569,19.342,16.561,19.342
		z"/>
</g>
</svg>
