<?xml version="1.0" encoding="utf-8"?>
<!-- Generator: Adobe Illustrator 15.1.0, SVG Export Plug-In . SVG Version: 6.00 Build 0)  -->
<!DOCTYPE svg PUBLIC "-//W3C//DTD SVG 1.1//EN" "http://www.w3.org/Graphics/SVG/1.1/DTD/svg11.dtd">
<svg version="1.1" id="Layer_1" xmlns="http://www.w3.org/2000/svg" xmlns:xlink="http://www.w3.org/1999/xlink" x="0px" y="0px"
	 width="100.271px" height="85px" viewBox="0 0 100.271 85" enable-background="new 0 0 100.271 85" xml:space="preserve">
<g>
	<path fill="#F2662C" d="M99.208,35.84H1.062C0.475,35.84,0,35.364,0,34.777v-6.069c0-0.587,0.475-1.063,1.062-1.063h98.146
		c0.588,0,1.062,0.476,1.062,1.063v6.069C100.271,35.364,99.796,35.84,99.208,35.84z M2.125,33.714h96.021v-3.943H2.125V33.714z"/>
</g>
<g>
	<path fill="#F2662C" d="M8.437,85c-0.587,0-1.062-0.476-1.062-1.062V35.774c0-0.587,0.476-1.063,1.062-1.063
		s1.062,0.476,1.062,1.063v48.163C9.499,84.524,9.023,85,8.437,85z"/>
</g>
<g>
	<path fill="#F2662C" d="M92.151,85c-0.587,0-1.062-0.476-1.062-1.062V35.774c0-0.587,0.476-1.063,1.062-1.063
		s1.062,0.476,1.062,1.063v48.163C93.214,84.524,92.738,85,92.151,85z"/>
</g>
<g>
	<path fill="#F2662C" d="M92.151,74.341H8.437c-0.587,0-1.062-0.476-1.062-1.062c0-0.588,0.476-1.062,1.062-1.062h83.715
		c0.587,0,1.062,0.475,1.062,1.062C93.214,73.865,92.738,74.341,92.151,74.341z"/>
</g>
<g>
	<path fill="#F2662C" d="M31.017,85c-0.588,0-1.062-0.476-1.062-1.062v-9.916c0-0.588,0.475-1.062,1.062-1.062
		c0.587,0,1.062,0.475,1.062,1.062v9.916C32.079,84.524,31.604,85,31.017,85z"/>
</g>
<g>
	<path fill="#F2662C" d="M69.569,85c-0.587,0-1.062-0.476-1.062-1.062v-9.916c0-0.588,0.476-1.062,1.062-1.062
		c0.588,0,1.063,0.475,1.063,1.062v9.916C70.633,84.524,70.157,85,69.569,85z"/>
</g>
<g>
	<path fill="#F2662C" d="M92.151,24.154H74.024c-0.587,0-1.062-0.476-1.062-1.063s0.476-1.063,1.062-1.063h18.127
		c0.587,0,1.062,0.476,1.062,1.063S92.738,24.154,92.151,24.154z"/>
</g>
<g>
	<path fill="#F2662C" d="M92.151,19.336H74.024c-0.587,0-1.062-0.476-1.062-1.063s0.476-1.063,1.062-1.063h18.127
		c0.587,0,1.062,0.476,1.062,1.063S92.738,19.336,92.151,19.336z"/>
</g>
<g>
	<path fill="#F2662C" d="M27.56,29.771H16.808c-0.588,0-1.063-0.476-1.063-1.063V15.153c0-0.587,0.476-1.063,1.063-1.063H27.56
		c0.588,0,1.062,0.476,1.062,1.063v13.555C28.622,29.295,28.147,29.771,27.56,29.771z M17.87,27.645h8.627V16.216H17.87V27.645z"/>
</g>
<g>
	<path fill="#F2662C" d="M14.57,26.015c-2.799,0-5.075-2.277-5.075-5.076s2.276-5.076,5.075-5.076c0.689,0,1.355,0.135,1.979,0.401
		c0.54,0.23,0.791,0.854,0.562,1.394c-0.23,0.539-0.85,0.794-1.395,0.562c-0.359-0.153-0.745-0.23-1.146-0.23
		c-1.627,0-2.95,1.323-2.95,2.949s1.323,2.949,2.95,2.949c0.341,0,0.674-0.057,0.99-0.17c0.553-0.197,1.161,0.093,1.357,0.646
		c0.197,0.553-0.092,1.161-0.645,1.357C15.728,25.916,15.154,26.015,14.57,26.015z"/>
</g>
<g>
	<path fill="#F2662C" d="M86.159,68.329H14.374c-0.587,0-1.062-0.476-1.062-1.062V40.653c0-0.587,0.476-1.063,1.062-1.063h10.805
		c0.587,0,1.062,0.476,1.062,1.063c0,0.587-0.476,1.063-1.062,1.063h-9.742v24.487h69.66V41.716H31.81
		c-0.587,0-1.062-0.476-1.062-1.063c0-0.587,0.476-1.063,1.062-1.063h54.35c0.587,0,1.062,0.476,1.062,1.063v26.613
		C87.222,67.854,86.746,68.329,86.159,68.329z"/>
</g>
<g>
	<path fill="#F2662C" d="M65.647,24.266c-0.522,0-0.978-0.385-1.052-0.917L62.179,5.951c-0.289-2.073-2.301-3.825-4.394-3.825
		h-14.98c-2.094,0-4.105,1.751-4.394,3.825l-2.417,17.398c-0.081,0.582-0.611,0.988-1.199,0.907
		c-0.581-0.081-0.987-0.617-0.906-1.199l2.417-17.398C36.739,2.538,39.654,0,42.805,0h14.98c3.149,0,6.065,2.538,6.499,5.658
		l2.418,17.398c0.08,0.582-0.326,1.118-0.907,1.199C65.745,24.262,65.696,24.266,65.647,24.266z"/>
</g>
<g>
	<path fill="#F2662C" d="M77.558,63.568c-0.252,0-0.506-0.089-0.708-0.27c-0.438-0.392-0.477-1.063-0.085-1.501l3.532-3.954
		c0.393-0.438,1.062-0.477,1.501-0.085s0.477,1.063,0.085,1.501l-3.532,3.954C78.14,63.448,77.85,63.568,77.558,63.568z"/>
</g>
<g>
	<path fill="#F2662C" d="M70.799,63.568c-0.255,0-0.511-0.091-0.714-0.274c-0.435-0.394-0.469-1.066-0.074-1.501l10.291-11.367
		c0.394-0.437,1.068-0.468,1.501-0.075c0.436,0.394,0.47,1.066,0.075,1.501L71.587,63.219C71.377,63.45,71.088,63.568,70.799,63.568
		z"/>
</g>
</svg>
