<?xml version="1.0" encoding="utf-8"?>
<!-- Generator: Adobe Illustrator 15.1.0, SVG Export Plug-In . SVG Version: 6.00 Build 0)  -->
<!DOCTYPE svg PUBLIC "-//W3C//DTD SVG 1.1//EN" "http://www.w3.org/Graphics/SVG/1.1/DTD/svg11.dtd">
<svg version="1.1" xmlns="http://www.w3.org/2000/svg" xmlns:xlink="http://www.w3.org/1999/xlink" x="0px" y="0px" width="180px"
	 height="55.485px" viewBox="0 0 180 55.485" enable-background="new 0 0 180 55.485" xml:space="preserve">
<g id="Layer_1">
	
		<line display="none" fill="none" stroke="#231F20" stroke-width="0.5" stroke-linecap="round" stroke-linejoin="round" stroke-miterlimit="10" x1="2718.365" y1="-295.281" x2="2748.99" y2="-313.156"/>
	
		<line display="none" fill="none" stroke="#231F20" stroke-width="0.5" stroke-linecap="round" stroke-linejoin="round" stroke-miterlimit="10" x1="2718.365" y1="-313.156" x2="2748.99" y2="-295.281"/>
	<g>
		<path fill="#FFFFFF" d="M47.666,21.545h4.727v32.168h-4.727V21.545z"/>
		<path fill="#FFFFFF" d="M63.727,53.713l-3.02-20.22l-0.174-1.357h-0.263v1.357v20.22h-4.376V21.545h5.777l2.801,14.706
			l0.219,1.707h0.088l0.218-1.707l2.801-14.706h5.777v32.168h-4.376v-20.22v-1.357h-0.263l-0.175,1.357l-3.02,20.22H63.727z"/>
		<path fill="#FFFFFF" d="M84.907,53.713l-3.02-20.22l-0.175-1.357h-0.263v1.357v20.22h-4.376V21.545h5.777l2.801,14.706
			l0.218,1.707h0.088l0.219-1.707l2.801-14.706h5.777v32.168h-4.376v-20.22v-1.357h-0.263l-0.175,1.357l-3.021,20.22H84.907z"/>
		<path fill="#FFFFFF" d="M98.253,21.545h10.81v4.858h-6.083v8.447h4.376v5.164h-4.376v8.841h6.083v4.858h-10.81V21.545z"/>
		<path fill="#FFFFFF" d="M120.135,53.713l-2.451-13.567h-1.269v13.567h-4.727V21.545h4.727c5.602,0,8.053,3.239,8.053,9.279
			c0,3.194-0.832,6.083-2.626,7.309l3.02,15.581H120.135z M116.415,26.229v9.541c1.313,0,3.501-0.175,3.501-4.77
			S117.728,26.229,116.415,26.229z"/>
		<path fill="#FFFFFF" d="M133.35,21.195c5.69-0.131,6.609,4.946,6.609,8.534l-4.64,0.438c0-2.144-0.306-4.639-1.882-4.639
			c-1.226,0.044-1.619,1.356-1.619,3.195c0,2.188,1.882,4.639,3.72,7.309c2.188,3.282,4.42,6.477,4.42,9.935
			c0,4.289-1.401,8.097-6.565,8.097c-6.083,0-6.871-4.595-6.871-9.366l4.639-0.438c0,2.67,0.262,5.471,2.232,5.471
			c1.401,0,1.926-1.532,1.926-3.545c0-2.145-2.013-4.727-3.808-7.44c-2.232-3.283-4.333-6.565-4.333-10.022
			C127.179,25.222,128.887,21.283,133.35,21.195z"/>
		<path fill="#FFFFFF" d="M142.495,21.545h4.727v32.168h-4.727V21.545z"/>
		<path fill="#FFFFFF" d="M156.718,54.063c-6.346,0-6.302-6.958-6.302-6.958V28.154c0,0-0.043-6.959,6.302-6.959
			s6.303,6.959,6.303,6.959v18.951C163.021,47.105,163.064,54.063,156.718,54.063z M156.718,25.791
			c-1.663,0-1.576,2.363-1.576,2.363v18.951c0,0-0.087,2.363,1.576,2.363c1.663,0,1.576-2.363,1.576-2.363V28.154
			C158.294,28.154,158.381,25.791,156.718,25.791z"/>
		<path fill="#FFFFFF" d="M171.203,36.951l-0.394-1.488h-0.263v1.488v16.762h-4.333V21.545h4.202l4.595,16.762l0.394,1.488h0.263
			v-1.488V21.545H180v32.168h-4.202L171.203,36.951z"/>
	</g>
	<g>
		<path fill="#FFFFFF" d="M50.4,10.899h-1.016v3.871h-1.307c0,0,0-8.831,0-8.892h1.307v3.678H50.4V5.879h1.306v8.892H50.4V10.899z"
			/>
		<path fill="#FFFFFF" d="M54.583,5.879h1.306v8.892h-1.306V5.879z"/>
		<path fill="#FFFFFF" d="M58.308,7.222V5.879h3.774v1.343h-1.234v7.549h-1.307V7.222H58.308z"/>
		<path fill="#FFFFFF" d="M69.895,5.782c1.573-0.036,1.827,1.367,1.827,2.359l-1.282,0.121c0-0.593-0.085-1.282-0.521-1.282
			c-0.339,0.012-0.447,0.375-0.447,0.883c0,0.605,0.52,1.283,1.028,2.021c0.605,0.907,1.222,1.791,1.222,2.746
			c0,1.186-0.387,2.238-1.814,2.238c-1.682,0-1.899-1.27-1.899-2.588l1.282-0.121c0,0.738,0.073,1.512,0.617,1.512
			c0.387,0,0.532-0.423,0.532-0.979c0-0.593-0.557-1.307-1.053-2.057c-0.617-0.907-1.197-1.814-1.197-2.771
			C68.189,6.895,68.661,5.807,69.895,5.782z"/>
		<path fill="#FFFFFF" d="M75.989,14.867c-1.754,0-1.742-1.923-1.742-1.923V7.706c0,0-0.012-1.923,1.742-1.923
			c1.754,0,1.742,1.923,1.742,1.923v5.238C77.731,12.944,77.744,14.867,75.989,14.867z M75.989,7.053
			c-0.459,0-0.436,0.653-0.436,0.653v5.238c0,0-0.024,0.653,0.436,0.653c0.46,0,0.436-0.653,0.436-0.653V7.706
			C76.425,7.706,76.449,7.053,75.989,7.053z"/>
		<path fill="#FFFFFF" d="M81.903,10.137l-0.109-0.411h-0.072v0.411v4.633h-1.198V5.879h1.161l1.271,4.633l0.109,0.412h0.072v-0.412
			V5.879h1.198v8.892h-1.161L81.903,10.137z"/>
		<path fill="#FFFFFF" d="M89.304,9.073V7.706c0,0,0.024-0.653-0.436-0.653c-0.459,0-0.436,0.653-0.436,0.653v5.347
			c0,0-0.024,0.653,0.436,0.653c0.46,0,0.436-0.653,0.436-0.653v-1.609h-0.52v-1.101h1.827v4.427h-0.774l-0.157-0.423
			c-0.242,0.302-0.605,0.52-1.017,0.52c-1.657,0-1.536-1.923-1.536-1.923V7.706c0,0-0.012-1.923,1.742-1.923
			c1.754,0,1.742,1.923,1.742,1.923v1.367H89.304z"/>
		<path fill="#FFFFFF" d="M95.097,5.782c1.573-0.036,1.827,1.367,1.827,2.359l-1.282,0.121c0-0.593-0.085-1.282-0.521-1.282
			c-0.339,0.012-0.447,0.375-0.447,0.883c0,0.605,0.52,1.283,1.028,2.021c0.605,0.907,1.222,1.791,1.222,2.746
			c0,1.186-0.387,2.238-1.814,2.238c-1.682,0-1.899-1.27-1.899-2.588l1.282-0.121c0,0.738,0.072,1.512,0.617,1.512
			c0.387,0,0.533-0.423,0.533-0.979c0-0.593-0.557-1.307-1.053-2.057c-0.617-0.907-1.197-1.814-1.197-2.771
			C93.391,6.895,93.863,5.807,95.097,5.782z"/>
		<path fill="#FFFFFF" d="M104.336,14.771h-1.028V5.879h1.028c2.419,0.012,2.601,0.968,2.601,4.452
			C106.937,13.803,106.755,14.758,104.336,14.771z M104.614,13.464c0.919,0,0.98-0.23,0.968-3.146
			c0.012-2.903-0.048-3.133-0.968-3.133V13.464z"/>
		<path fill="#FFFFFF" d="M109.718,5.879h2.988v1.343h-1.682v2.335h1.21v1.427h-1.21v2.444h1.682v1.343h-2.988V5.879z"/>
		<path fill="#FFFFFF" d="M118.74,11.722v1.222c0,0,0.012,1.923-1.742,1.923c-1.754,0-1.742-1.923-1.742-1.923V7.706
			c0,0-0.012-1.923,1.742-1.923c1.754,0,1.742,1.923,1.742,1.923v1.222h-1.222V7.706c0,0,0.049-0.653-0.496-0.653
			c-0.46,0-0.46,0.653-0.46,0.653v5.238c0,0,0,0.653,0.46,0.653c0.544,0,0.496-0.653,0.496-0.653v-1.222H118.74z"/>
		<path fill="#FFFFFF" d="M123.093,14.867c-1.754,0-1.742-1.923-1.742-1.923V7.706c0,0-0.012-1.923,1.742-1.923
			c1.754,0,1.742,1.923,1.742,1.923v5.238C124.835,12.944,124.848,14.867,123.093,14.867z M123.093,7.053
			c-0.459,0-0.436,0.653-0.436,0.653v5.238c0,0-0.024,0.653,0.436,0.653s0.436-0.653,0.436-0.653V7.706
			C123.529,7.706,123.553,7.053,123.093,7.053z"/>
		<path fill="#FFFFFF" d="M129.007,10.137l-0.109-0.411h-0.072v0.411v4.633h-1.198V5.879h1.161l1.271,4.633l0.109,0.412h0.072
			v-0.412V5.879h1.198v8.892h-1.161L129.007,10.137z"/>
		<path fill="#FFFFFF" d="M135.937,5.782c1.573-0.036,1.827,1.367,1.827,2.359l-1.282,0.121c0-0.593-0.085-1.282-0.521-1.282
			c-0.339,0.012-0.448,0.375-0.448,0.883c0,0.605,0.52,1.283,1.028,2.021c0.605,0.907,1.222,1.791,1.222,2.746
			c0,1.186-0.387,2.238-1.814,2.238c-1.682,0-1.899-1.27-1.899-2.588l1.282-0.121c0,0.738,0.072,1.512,0.617,1.512
			c0.387,0,0.533-0.423,0.533-0.979c0-0.593-0.557-1.307-1.053-2.057c-0.617-0.907-1.197-1.814-1.197-2.771
			C134.231,6.895,134.703,5.807,135.937,5.782z"/>
		<path fill="#FFFFFF" d="M139.915,7.222V5.879h3.774v1.343h-1.234v7.549h-1.307V7.222H139.915z"/>
		<path fill="#FFFFFF" d="M148.441,14.771l-0.677-3.75h-0.351v3.75h-1.307V5.879h1.307c1.549,0,2.226,0.896,2.226,2.564
			c0,0.883-0.229,1.682-0.726,2.021l0.834,4.307H148.441z M147.413,7.173v2.637c0.363,0,0.968-0.048,0.968-1.318
			C148.381,7.222,147.776,7.173,147.413,7.173z"/>
		<path fill="#FFFFFF" d="M155.855,5.879v7.065c0,0,0.012,1.923-1.742,1.923c-1.754,0-1.742-1.923-1.742-1.923V5.879h1.307v7.065
			c0,0-0.024,0.653,0.435,0.653c0.46,0,0.436-0.653,0.436-0.653V5.879H155.855z"/>
		<path fill="#FFFFFF" d="M162.12,11.722v1.222c0,0,0.012,1.923-1.742,1.923c-1.754,0-1.742-1.923-1.742-1.923V7.706
			c0,0-0.012-1.923,1.742-1.923c1.754,0,1.742,1.923,1.742,1.923v1.222h-1.222V7.706c0,0,0.048-0.653-0.496-0.653
			c-0.46,0-0.46,0.653-0.46,0.653v5.238c0,0,0,0.653,0.46,0.653c0.544,0,0.496-0.653,0.496-0.653v-1.222H162.12z"/>
		<path fill="#FFFFFF" d="M164.355,7.222V5.879h3.774v1.343h-1.234v7.549h-1.307V7.222H164.355z"/>
		<path fill="#FFFFFF" d="M170.548,5.879h2.988v1.343h-1.681v2.335h1.209v1.427h-1.209v2.444h1.681v1.343h-2.988V5.879z"/>
		<path fill="#FFFFFF" d="M177.199,14.771h-1.028V5.879h1.028c2.419,0.012,2.601,0.968,2.601,4.452
			C179.8,13.803,179.619,14.758,177.199,14.771z M177.478,13.464c0.919,0,0.98-0.23,0.968-3.146
			c0.012-2.903-0.048-3.133-0.968-3.133V13.464z"/>
	</g>
	<g>
		<g>
			<g>
				<path fill="#FFFFFF" d="M40.185,32.247v2.398h-0.023c-0.116,5.044-2.102,9.789-5.652,13.398
					c-0.522,0.529-1.071,1.018-1.637,1.476c0.396-0.339,0.786-0.685,1.158-1.062c3.537-3.595,5.482-8.349,5.482-13.389
					c0-0.072-0.008-0.142-0.011-0.214c0.003-0.071,0.011-0.139,0.011-0.209v-7.79c0-0.371-0.669-0.371-0.669,0v7.79H38.82
					c-0.113,4.689-1.963,9.1-5.266,12.458c-0.491,0.497-1.005,0.955-1.537,1.385c0.361-0.311,0.718-0.627,1.059-0.971
					c3.286-3.342,5.097-7.764,5.097-12.449c0-0.072-0.01-0.142-0.012-0.214c0.001-0.071,0.012-0.14,0.012-0.209v-5.106
					c0-0.371-0.672-0.371-0.672,0v5.106H37.48c-0.115,4.335-1.827,8.411-4.883,11.518c-0.456,0.465-0.939,0.889-1.435,1.29
					c0.324-0.281,0.651-0.564,0.957-0.875c3.039-3.092,4.712-7.178,4.712-11.509c0-0.072-0.01-0.143-0.01-0.214
					c0.002-0.07,0.01-0.138,0.01-0.208V21.202c0-0.371-0.67-0.371-0.67,0v13.442v0h-0.023c-0.114,3.982-1.692,7.724-4.497,10.578
					c-0.426,0.432-0.878,0.827-1.337,1.201c0.289-0.253,0.583-0.507,0.858-0.787c2.792-2.838,4.329-6.591,4.329-10.569
					c0-0.072-0.012-0.144-0.012-0.215c0.003-0.069,0.012-0.137,0.012-0.207V13.939c0-0.371-0.672-0.371-0.672,0v20.705v0h-0.023
					c-0.113,3.627-1.553,7.036-4.113,9.637c-0.389,0.393-0.795,0.753-1.214,1.093c0.25-0.221,0.5-0.439,0.735-0.678
					c2.543-2.587,3.946-6.006,3.946-9.629c0-0.073-0.011-0.145-0.011-0.218c0-0.068,0.008-0.136,0.008-0.204V16.377
					c0-0.371-0.669-0.371-0.669,0v18.267v0h-0.023c-0.112,3.273-1.416,6.349-3.729,8.696c-0.352,0.359-0.725,0.688-1.111,1
					c0.215-0.189,0.431-0.378,0.636-0.585c2.293-2.333,3.557-5.417,3.557-8.687c0-0.072-0.011-0.144-0.011-0.215
					c0.002-0.07,0.011-0.138,0.011-0.208V13.939v-1.469c0-0.371-0.669-0.371-0.669,0v1.469v20.705v0h-0.023
					c-0.112,2.919-1.281,5.66-3.342,7.756c-0.322,0.327-0.663,0.625-1.015,0.908c0.183-0.161,0.365-0.319,0.536-0.494
					c2.047-2.081,3.175-4.833,3.175-7.748c0-0.072-0.01-0.143-0.013-0.214c0.003-0.069,0.013-0.138,0.013-0.207v-0.001V13.939
					v-3.151c0-0.371-0.672-0.371-0.672,0v3.151v20.705h-0.021c-0.113,2.565-1.145,4.972-2.96,6.815
					c-0.29,0.297-0.598,0.565-0.918,0.822c0.149-0.133,0.302-0.264,0.441-0.407c1.799-1.828,2.789-4.246,2.789-6.807
					c0-0.072-0.01-0.143-0.01-0.215c0-0.07,0.01-0.138,0.01-0.208V13.939v-3.621V7.732c0-0.372-0.669-0.372-0.669,0v2.586v3.621
					v20.705v0h-0.025c-0.109,2.21-1.006,4.283-2.57,5.875c-0.261,0.266-0.54,0.506-0.826,0.734c0.116-0.106,0.236-0.208,0.348-0.321
					c1.549-1.574,2.401-3.658,2.401-5.865c0-0.072-0.009-0.144-0.01-0.216c0.002-0.069,0.01-0.137,0.01-0.207v-2.441v-4.742V13.939
					v-3.621V9.762c0-0.37-0.67-0.37-0.67,0v0.556v3.621v13.521v4.742v2.441v0h-0.05c-0.109,1.855-0.843,3.599-2.16,4.936
					c-1.44,1.462-3.364,2.277-5.417,2.293c-2.054,0.017-3.993-0.769-5.457-2.212c-1.338-1.317-2.127-3.038-2.265-4.891
					c0.001-0.044,0.014-0.084,0.017-0.126h-0.046V13.939v-3.621V9.762c0-0.37-0.67-0.37-0.67,0v0.556v3.621v20.706
					c0,0.067,0.009,0.134,0.011,0.201c-0.001,0.073-0.011,0.146-0.011,0.22v0.001c0,2.258,0.887,4.373,2.496,5.955
					c0.097,0.095,0.202,0.179,0.3,0.27c-0.266-0.211-0.527-0.432-0.773-0.675c-1.628-1.601-2.559-3.708-2.671-5.973h-0.024V13.939
					v-3.621V7.732c0-0.372-0.67-0.372-0.67,0v2.586v3.621v20.706c0,0.067,0.009,0.135,0.011,0.202
					c-0.002,0.073-0.011,0.145-0.011,0.219c0,0.001,0,0.001,0,0.001c0,2.621,1.029,5.075,2.897,6.911
					c0.126,0.126,0.264,0.239,0.397,0.356c-0.3-0.239-0.592-0.488-0.869-0.761c-1.887-1.855-2.958-4.302-3.073-6.929h-0.023V13.939
					v-2.834c0-0.37-0.669-0.37-0.669,0v2.834v20.705v0c0,0.002,0,0.004,0,0.007c0.001,0.064,0.007,0.128,0.009,0.192
					c-0.002,0.075-0.011,0.148-0.011,0.223c0,2.982,1.169,5.776,3.296,7.867c0.16,0.157,0.33,0.298,0.498,0.445
					c-0.333-0.265-0.658-0.545-0.967-0.848c-2.145-2.112-3.358-4.898-3.473-7.886H8.713V13.939v-1.48c0-0.371-0.67-0.371-0.67,0
					v1.48v20.706c0,0.072,0.01,0.144,0.01,0.217c-0.002,0.067-0.01,0.135-0.01,0.204c0,0.001,0,0.001,0,0.001
					c0,3.344,1.313,6.477,3.699,8.823c0.191,0.189,0.396,0.36,0.598,0.534c-0.371-0.292-0.729-0.602-1.069-0.937
					c-2.404-2.365-3.76-5.491-3.875-8.842H7.374V16.16c0-0.371-0.67-0.371-0.67,0v18.484v0.001c0,0.068,0.008,0.135,0.01,0.203
					c-0.002,0.073-0.01,0.145-0.01,0.218c0,3.707,1.455,7.18,4.097,9.779c0.226,0.223,0.466,0.425,0.705,0.629
					c-0.405-0.321-0.8-0.661-1.176-1.032c-2.66-2.619-4.157-6.084-4.272-9.798H6.032V13.939v-0.016c0-0.37-0.67-0.37-0.67,0v0.016
					v20.705v0c0,0.068,0.01,0.136,0.011,0.204c-0.001,0.073-0.011,0.145-0.011,0.218c0,4.069,1.597,7.881,4.497,10.735
					c0.263,0.258,0.54,0.491,0.816,0.726c-0.443-0.351-0.874-0.725-1.285-1.129c-2.918-2.873-4.558-6.679-4.675-10.754H4.692V21.314
					c0-0.371-0.67-0.371-0.67,0v13.331v0.001c0,0.069,0.01,0.136,0.01,0.204c-0.003,0.073-0.01,0.145-0.01,0.217
					c0,4.431,1.74,8.583,4.897,11.691c0.296,0.292,0.608,0.554,0.92,0.818c-0.479-0.38-0.946-0.783-1.39-1.221
					c-3.178-3.128-4.96-7.272-5.074-11.71H3.352v-5.106c0-0.371-0.67-0.341-0.67,0.03v5.077c0,0.068,0.009,0.136,0.01,0.204
					c0,0.072-0.01,0.143-0.01,0.217c0,0.001,0,0.001,0,0.001c0,4.792,1.882,9.285,5.299,12.647c0.328,0.323,0.676,0.617,1.023,0.91
					c-0.516-0.408-1.016-0.843-1.495-1.313c-3.434-3.381-5.358-7.865-5.475-12.666H2.012v-7.782c0-0.371-0.672-0.371-0.672,0v7.784
					c0,0.069,0.009,0.136,0.011,0.204c0,0.071-0.011,0.144-0.011,0.216c0,0.001,0,0.001,0,0.001c0,5.157,2.025,9.987,5.7,13.604
					c0.362,0.356,0.742,0.678,1.124,1c-0.548-0.436-1.083-0.901-1.594-1.404c-3.695-3.635-5.76-8.46-5.876-13.622H0.669v-2.42
					c0-0.371-0.669-0.371-0.669,0v2.421c0,0.068,0.009,0.135,0.009,0.204C0.009,34.922,0,34.993,0,35.066
					c0,5.519,2.165,10.69,6.098,14.56c8.03,7.901,20.989,7.798,28.89-0.229c3.783-3.846,5.867-8.934,5.867-14.326
					c0-0.072-0.011-0.143-0.011-0.216c0-0.07,0.011-0.14,0.011-0.21v-2.398C40.855,31.876,40.185,31.876,40.185,32.247z
					 M24.153,54.01c-0.055,0.01-0.11,0.02-0.163,0.03c-4.605,0.835-9.449,0.026-13.598-2.42c-0.096-0.105-0.136-0.252-0.06-0.381
					c0.092-0.16,0.3-0.216,0.457-0.121c0.206,0.12,0.422,0.213,0.628,0.325c0.151,0.081,0.305,0.159,0.458,0.236
					c0.413,0.207,0.829,0.399,1.253,0.573c0.149,0.062,0.303,0.12,0.455,0.179c0.431,0.165,0.865,0.318,1.305,0.451
					c0.151,0.045,0.303,0.084,0.453,0.125c0.447,0.123,0.894,0.235,1.346,0.325c0.154,0.03,0.312,0.052,0.469,0.079
					c0.446,0.077,0.894,0.147,1.345,0.192c0.179,0.018,0.358,0.023,0.538,0.037c0.427,0.03,0.854,0.058,1.283,0.06
					c0.036,0,0.069,0.005,0.105,0.005c0.473,0,0.945-0.02,1.419-0.055c0.178-0.014,0.357-0.039,0.535-0.058
					c0.397-0.041,0.796-0.093,1.191-0.16c0.192-0.033,0.386-0.065,0.576-0.104c0.551-0.109,1.097-0.233,1.636-0.391
					c0.097-0.028,0.19-0.058,0.289-0.087c0.488-0.151,0.972-0.32,1.449-0.512c0.067-0.026,0.136-0.048,0.203-0.076
					c0.471-0.196,0.937-0.418,1.395-0.654c0.202-0.103,0.401-0.211,0.599-0.323c0.101-0.056,0.203-0.106,0.304-0.164
					c0.156-0.095,0.362-0.04,0.459,0.121c0.084,0.148,0.034,0.328-0.099,0.428c-0.095,0.056-0.19,0.118-0.287,0.172
					c-0.213,0.121-0.429,0.239-0.648,0.35c-0.41,0.212-0.826,0.409-1.246,0.59c-0.097,0.041-0.193,0.085-0.292,0.125
					c-0.509,0.209-1.027,0.389-1.549,0.555c-0.105,0.034-0.214,0.066-0.322,0.098C25.418,53.741,24.787,53.89,24.153,54.01z
					 M11.007,50.08c0.094-0.161,0.3-0.215,0.458-0.12c0.149,0.087,0.31,0.147,0.463,0.229c0.333,0.183,0.675,0.346,1.017,0.506
					c0.285,0.133,0.567,0.277,0.859,0.394c0.561,0.224,1.131,0.416,1.708,0.58c0.328,0.094,0.657,0.164,0.987,0.239
					c0.333,0.075,0.667,0.143,1.002,0.199c0.338,0.056,0.675,0.108,1.017,0.145c0.39,0.042,0.781,0.061,1.172,0.076
					c0.246,0.01,0.489,0.035,0.735,0.035c0.208,0,0.415-0.023,0.62-0.03c0.445-0.016,0.888-0.039,1.332-0.087
					c0.289-0.032,0.572-0.079,0.857-0.125c0.434-0.069,0.865-0.155,1.295-0.256c0.238-0.057,0.475-0.108,0.71-0.175
					c0.668-0.188,1.33-0.402,1.975-0.671c0.008-0.002,0.016-0.007,0.022-0.01c0.665-0.276,1.312-0.604,1.946-0.967
					c0.053-0.03,0.109-0.049,0.162-0.08c0.162-0.095,0.366-0.04,0.458,0.121c0.086,0.148,0.038,0.33-0.099,0.431
					c-0.09,0.052-0.176,0.109-0.267,0.161c-0.201,0.111-0.399,0.219-0.601,0.323c-0.38,0.195-0.763,0.377-1.152,0.545
					c-0.093,0.04-0.187,0.083-0.279,0.121c-0.475,0.194-0.956,0.362-1.438,0.516c-0.106,0.033-0.21,0.063-0.313,0.094
					c-0.582,0.171-1.17,0.309-1.764,0.421c-0.048,0.01-0.096,0.019-0.147,0.027c-4.292,0.778-8.808,0.025-12.671-2.258
					C10.973,50.36,10.931,50.211,11.007,50.08z M11.682,48.922c0.094-0.16,0.298-0.214,0.458-0.12
					c0.148,0.085,0.303,0.144,0.453,0.224c0.289,0.157,0.582,0.298,0.875,0.436c0.313,0.146,0.623,0.294,0.941,0.419
					c0.481,0.189,0.97,0.357,1.466,0.497c0.31,0.089,0.622,0.156,0.935,0.227c0.301,0.067,0.601,0.129,0.904,0.18
					c0.316,0.052,0.634,0.101,0.954,0.135c0.35,0.038,0.704,0.055,1.058,0.069c0.234,0.01,0.468,0.033,0.701,0.033
					c0.192,0,0.383-0.021,0.578-0.028c0.407-0.015,0.819-0.035,1.226-0.08c0.264-0.029,0.525-0.072,0.785-0.114
					c0.408-0.065,0.812-0.144,1.214-0.241c0.212-0.051,0.429-0.097,0.641-0.157c1.268-0.354,2.497-0.869,3.666-1.533
					c0.043-0.024,0.09-0.042,0.134-0.066c0.161-0.096,0.365-0.04,0.458,0.12c0.088,0.15,0.037,0.335-0.101,0.435
					c-0.049,0.027-0.095,0.057-0.143,0.084c-1.211,0.694-2.49,1.221-3.804,1.594c-0.221,0.063-0.443,0.114-0.666,0.168
					c-0.422,0.101-0.846,0.183-1.273,0.252c-0.261,0.042-0.52,0.088-0.781,0.119c-0.527,0.061-1.056,0.092-1.585,0.103
					c-0.368,0.008-0.734-0.007-1.1-0.022c-0.341-0.015-0.681-0.032-1.02-0.067c-0.34-0.035-0.677-0.083-1.016-0.138
					c-0.308-0.05-0.614-0.115-0.919-0.183c-0.334-0.073-0.667-0.14-0.998-0.234c-0.548-0.156-1.087-0.339-1.622-0.551
					c-0.31-0.124-0.612-0.274-0.918-0.417c-0.296-0.139-0.592-0.282-0.884-0.439c-0.187-0.101-0.367-0.212-0.552-0.32
					C11.647,49.203,11.605,49.054,11.682,48.922z M12.361,47.765c0.095-0.16,0.298-0.216,0.458-0.12
					c0.1,0.058,0.207,0.097,0.308,0.153c0.382,0.212,0.774,0.405,1.169,0.581c0.135,0.06,0.265,0.132,0.399,0.187
					c0.528,0.216,1.067,0.394,1.609,0.547c0.192,0.055,0.388,0.097,0.581,0.143c0.39,0.094,0.782,0.172,1.176,0.234
					c0.208,0.033,0.416,0.067,0.626,0.092c0.487,0.055,0.976,0.087,1.465,0.095c0.09,0.001,0.181,0.013,0.27,0.013
					c0.013,0,0.025,0,0.038,0c0.028,0,0.058,0,0.086,0c0.572-0.004,1.135-0.049,1.691-0.116c0.137-0.017,0.271-0.043,0.406-0.063
					c0.493-0.073,0.987-0.168,1.474-0.292c0.109-0.027,0.219-0.054,0.325-0.083c1.237-0.34,2.419-0.834,3.527-1.478
					c0.01-0.004,0.016-0.007,0.024-0.012c0.161-0.096,0.365-0.04,0.459,0.12c0.089,0.153,0.036,0.342-0.106,0.44
					c-0.038,0.021-0.073,0.044-0.111,0.066c-1.126,0.646-2.313,1.136-3.535,1.482c-0.191,0.055-0.386,0.099-0.58,0.146
					c-0.403,0.098-0.808,0.175-1.216,0.241c-0.228,0.037-0.456,0.078-0.686,0.105c-0.517,0.06-1.038,0.093-1.561,0.102
					c-0.298,0.003-0.598-0.013-0.897-0.026c-0.327-0.014-0.651-0.03-0.976-0.063c-0.306-0.032-0.61-0.076-0.915-0.126
					c-0.293-0.047-0.583-0.108-0.874-0.172c-0.301-0.066-0.601-0.127-0.896-0.212c-0.509-0.144-1.01-0.314-1.505-0.512
					c-0.282-0.11-0.551-0.246-0.826-0.374c-0.281-0.131-0.563-0.267-0.838-0.416c-0.168-0.092-0.331-0.191-0.498-0.289
					C12.329,48.053,12.283,47.899,12.361,47.765z M13.035,46.605c0.093-0.16,0.296-0.215,0.458-0.121
					c0.094,0.055,0.193,0.091,0.288,0.143c0.343,0.189,0.691,0.362,1.045,0.52c0.127,0.057,0.251,0.125,0.379,0.177
					c0.481,0.197,0.974,0.359,1.468,0.5c0.171,0.048,0.339,0.084,0.508,0.125c0.368,0.088,0.736,0.162,1.105,0.22
					c0.181,0.028,0.357,0.058,0.538,0.079c0.47,0.054,0.945,0.087,1.417,0.093c0.062,0.001,0.122,0.008,0.181,0.008h0.003
					c0.037,0,0.074,0,0.111,0c0.524-0.004,1.042-0.046,1.552-0.108c0.106-0.012,0.208-0.033,0.31-0.048
					c0.473-0.069,0.945-0.159,1.409-0.277c0.082-0.022,0.168-0.042,0.25-0.065c1.14-0.312,2.228-0.766,3.249-1.359h0.001
					c0.16-0.095,0.366-0.04,0.458,0.121c0.093,0.16,0.04,0.363-0.12,0.457v0c0,0-0.003,0.002-0.004,0.002
					c-1.082,0.628-2.226,1.098-3.401,1.422c-0.088,0.025-0.18,0.047-0.269,0.07c-0.484,0.125-0.974,0.217-1.467,0.291
					c-0.11,0.016-0.221,0.039-0.333,0.052c-0.576,0.072-1.156,0.112-1.735,0.113h-0.014c-0.062,0-0.121-0.007-0.181-0.008
					c-0.499-0.007-0.996-0.04-1.489-0.098c-0.19-0.021-0.379-0.053-0.568-0.083c-0.387-0.06-0.771-0.136-1.154-0.229
					c-0.18-0.043-0.361-0.083-0.539-0.133c-0.52-0.148-1.036-0.317-1.54-0.524c-0.132-0.055-0.26-0.124-0.394-0.183
					c-0.374-0.167-0.741-0.349-1.104-0.55c-0.115-0.063-0.226-0.133-0.34-0.201C13,46.907,12.955,46.744,13.035,46.605z
					 M13.71,45.447c0.093-0.161,0.296-0.215,0.458-0.12c0.091,0.053,0.189,0.089,0.28,0.139c0.286,0.157,0.575,0.298,0.866,0.431
					c0.14,0.062,0.271,0.136,0.409,0.192c0.431,0.175,0.866,0.319,1.309,0.443c0.159,0.046,0.319,0.081,0.48,0.12
					c0.324,0.078,0.65,0.143,0.977,0.194c0.165,0.025,0.329,0.054,0.497,0.072c0.423,0.049,0.851,0.079,1.277,0.083
					c0.055,0,0.108,0.008,0.16,0.008h0.007c0.03,0,0.063,0,0.096-0.001c0.474-0.004,0.942-0.041,1.406-0.097
					c0.091-0.012,0.181-0.029,0.272-0.042c0.43-0.063,0.861-0.146,1.282-0.255c0.073-0.018,0.146-0.036,0.215-0.056
					c1.03-0.282,2.015-0.692,2.937-1.229c0,0,0.002-0.001,0.004-0.002c0.16-0.095,0.366-0.04,0.458,0.12
					c0.095,0.16,0.04,0.363-0.12,0.458c-0.002,0.001-0.005,0.004-0.009,0.006c-0.979,0.569-2.016,0.995-3.078,1.29
					c-0.086,0.023-0.17,0.043-0.256,0.066c-0.432,0.11-0.871,0.194-1.309,0.26c-0.109,0.016-0.218,0.037-0.325,0.05
					c-0.518,0.064-1.037,0.1-1.557,0.102c-0.009,0-0.016,0-0.023,0c-0.076,0-0.149-0.01-0.226-0.012
					c-0.428-0.006-0.854-0.034-1.278-0.083c-0.184-0.021-0.366-0.051-0.55-0.08c-0.336-0.052-0.669-0.119-1.004-0.199
					c-0.173-0.041-0.348-0.08-0.52-0.129c-0.464-0.132-0.925-0.283-1.376-0.468c-0.141-0.057-0.274-0.13-0.414-0.193
					c-0.316-0.143-0.63-0.296-0.938-0.466c-0.11-0.062-0.217-0.129-0.326-0.194C13.678,45.751,13.629,45.587,13.71,45.447z
					 M14.385,44.29c0.093-0.161,0.299-0.215,0.459-0.12c0.089,0.05,0.181,0.085,0.27,0.134c0.229,0.125,0.464,0.239,0.7,0.347
					c0.166,0.076,0.331,0.157,0.499,0.226c0.352,0.141,0.708,0.261,1.069,0.364c0.158,0.045,0.319,0.08,0.477,0.118
					c0.271,0.063,0.542,0.118,0.815,0.161c0.162,0.026,0.323,0.053,0.483,0.071c0.356,0.041,0.711,0.064,1.067,0.07
					c0.068,0.001,0.134,0.009,0.202,0.009c0.006,0,0.013,0,0.021,0c0.021,0,0.044,0,0.068,0c0.422-0.003,0.837-0.037,1.25-0.086
					c0.087-0.011,0.173-0.028,0.259-0.041c0.382-0.056,0.763-0.129,1.138-0.226c0.062-0.016,0.125-0.031,0.185-0.049
					c0.924-0.251,1.806-0.62,2.632-1.102c0.156-0.089,0.358-0.038,0.453,0.121c0.094,0.16,0.04,0.365-0.119,0.459
					c-0.884,0.516-1.818,0.9-2.779,1.167c-0.07,0.019-0.145,0.037-0.216,0.055c-0.393,0.101-0.792,0.178-1.191,0.237
					c-0.095,0.014-0.187,0.031-0.28,0.043c-0.457,0.056-0.915,0.086-1.373,0.089c-0.107,0.001-0.21-0.01-0.32-0.012
					c-0.365-0.007-0.731-0.029-1.095-0.071c-0.132-0.016-0.264-0.035-0.394-0.055c-0.359-0.054-0.716-0.125-1.073-0.212
					c-0.103-0.026-0.209-0.047-0.314-0.076c-0.439-0.122-0.875-0.269-1.302-0.444c-0.109-0.043-0.21-0.1-0.318-0.147
					c-0.298-0.133-0.594-0.28-0.884-0.44c-0.101-0.056-0.199-0.117-0.298-0.177C14.353,44.599,14.304,44.432,14.385,44.29z
					 M15.062,43.13c0.094-0.161,0.302-0.216,0.459-0.121c0.08,0.047,0.168,0.079,0.248,0.123c0.186,0.102,0.375,0.193,0.564,0.281
					c0.183,0.084,0.361,0.169,0.547,0.241c0.282,0.11,0.568,0.209,0.855,0.292c0.152,0.043,0.302,0.076,0.454,0.112
					c0.224,0.052,0.447,0.098,0.672,0.133c0.152,0.025,0.304,0.05,0.456,0.067c0.289,0.032,0.578,0.05,0.867,0.057
					c0.082,0.002,0.159,0.012,0.241,0.012c0,0,0.013,0,0.019,0c0.019,0,0.04,0,0.059,0c0.367-0.002,0.729-0.031,1.087-0.074
					c0.079-0.01,0.157-0.024,0.233-0.036c0.334-0.05,0.665-0.113,0.995-0.197c0.053-0.014,0.109-0.027,0.163-0.042
					c0.81-0.22,1.586-0.543,2.313-0.965c0.158-0.088,0.357-0.036,0.449,0.122c0.092,0.16,0.038,0.366-0.121,0.458
					c-0.783,0.457-1.612,0.798-2.467,1.033c-0.052,0.014-0.107,0.028-0.163,0.042c-0.357,0.091-0.715,0.16-1.079,0.214
					c-0.078,0.01-0.155,0.026-0.233,0.036c-0.403,0.05-0.809,0.076-1.215,0.08c-0.076,0.001-0.151-0.006-0.227-0.007
					c-0.371-0.006-0.743-0.027-1.113-0.073c-0.052-0.006-0.101-0.014-0.153-0.021c-0.4-0.055-0.799-0.134-1.193-0.236
					c-0.028-0.008-0.057-0.013-0.084-0.021c-0.414-0.111-0.82-0.251-1.221-0.415c-0.085-0.035-0.167-0.081-0.252-0.118
					c-0.27-0.12-0.537-0.253-0.799-0.396c-0.091-0.052-0.183-0.107-0.269-0.161C15.028,43.445,14.979,43.274,15.062,43.13z
					 M15.739,41.972c0.094-0.161,0.296-0.215,0.458-0.121c0.077,0.045,0.16,0.076,0.237,0.118c0.133,0.072,0.269,0.137,0.406,0.201
					c0.199,0.095,0.401,0.185,0.609,0.264c0.216,0.082,0.434,0.159,0.653,0.222c0.132,0.038,0.268,0.067,0.4,0.098
					c0.191,0.046,0.386,0.084,0.58,0.116c0.127,0.02,0.256,0.041,0.383,0.055c0.272,0.031,0.541,0.049,0.812,0.053
					c0.048,0.001,0.097,0.007,0.146,0.007h0.002c0.024,0,0.047,0,0.068,0c0.322-0.003,0.641-0.028,0.957-0.066
					c0.045-0.006,0.089-0.015,0.135-0.021c0.318-0.046,0.634-0.106,0.944-0.188c0.023-0.006,0.045-0.011,0.066-0.017
					c0.714-0.19,1.394-0.472,2.032-0.844c0.158-0.085,0.354-0.034,0.445,0.123c0.092,0.159,0.038,0.365-0.12,0.458
					c-0.69,0.402-1.422,0.703-2.173,0.908c-0.03,0.008-0.062,0.016-0.093,0.023c-0.33,0.086-0.666,0.151-1.003,0.199
					c-0.05,0.008-0.101,0.018-0.153,0.024c-0.359,0.045-0.72,0.069-1.085,0.071c-0.053,0-0.106-0.005-0.16-0.005
					c-0.344-0.005-0.685-0.023-1.025-0.066c-0.023-0.003-0.046-0.006-0.071-0.01c-0.765-0.103-1.519-0.303-2.242-0.603
					c-0.018-0.007-0.034-0.016-0.052-0.023c-0.292-0.124-0.577-0.271-0.856-0.427c-0.071-0.039-0.137-0.081-0.209-0.123
					C15.705,42.297,15.654,42.119,15.739,41.972z"/>
				<path fill="#FFFFFF" d="M5.697,12.805c0.184,0,0.335-0.149,0.335-0.334v-1.682c0-0.371-0.67-0.371-0.67,0v1.682
					C5.362,12.655,5.513,12.805,5.697,12.805z"/>
				<path fill="#FFFFFF" d="M4.358,20.273c0.185,0,0.334-0.15,0.334-0.335v-3.561c0-0.371-0.67-0.371-0.67,0v3.561
					C4.022,20.124,4.173,20.273,4.358,20.273z"/>
				<path fill="#FFFFFF" d="M4.358,15.467c0.185,0,0.334-0.15,0.334-0.335v-0.782c0-0.37-0.67-0.37-0.67,0v0.782
					C4.022,15.316,4.173,15.467,4.358,15.467z"/>
				<path fill="#FFFFFF" d="M12.347,8.778c0.185,0,0.336-0.15,0.336-0.335V7.661c0-0.371-0.671-0.371-0.671,0v0.782
					C12.012,8.627,12.163,8.778,12.347,8.778z"/>
				<path fill="#FFFFFF" d="M15.042,5.253c0.184,0,0.334-0.15,0.334-0.336V4.135c0-0.37-0.67-0.37-0.67,0v0.782
					C14.707,5.103,14.856,5.253,15.042,5.253z"/>
				<path fill="#FFFFFF" d="M19.066,3.686c0.184,0,0.333-0.149,0.333-0.335v-2.12c0-0.371-0.669-0.371-0.669,0v2.12
					C18.73,3.536,18.879,3.686,19.066,3.686z"/>
				<path fill="#FFFFFF" d="M21.747,3.686c0.185,0,0.336-0.149,0.336-0.335v-2.12c0-0.371-0.672-0.371-0.672,0v2.12
					C21.411,3.536,21.562,3.686,21.747,3.686z"/>
				<path fill="#FFFFFF" d="M23.088,5.888c0.184,0,0.334-0.15,0.334-0.335v-2.12c0-0.371-0.67-0.371-0.67,0v2.12
					C22.752,5.738,22.903,5.888,23.088,5.888z"/>
				<path fill="#FFFFFF" d="M28.452,8.778c0.184,0,0.334-0.15,0.334-0.335V7.661c0-0.371-0.67-0.371-0.67,0v0.782
					C28.116,8.627,28.267,8.778,28.452,8.778z"/>
				<path fill="#FFFFFF" d="M3.017,28.622c0.184,0,0.334-0.15,0.334-0.336v-4.42c0-0.371-0.67-0.371-0.67,0v4.42
					C2.681,28.471,2.831,28.622,3.017,28.622z"/>
				<path fill="#FFFFFF" d="M9.721,10.148c0.184,0,0.333-0.151,0.333-0.336V5.391c0-0.371-0.669-0.371-0.669,0v4.421
					C9.385,9.997,9.535,10.148,9.721,10.148z"/>
				<path fill="#FFFFFF" d="M31.134,10.148c0.184,0,0.336-0.151,0.336-0.336V5.391c0-0.371-0.672-0.371-0.672,0v4.421
					C30.798,9.997,30.949,10.148,31.134,10.148z"/>
				<path fill="#FFFFFF" d="M3.017,22.63c0.184,0,0.334-0.15,0.334-0.334v-2.939c0-0.37-0.67-0.37-0.67,0v2.939
					C2.681,22.48,2.831,22.63,3.017,22.63z"/>
				<path fill="#FFFFFF" d="M1.655,25.853c0.186,0,0.336-0.149,0.336-0.335v-4.498c0-0.37-0.67-0.37-0.67,0v4.498
					C1.321,25.704,1.471,25.853,1.655,25.853z"/>
				<path fill="#FFFFFF" d="M15.042,11.587c0.184,0,0.334-0.15,0.334-0.335v-0.934V6.393c0-0.371-0.67-0.371-0.67,0v3.925v0.934
					C14.707,11.437,14.856,11.587,15.042,11.587z"/>
				<path fill="#FFFFFF" d="M25.77,5.253c0.184,0,0.336-0.15,0.336-0.336V4.135c0-0.37-0.67-0.37-0.67,0v0.782
					C25.436,5.103,25.585,5.253,25.77,5.253z"/>
				<path fill="#FFFFFF" d="M25.77,11.587c0.184,0,0.336-0.15,0.336-0.335v-0.934V6.393c0-0.371-0.67-0.371-0.67,0v3.925v0.934
					C25.436,11.437,25.585,11.587,25.77,11.587z"/>
				<path fill="#FFFFFF" d="M1.655,19.74c0.186,0,0.336-0.15,0.336-0.335v-1.31c0-0.371-0.67-0.371-0.67,0v1.31
					C1.321,19.59,1.471,19.74,1.655,19.74z"/>
				<path fill="#FFFFFF" d="M0.333,31.362c0.186,0,0.336-0.15,0.336-0.336V26.99c0-0.371-0.669-0.371-0.669,0v4.036
					C0,31.211,0.149,31.362,0.333,31.362z"/>
				<path fill="#FFFFFF" d="M0.333,25.217c0.186,0,0.336-0.15,0.336-0.335v-0.856c0-0.371-0.669-0.371-0.669,0v0.856
					C0,25.066,0.149,25.217,0.333,25.217z"/>
				<path fill="#FFFFFF" d="M6.703,11.15v2.79v0.846c0,0.186,0.151,0.335,0.334,0.335c0.187,0,0.336-0.15,0.336-0.335v-0.846v-2.79
					C7.374,10.779,6.703,10.779,6.703,11.15z"/>
				<path fill="#FFFFFF" d="M8.387,11.394c0.185,0,0.336-0.15,0.336-0.335v-0.74V7.421c0-0.371-0.669-0.371-0.669,0v2.897v0.74
					C8.053,11.243,8.202,11.394,8.387,11.394z"/>
				<path fill="#FFFFFF" d="M7.007,9.337c0.186,0,0.336-0.15,0.336-0.335V7.101c0-0.371-0.67-0.371-0.67,0v1.901
					C6.673,9.188,6.824,9.337,7.007,9.337z"/>
				<path fill="#FFFFFF" d="M11.061,6.729c0.184,0,0.334-0.15,0.334-0.335V4.492c0-0.371-0.67-0.371-0.67,0v1.901
					C10.725,6.579,10.875,6.729,11.061,6.729z"/>
				<path fill="#FFFFFF" d="M13.701,6.729c0.184,0,0.336-0.15,0.336-0.335V2.542c0-0.371-0.672-0.371-0.672,0v3.852
					C13.365,6.579,13.516,6.729,13.701,6.729z"/>
				<path fill="#FFFFFF" d="M27.111,6.729c0.184,0,0.336-0.15,0.336-0.335V2.542c0-0.371-0.672-0.371-0.672,0v3.852
					C26.775,6.579,26.926,6.729,27.111,6.729z"/>
				<path fill="#FFFFFF" d="M16.382,4.471c0.186,0,0.336-0.15,0.336-0.336v-1.51c0-0.371-0.67-0.371-0.67,0v1.51
					C16.048,4.321,16.197,4.471,16.382,4.471z"/>
				<path fill="#FFFFFF" d="M24.428,4.471c0.186,0,0.336-0.15,0.336-0.336v-1.51c0-0.371-0.669-0.371-0.669,0v1.51
					C24.094,4.321,24.243,4.471,24.428,4.471z"/>
				<path fill="#FFFFFF" d="M29.792,6.729c0.187,0,0.336-0.15,0.336-0.335V4.492c0-0.371-0.669-0.371-0.669,0v1.901
					C29.458,6.579,29.607,6.729,29.792,6.729z"/>
				<path fill="#FFFFFF" d="M35.165,12.805c0.185,0,0.334-0.149,0.334-0.334v-1.682c0-0.371-0.67-0.371-0.67,0v1.682
					C34.829,12.655,34.98,12.805,35.165,12.805z"/>
				<path fill="#FFFFFF" d="M36.504,20.273c0.185,0,0.335-0.15,0.335-0.335v-3.561c0-0.371-0.671-0.371-0.671,0v3.561
					C36.168,20.124,36.32,20.273,36.504,20.273z"/>
				<path fill="#FFFFFF" d="M36.504,15.467c0.185,0,0.335-0.15,0.335-0.335v-0.782c0-0.37-0.671-0.37-0.671,0v0.782
					C36.168,15.316,36.32,15.467,36.504,15.467z"/>
				<path fill="#FFFFFF" d="M37.845,28.622c0.186,0,0.334-0.15,0.334-0.336v-4.42c0-0.371-0.669-0.371-0.669,0v4.42
					C37.511,28.471,37.659,28.622,37.845,28.622z"/>
				<path fill="#FFFFFF" d="M37.845,22.63c0.186,0,0.334-0.15,0.334-0.334v-2.939c0-0.37-0.669-0.37-0.669,0v2.939
					C37.511,22.48,37.659,22.63,37.845,22.63z"/>
				<path fill="#FFFFFF" d="M3.017,17.964c0.184,0,0.334-0.15,0.334-0.335v-3.689v-0.55c0-0.371-0.67-0.371-0.67,0v0.55v3.689
					C2.681,17.814,2.831,17.964,3.017,17.964z"/>
				<path fill="#FFFFFF" d="M37.845,17.964c0.186,0,0.334-0.15,0.334-0.335v-3.689v-0.55c0-0.371-0.669-0.371-0.669,0v0.55v3.689
					C37.511,17.814,37.659,17.964,37.845,17.964z"/>
				<path fill="#FFFFFF" d="M39.207,25.853c0.184,0,0.334-0.149,0.334-0.335v-4.498c0-0.37-0.67-0.37-0.67,0v4.498
					C38.871,25.704,39.022,25.853,39.207,25.853z"/>
				<path fill="#FFFFFF" d="M39.207,19.74c0.184,0,0.334-0.15,0.334-0.335v-1.31c0-0.371-0.67-0.371-0.67,0v1.31
					C38.871,19.59,39.022,19.74,39.207,19.74z"/>
				<path fill="#FFFFFF" d="M40.191,26.99v4.036c0,0.186,0.151,0.336,0.336,0.336s0.335-0.15,0.335-0.336V26.99
					C40.862,26.619,40.191,26.619,40.191,26.99z"/>
				<path fill="#FFFFFF" d="M40.191,24.025v0.856c0,0.185,0.151,0.335,0.336,0.335s0.335-0.15,0.335-0.335v-0.856
					C40.862,23.654,40.191,23.654,40.191,24.025z"/>
				<path fill="#FFFFFF" d="M33.823,15.121c0.185,0,0.334-0.15,0.334-0.335v-0.846v-2.79c0-0.371-0.67-0.371-0.67,0v2.79v0.846
					C33.487,14.971,33.64,15.121,33.823,15.121z"/>
				<path fill="#FFFFFF" d="M32.476,11.394c0.184,0,0.333-0.15,0.333-0.335v-0.74V7.421c0-0.371-0.669-0.371-0.669,0v2.897v0.74
					C32.14,11.243,32.289,11.394,32.476,11.394z"/>
				<path fill="#FFFFFF" d="M33.853,9.337c0.185,0,0.336-0.15,0.336-0.335V7.101c0-0.371-0.672-0.371-0.672,0v1.901
					C33.517,9.188,33.67,9.337,33.853,9.337z"/>
				<path fill="#FFFFFF" d="M27.447,13.939v-3.621V7.732c0-0.372-0.672-0.372-0.672,0v2.586v3.621v16.622
					c0.269,0.418,0.491,0.855,0.672,1.308V13.939z"/>
				<path fill="#FFFFFF" d="M26.105,29.704V13.939v-1.469c0-0.371-0.67-0.371-0.67,0v1.469v15.074
					c0.092,0.083,0.199,0.145,0.291,0.234C25.87,29.39,25.975,29.554,26.105,29.704z"/>
				<path fill="#FFFFFF" d="M24.764,13.939v-3.621V5.443c0-0.371-0.669-0.371-0.669,0v4.875v3.621v14.124
					c0.229,0.128,0.453,0.259,0.669,0.412V13.939z"/>
				<path fill="#FFFFFF" d="M23.422,13.939v-3.621V6.804c0-0.371-0.67-0.371-0.67,0v3.514v3.621v13.537
					c0.227,0.074,0.451,0.146,0.67,0.242V13.939z"/>
				<path fill="#FFFFFF" d="M22.083,13.939v-3.621V4.522c0-0.371-0.672-0.371-0.672,0v5.796v3.621V27.17
					c0.227,0.03,0.448,0.063,0.672,0.114V13.939z"/>
				<path fill="#FFFFFF" d="M20.741,13.939v-3.621V0.278c0-0.371-0.67-0.371-0.67,0v10.04v3.621v13.169
					c0.223-0.01,0.445-0.007,0.67,0.002V13.939z"/>
				<path fill="#FFFFFF" d="M19.399,13.939v-3.621V4.522c0-0.371-0.669-0.371-0.669,0v5.796v3.621v13.349
					c0.222-0.052,0.445-0.079,0.669-0.109V13.939z"/>
				<path fill="#FFFFFF" d="M18.059,13.939v-3.621V6.832c0-0.371-0.672-0.371-0.672,0v3.487v3.621v13.792
					c0.219-0.097,0.446-0.164,0.672-0.238V13.939z"/>
				<path fill="#FFFFFF" d="M16.718,13.939v-3.621V5.443c0-0.371-0.67-0.371-0.67,0v4.875v3.621v14.564
					c0.214-0.156,0.441-0.283,0.67-0.413V13.939z"/>
				<path fill="#FFFFFF" d="M15.376,29.062V13.939v-1.469c0-0.371-0.67-0.371-0.67,0v1.469V29.76
					c0.119-0.14,0.211-0.293,0.342-0.426C15.151,29.23,15.27,29.158,15.376,29.062z"/>
				<path fill="#FFFFFF" d="M14.037,13.939v-3.621V7.732c0-0.372-0.672-0.372-0.672,0v2.586v3.621v18.051
					c0.175-0.471,0.396-0.926,0.672-1.361V13.939z"/>
			</g>
			<circle fill="#FFFFFF" cx="20.428" cy="34.604" r="1.255"/>
			<path fill="#FFFFFF" d="M20.405,40.603L20.405,40.603c1.611,0,3.124-0.634,4.258-1.783c2.31-2.346,2.278-6.138-0.067-8.454
				c-1.131-1.108-2.621-1.717-4.196-1.717c-1.613,0-3.124,0.634-4.255,1.785c-1.119,1.136-1.729,2.639-1.718,4.231
				c0.012,1.597,0.647,3.095,1.788,4.218C17.339,39.992,18.828,40.603,20.405,40.603z M16.48,30.764
				c1.042-1.061,2.433-1.645,3.919-1.645c1.452,0,2.826,0.561,3.865,1.582c2.162,2.134,2.191,5.629,0.063,7.79
				c-1.044,1.06-2.437,1.644-3.923,1.644c-1.453,0-2.824-0.563-3.86-1.585c-1.053-1.035-1.636-2.416-1.649-3.887
				C14.885,33.194,15.45,31.81,16.48,30.764z"/>
		</g>
	</g>
</g>
<g id="Layer_2">
</g>
</svg>
