<?xml version="1.0" encoding="utf-8"?>
<!-- Generator: Adobe Illustrator 15.1.0, SVG Export Plug-In . SVG Version: 6.00 Build 0)  -->
<!DOCTYPE svg PUBLIC "-//W3C//DTD SVG 1.1//EN" "http://www.w3.org/Graphics/SVG/1.1/DTD/svg11.dtd">
<svg version="1.1" id="Layer_1" xmlns="http://www.w3.org/2000/svg" xmlns:xlink="http://www.w3.org/1999/xlink" x="0px" y="0px"
	 width="21.662px" height="19px" viewBox="972.169 385.5 21.662 19" enable-background="new 972.169 385.5 21.662 19"
	 xml:space="preserve">
<g>
	<path fill="#FF5A29" d="M982.66,398.026c0.023,0.02,0.051,0.029,0.076,0.044c0.021,0.013,0.04,0.028,0.064,0.037
		c0.059,0.023,0.119,0.037,0.182,0.037s0.123-0.014,0.182-0.037c0.024-0.009,0.043-0.024,0.064-0.037
		c0.025-0.015,0.053-0.024,0.076-0.044l5.121-4.327c0.211-0.178,0.238-0.494,0.06-0.705c-0.179-0.211-0.493-0.236-0.704-0.059
		l-4.299,3.631V386c0-0.276-0.224-0.5-0.5-0.5s-0.5,0.224-0.5,0.5v10.567l-4.299-3.631c-0.21-0.177-0.525-0.152-0.704,0.059
		c-0.179,0.211-0.151,0.526,0.06,0.705L982.66,398.026z"/>
	<path fill="#FF5A29" d="M976.029,401.83h13.905c0.276,0,0.5-0.224,0.5-0.5s-0.224-0.5-0.5-0.5h-13.905c-0.276,0-0.5,0.224-0.5,0.5
		S975.753,401.83,976.029,401.83z"/>
	<path fill="#FF5A29" d="M993.331,398.672c-0.276,0-0.5,0.224-0.5,0.5v2.271c0,1.134-0.922,2.057-2.056,2.057h-15.551
		c-1.134,0-2.056-0.923-2.056-2.057v-2.236c0-0.276-0.224-0.5-0.5-0.5s-0.5,0.224-0.5,0.5v2.236c0,1.686,1.371,3.057,3.056,3.057
		h15.551c1.685,0,3.056-1.371,3.056-3.057v-2.271C993.831,398.896,993.607,398.672,993.331,398.672z"/>
</g>
</svg>
