<?xml version="1.0" encoding="utf-8"?>
<!-- Generator: Adobe Illustrator 15.1.0, SVG Export Plug-In . SVG Version: 6.00 Build 0)  -->
<!DOCTYPE svg PUBLIC "-//W3C//DTD SVG 1.1//EN" "http://www.w3.org/Graphics/SVG/1.1/DTD/svg11.dtd">
<svg version="1.1" id="Layer_1" xmlns="http://www.w3.org/2000/svg" xmlns:xlink="http://www.w3.org/1999/xlink" x="0px" y="0px"
	 width="14px" height="14px" viewBox="241 390.521 14 14" enable-background="new 241 390.521 14 14" xml:space="preserve">
<g>
	<path fill="#DDDDDD" d="M248,390.521c-3.866,0-7,3.134-7,7c0,3.865,3.134,7,7,7s7-3.135,7-7
		C255,393.655,251.866,390.521,248,390.521z M248.701,392.958c0.611,0,0.918,0.417,0.918,0.894c0,0.596-0.531,1.146-1.223,1.146
		c-0.579,0-0.917-0.342-0.9-0.907C247.496,393.613,247.897,392.958,248.701,392.958z M246.82,402.084
		c-0.482,0-0.836-0.298-0.499-1.608l0.554-2.323c0.098-0.372,0.113-0.521,0-0.521c-0.145,0-0.771,0.257-1.142,0.51l-0.241-0.401
		c1.174-0.998,2.525-1.582,3.104-1.582c0.482,0,0.563,0.581,0.322,1.474l-0.635,2.442c-0.112,0.432-0.064,0.581,0.049,0.581
		c0.145,0,0.619-0.181,1.086-0.553l0.273,0.372C248.549,401.637,247.303,402.084,246.82,402.084z"/>
</g>
</svg>
