<?xml version="1.0" encoding="utf-8"?>
<!-- Generator: Adobe Illustrator 15.1.0, SVG Export Plug-In . SVG Version: 6.00 Build 0)  -->
<!DOCTYPE svg PUBLIC "-//W3C//DTD SVG 1.1//EN" "http://www.w3.org/Graphics/SVG/1.1/DTD/svg11.dtd">
<svg version="1.1" id="Layer_1" xmlns="http://www.w3.org/2000/svg" xmlns:xlink="http://www.w3.org/1999/xlink" x="0px" y="0px"
	 width="10px" height="10px" viewBox="0 0 10 10" enable-background="new 0 0 10 10" xml:space="preserve">
<g id="Settings">
	<g>
		<path fill="#A7A7A7" d="M9.969,4.446C9.954,4.304,9.79,4.199,9.648,4.199c-0.458,0-0.865-0.269-1.036-0.686
			c-0.174-0.425-0.062-0.922,0.28-1.235C9,2.179,9.012,2.015,8.923,1.899C8.688,1.603,8.421,1.333,8.13,1.1
			C8.016,1.009,7.85,1.021,7.75,1.13c-0.298,0.33-0.833,0.454-1.247,0.28C6.072,1.23,5.801,0.794,5.828,0.326
			C5.837,0.178,5.729,0.05,5.583,0.033C5.209-0.01,4.832-0.011,4.458,0.031C4.313,0.046,4.205,0.171,4.21,0.317
			C4.226,0.78,3.952,1.208,3.525,1.383C3.117,1.55,2.585,1.429,2.287,1.101C2.189,0.994,2.024,0.981,1.91,1.069
			C1.61,1.304,1.338,1.575,1.101,1.87C1.009,1.985,1.022,2.152,1.131,2.25c0.348,0.313,0.46,0.815,0.28,1.247
			C1.238,3.909,0.812,4.173,0.323,4.173C0.164,4.167,0.051,4.274,0.034,4.419C-0.01,4.794-0.011,5.177,0.031,5.556
			c0.016,0.142,0.185,0.245,0.328,0.245C0.795,5.791,1.213,6.06,1.388,6.487c0.175,0.426,0.063,0.922-0.279,1.236
			C1.002,7.822,0.988,7.985,1.078,8.101c0.232,0.294,0.5,0.564,0.791,0.8C1.984,8.992,2.15,8.98,2.25,8.871
			C2.549,8.54,3.084,8.417,3.497,8.59C3.928,8.77,4.2,9.206,4.173,9.674c-0.009,0.146,0.1,0.275,0.246,0.293
			C4.609,9.989,4.802,10,4.994,10C5.178,10,5.36,9.99,5.543,9.97C5.688,9.955,5.796,9.83,5.791,9.684
			C5.774,9.22,6.049,8.792,6.475,8.618C6.887,8.45,7.416,8.572,7.713,8.9c0.099,0.107,0.262,0.12,0.377,0.031
			C8.39,8.697,8.662,8.426,8.9,8.131C8.992,8.016,8.979,7.849,8.87,7.75C8.522,7.436,8.409,6.935,8.589,6.503
			c0.17-0.404,0.582-0.678,1.023-0.678l0.062,0.001C9.818,5.838,9.95,5.728,9.967,5.582C10.011,5.207,10.011,4.824,9.969,4.446z
			 M5.008,6.678c-0.919,0-1.667-0.747-1.667-1.667s0.749-1.668,1.667-1.668c0.92,0,1.668,0.748,1.668,1.668S5.928,6.678,5.008,6.678
			z"/>
	</g>
</g>
</svg>
