<?xml version="1.0" encoding="utf-8"?>
<!-- Generator: Adobe Illustrator 15.1.0, SVG Export Plug-In . SVG Version: 6.00 Build 0)  -->
<!DOCTYPE svg PUBLIC "-//W3C//DTD SVG 1.1//EN" "http://www.w3.org/Graphics/SVG/1.1/DTD/svg11.dtd">
<svg version="1.1" id="Layer_1" xmlns="http://www.w3.org/2000/svg" xmlns:xlink="http://www.w3.org/1999/xlink" x="0px" y="0px"
	 width="22px" height="22px" viewBox="6.5 6.5 22 22" enable-background="new 6.5 6.5 22 22" xml:space="preserve">
<g>
	<path fill="#FFFFFF" d="M17.5,28C11.71,28,7,23.29,7,17.5S11.71,7,17.5,7S28,11.71,28,17.5S23.29,28,17.5,28z"/>
	<path fill="#E2E2E4" d="M17.5,7.5c5.514,0,10,4.486,10,10c0,5.514-4.486,10-10,10c-5.514,0-10-4.486-10-10
		C7.5,11.986,11.986,7.5,17.5,7.5 M17.5,6.5c-6.075,0-11,4.925-11,11s4.925,11,11,11s11-4.925,11-11S23.575,6.5,17.5,6.5L17.5,6.5z"
		/>
</g>
<circle display="none" fill="#F26739" cx="17.5" cy="17.5" r="3.775"/>
</svg>
