<?xml version="1.0" encoding="utf-8"?>
<!-- Generator: Adobe Illustrator 15.1.0, SVG Export Plug-In . SVG Version: 6.00 Build 0)  -->
<!DOCTYPE svg PUBLIC "-//W3C//DTD SVG 1.1//EN" "http://www.w3.org/Graphics/SVG/1.1/DTD/svg11.dtd">
<svg version="1.1" id="Layer_1" xmlns="http://www.w3.org/2000/svg" xmlns:xlink="http://www.w3.org/1999/xlink" x="0px" y="0px"
	 width="75.149px" height="85px" viewBox="0 0 75.149 85" enable-background="new 0 0 75.149 85" xml:space="preserve">
<g>
	<path fill="#F2662C" d="M49.578,31.847H1.062C0.476,31.847,0,31.371,0,30.784v-3.978c0-0.587,0.476-1.063,1.062-1.063h48.516
		c0.588,0,1.062,0.476,1.062,1.063v3.978C50.641,31.371,50.166,31.847,49.578,31.847z M2.125,29.721h46.391v-1.852H2.125V29.721z"/>
</g>
<g>
	<path fill="#F2662C" d="M71.095,55.234H13.158c-2.235,0-4.054-1.818-4.054-4.054c0-2.322,1.818-4.141,4.054-4.141h57.937
		c2.236,0,4.055,1.818,4.055,4.055C75.149,53.416,73.331,55.234,71.095,55.234z M13.158,49.165c-1.063,0-1.929,0.866-1.929,1.93
		c0,1.149,0.865,2.015,1.929,2.015h57.937c1.063,0,1.929-0.865,1.929-1.929c0-1.149-0.865-2.016-1.929-2.016H13.158z"/>
</g>
<g>
	<path fill="#F2662C" d="M59.116,68.659H25.138c-2.236,0-4.055-1.818-4.055-4.055v-3.077c0-0.588,0.476-1.062,1.062-1.062
		c0.588,0,1.062,0.475,1.062,1.062v3.077c0,1.063,0.866,1.93,1.93,1.93h33.979c1.063,0,1.929-0.866,1.929-1.93v-3.077
		c0-0.588,0.476-1.062,1.062-1.062c0.588,0,1.062,0.475,1.062,1.062v3.077C63.17,66.841,61.352,68.659,59.116,68.659z"/>
</g>
<g>
	<path fill="#F2662C" d="M10.167,52.2H7.303c-2.165,0-3.927-1.818-3.927-4.055V31.624c0-0.587,0.476-1.063,1.062-1.063
		s1.062,0.476,1.062,1.063v16.522c0,1.063,0.809,1.93,1.802,1.93h2.864c0.587,0,1.062,0.475,1.062,1.062
		C11.229,51.725,10.754,52.2,10.167,52.2z"/>
</g>
<g>
	<path fill="#F2662C" d="M67.728,61.591H16.525c-0.587,0-1.062-0.475-1.062-1.062c0-0.587,0.476-1.062,1.062-1.062h51.202
		c0.588,0,1.062,0.476,1.062,1.062C68.79,61.116,68.315,61.591,67.728,61.591z"/>
</g>
<g>
	<path fill="#F2662C" d="M16.525,85c-0.587,0-1.062-0.476-1.062-1.062V54.172c0-0.587,0.476-1.062,1.062-1.062
		s1.062,0.476,1.062,1.062v29.766C17.588,84.524,17.112,85,16.525,85z"/>
</g>
<g>
	<path fill="#F2662C" d="M34.676,68.659c-0.587,0-1.062-0.476-1.062-1.062v-6.069c0-0.588,0.476-1.062,1.062-1.062
		s1.062,0.475,1.062,1.062v6.069C35.738,68.184,35.263,68.659,34.676,68.659z"/>
</g>
<g>
	<path fill="#F2662C" d="M49.578,68.659c-0.587,0-1.062-0.476-1.062-1.062v-6.069c0-0.588,0.476-1.062,1.062-1.062
		c0.588,0,1.062,0.475,1.062,1.062v6.069C50.641,68.184,50.166,68.659,49.578,68.659z"/>
</g>
<g>
	<path fill="#F2662C" d="M67.728,85c-0.587,0-1.062-0.476-1.062-1.062V54.172c0-0.587,0.476-1.062,1.062-1.062
		c0.588,0,1.062,0.476,1.062,1.062v29.766C68.79,84.524,68.315,85,67.728,85z"/>
</g>
<g>
	<path fill="#F2662C" d="M67.727,48.699c-0.512,0-0.964-0.372-1.048-0.895L59.918,5.958c-0.336-2.077-2.397-3.832-4.502-3.832
		H28.837c-2.105,0-4.167,1.755-4.503,3.832l-2.772,17.166c-0.094,0.579-0.642,0.969-1.219,0.88c-0.579-0.094-0.974-0.64-0.879-1.219
		l2.772-17.166C22.736,2.521,25.697,0,28.837,0h26.579c3.139,0,6.101,2.521,6.6,5.619l6.761,41.847
		c0.095,0.579-0.3,1.125-0.879,1.219C67.84,48.694,67.783,48.699,67.727,48.699z"/>
</g>
<g>
	<path fill="#F2662C" d="M16.526,48.699c-0.057,0-0.113-0.005-0.17-0.015c-0.58-0.094-0.975-0.64-0.88-1.219l2.134-13.21
		c0.093-0.58,0.638-0.975,1.219-0.88c0.579,0.094,0.974,0.64,0.879,1.219l-2.134,13.21C17.49,48.327,17.039,48.699,16.526,48.699z"
		/>
</g>
</svg>
