<?xml version="1.0" encoding="utf-8"?>
<!-- Generator: Adobe Illustrator 15.1.0, SVG Export Plug-In . SVG Version: 6.00 Build 0)  -->
<!DOCTYPE svg PUBLIC "-//W3C//DTD SVG 1.1//EN" "http://www.w3.org/Graphics/SVG/1.1/DTD/svg11.dtd">
<svg version="1.1" id="Layer_1" xmlns="http://www.w3.org/2000/svg" xmlns:xlink="http://www.w3.org/1999/xlink" x="0px" y="0px"
	 width="30px" height="30px" viewBox="2.5 2.5 30 30" enable-background="new 2.5 2.5 30 30" xml:space="preserve">
<circle fill="#F6F6F6" cx="17.5" cy="17.5" r="15"/>
<g>
	<g>
		
			<path fill="none" stroke="#4F4F4F" stroke-width="0.5433" stroke-linecap="round" stroke-linejoin="round" stroke-miterlimit="10" d="
			M14.856,15.747v-1.958c0-0.805,0.651-1.456,1.456-1.456c0.804,0,1.456,0.651,1.456,1.456v5.167c0,0.805-0.652,1.457-1.456,1.457
			c-0.805,0-1.456-0.652-1.456-1.457v-0.893"/>
	</g>
	<g>
		
			<path fill="none" stroke="#4F4F4F" stroke-width="0.5433" stroke-linecap="round" stroke-linejoin="round" stroke-miterlimit="10" d="
			M19.382,20.412c-0.805,0-1.456-0.652-1.456-1.457v-5.167c0-0.805,0.651-1.456,1.456-1.456c0.804,0,1.456,0.651,1.456,1.456v5.167
			C20.838,19.76,20.186,20.412,19.382,20.412z"/>
	</g>
	<g>
		
			<line fill="none" stroke="#4F4F4F" stroke-width="0.5433" stroke-linecap="round" stroke-linejoin="round" stroke-miterlimit="10" x1="18.21" y1="25.979" x2="11.944" y2="25.979"/>
		
			<path fill="none" stroke="#4F4F4F" stroke-width="0.5433" stroke-linecap="round" stroke-linejoin="round" stroke-miterlimit="10" d="
			M20.838,18.955V9.561c0-0.804,0.651-1.456,1.456-1.456c0.804,0,1.456,0.652,1.456,1.456v8.75"/>
	</g>
	<g>
		
			<path fill="none" stroke="#4F4F4F" stroke-width="0.5433" stroke-linecap="round" stroke-linejoin="round" stroke-miterlimit="10" d="
			M11.944,15.747V9.561c0-0.804,0.652-1.456,1.456-1.456c0.805,0,1.456,0.652,1.456,1.456v6.186"/>
	</g>
	
		<line fill="none" stroke="#4F4F4F" stroke-width="0.5433" stroke-linecap="round" stroke-linejoin="round" stroke-miterlimit="10" x1="21.842" y1="17.048" x2="22.777" y2="17.048"/>
	
		<line fill="none" stroke="#4F4F4F" stroke-width="0.5433" stroke-linecap="round" stroke-linejoin="round" stroke-miterlimit="10" x1="21.842" y1="13.931" x2="22.777" y2="13.931"/>
	
		<line fill="none" stroke="#4F4F4F" stroke-width="0.5433" stroke-linecap="round" stroke-linejoin="round" stroke-miterlimit="10" x1="21.842" y1="10.814" x2="22.777" y2="10.814"/>
	
		<line fill="none" stroke="#4F4F4F" stroke-width="0.5433" stroke-linecap="round" stroke-linejoin="round" stroke-miterlimit="10" x1="12.933" y1="13.931" x2="13.868" y2="13.931"/>
	
		<line fill="none" stroke="#4F4F4F" stroke-width="0.5433" stroke-linecap="round" stroke-linejoin="round" stroke-miterlimit="10" x1="12.933" y1="10.814" x2="13.868" y2="10.814"/>
	<g>
		
			<path fill="none" stroke="#4F4F4F" stroke-width="0.5433" stroke-linecap="round" stroke-linejoin="round" stroke-miterlimit="10" d="
			M23.75,18.311v6.172c0,0.823-0.673,1.496-1.496,1.496H18.21"/>
	</g>
	<g>
		
			<path fill="none" stroke="#4F4F4F" stroke-width="0.5433" stroke-linecap="round" stroke-linejoin="round" stroke-miterlimit="10" d="
			M19.938,17.937v0.961c0,0.309-0.25,0.557-0.558,0.557c-0.307,0-0.557-0.248-0.557-0.557v-0.961H19.938z"/>
	</g>
	<g>
		
			<path fill="none" stroke="#4F4F4F" stroke-width="0.5433" stroke-linecap="round" stroke-linejoin="round" stroke-miterlimit="10" d="
			M16.87,17.937v0.961c0,0.309-0.25,0.557-0.558,0.557s-0.557-0.248-0.557-0.557v-0.961H16.87z"/>
	</g>
	
		<path fill="none" stroke="#4F4F4F" stroke-width="0.5433" stroke-linecap="round" stroke-linejoin="round" stroke-miterlimit="10" d="
		M11.944,25.979l-3.193-6.646l1.901-3.585h6.218c0,0,0.342,2.564-4.06,2.564l-0.866,1.309c0,0,5.953,1.123,4.926,6.277"/>
	
		<line fill="none" stroke="#4F4F4F" stroke-width="0.5433" stroke-linecap="round" stroke-linejoin="round" stroke-miterlimit="10" x1="12.811" y1="18.311" x2="11.944" y2="17.413"/>
	
		<line fill="none" stroke="#4F4F4F" stroke-width="0.5433" stroke-linecap="round" stroke-linejoin="round" stroke-miterlimit="10" x1="11.944" y1="19.619" x2="10.84" y2="19.844"/>
</g>
</svg>
