<?xml version="1.0" encoding="utf-8"?>
<!-- Generator: Adobe Illustrator 15.1.0, SVG Export Plug-In . SVG Version: 6.00 Build 0)  -->
<!DOCTYPE svg PUBLIC "-//W3C//DTD SVG 1.1//EN" "http://www.w3.org/Graphics/SVG/1.1/DTD/svg11.dtd">
<svg version="1.1" id="Layer_1" xmlns="http://www.w3.org/2000/svg" xmlns:xlink="http://www.w3.org/1999/xlink" x="0px" y="0px"
	 width="30px" height="30px" viewBox="2.5 2.5 30 30" enable-background="new 2.5 2.5 30 30" xml:space="preserve">
<circle fill="#F6F6F6" cx="17.5" cy="17.5" r="15"/>
<circle fill="none" stroke="#4F4F4F" stroke-width="0.5433" stroke-linecap="round" stroke-linejoin="round" stroke-miterlimit="10" cx="21.225" cy="12.356" r="4.157"/>
<path fill="none" stroke="#4F4F4F" stroke-width="0.5433" stroke-linecap="round" stroke-linejoin="round" stroke-miterlimit="10" d="
	M15.471,15.331c0.254,0.604,0.626,1.169,1.12,1.662c0.41,0.412,0.872,0.736,1.364,0.981"/>
<polyline fill="none" stroke="#4F4F4F" stroke-width="0.5433" stroke-linecap="round" stroke-linejoin="round" stroke-miterlimit="10" points="
	17.069,13.442 10.47,21.236 12.344,23.112 20.139,16.513 "/>
<line fill="none" stroke="#4F4F4F" stroke-width="0.5433" stroke-linecap="round" stroke-linejoin="round" stroke-miterlimit="10" x1="23.139" y1="14.27" x2="24.371" y2="15.501"/>
<line fill="none" stroke="#4F4F4F" stroke-width="0.5433" stroke-linecap="round" stroke-linejoin="round" stroke-miterlimit="10" x1="22.346" y1="13.477" x2="18.104" y2="9.233"/>
<circle fill="#4F4F4F" cx="22.403" cy="9.859" r="0.211"/>
<circle fill="#4F4F4F" cx="20.742" cy="9.771" r="0.212"/>
<g>
	
		<path fill="none" stroke="#4F4F4F" stroke-width="0.5433" stroke-linecap="round" stroke-linejoin="round" stroke-miterlimit="10" d="
		M11.406,22.175c0,0-0.441,0.44-0.98,0.979c-0.539,0.539-0.442,1.517,0.214,2.174l0.143,0.143c0.657,0.657,1.731,0.657,2.387,0
		l3.73-3.73c0.656-0.657,1.71-0.678,2.342-0.047c0.631,0.631,0.61,1.685-0.047,2.341l-1.549,1.549"/>
</g>
</svg>
