<?xml version="1.0" encoding="utf-8"?>
<!-- Generator: Adobe Illustrator 15.1.0, SVG Export Plug-In . SVG Version: 6.00 Build 0)  -->
<!DOCTYPE svg PUBLIC "-//W3C//DTD SVG 1.1//EN" "http://www.w3.org/Graphics/SVG/1.1/DTD/svg11.dtd">
<svg version="1.1" id="Layer_1" xmlns="http://www.w3.org/2000/svg" xmlns:xlink="http://www.w3.org/1999/xlink" x="0px" y="0px"
	 width="25.755px" height="22.766px" viewBox="-5.122 -1.958 25.755 22.766" enable-background="new -5.122 -1.958 25.755 22.766"
	 xml:space="preserve">
<g>
	<g>
		<g>
			<path fill="#AEB2B7" d="M4.067,20.808H4.036c-0.657,0-1.229-0.446-1.393-1.085l-2.114-8.364L0.375,11.77
				c-0.21,0.559-0.751,0.934-1.348,0.934h-2.712c-0.792,0-1.438-0.646-1.438-1.438s0.645-1.438,1.438-1.438h1.718l1.418-3.781
				C-0.337,5.48,0.196,5.114,0.81,5.114C1.51,5.151,2.038,5.587,2.191,6.2l1.657,6.553L6.457-0.793
				c0.13-0.663,0.69-1.141,1.362-1.165c0.001,0,0.002,0,0.003,0c0.705,0,1.271,0.438,1.437,1.065l2.167,8.072l1.459-3.405
				c0.228-0.529,0.746-0.871,1.321-0.871c0.627,0.014,1.143,0.382,1.349,0.936l2.007,5.387h1.635c0.793,0,1.438,0.645,1.438,1.438
				s-0.645,1.438-1.438,1.438h-2.633c-0.597,0-1.138-0.376-1.348-0.936l-1.104-2.959l-1.68,3.918
				c-0.227,0.528-0.747,0.87-1.326,0.87c-0.009,0-0.087-0.003-0.096-0.003c-0.61-0.043-1.128-0.469-1.287-1.061L8.1,5.885
				L5.45,19.642c-0.125,0.655-0.702,1.146-1.371,1.166C4.075,20.808,4.071,20.808,4.067,20.808z M0.601,9.692
				c0.007,0,0.014,0,0.021,0.001C0.79,9.702,0.931,9.819,0.973,9.982l2.414,9.553c0.076,0.297,0.343,0.506,0.649,0.506l0.031,0.384
				L4.056,20.04c0.312-0.009,0.582-0.237,0.64-0.543L7.662,4.103c0.034-0.175,0.184-0.304,0.363-0.311
				C8.192,3.8,8.362,3.904,8.409,4.076l2.054,7.657c0.075,0.275,0.315,0.475,0.6,0.494c0.002,0,0.003,0,0.004,0
				c0.309,0,0.557-0.162,0.66-0.404l2.057-4.798c0.062-0.145,0.227-0.249,0.361-0.232c0.157,0.003,0.296,0.103,0.351,0.249
				l1.438,3.856c0.098,0.261,0.351,0.437,0.629,0.437h2.633c0.369,0,0.67-0.301,0.67-0.671s-0.301-0.671-0.67-0.671h-1.901
				c-0.16,0-0.304-0.099-0.359-0.25l-2.1-5.637c-0.097-0.259-0.337-0.43-0.614-0.437H14.22c-0.283,0-0.525,0.16-0.631,0.406
				l-1.896,4.422c-0.064,0.15-0.221,0.239-0.38,0.231c-0.163-0.012-0.301-0.125-0.343-0.283L8.516-0.696
				C8.44-0.984,8.171-1.192,7.876-1.192C7.532-1.18,7.27-0.956,7.209-0.647L4.276,14.591c-0.034,0.177-0.186,0.306-0.365,0.312
				c-0.188,0.002-0.339-0.116-0.383-0.29l-2.08-8.225c-0.072-0.287-0.318-0.49-0.612-0.506c0,0-0.001,0-0.001,0
				c-0.315,0-0.565,0.17-0.664,0.434l-1.512,4.031c-0.056,0.149-0.2,0.249-0.359,0.249h-1.983c-0.37,0-0.67,0.301-0.67,0.67
				c0,0.37,0.3,0.671,0.67,0.671h2.712c0.278,0,0.531-0.175,0.629-0.436l0.585-1.56C0.298,9.79,0.441,9.692,0.601,9.692z"/>
		</g>
	</g>
</g>
</svg>
