<?xml version="1.0" encoding="utf-8"?>
<!-- Generator: Adobe Illustrator 15.1.0, SVG Export Plug-In . SVG Version: 6.00 Build 0)  -->
<!DOCTYPE svg PUBLIC "-//W3C//DTD SVG 1.1//EN" "http://www.w3.org/Graphics/SVG/1.1/DTD/svg11.dtd">
<svg version="1.1" id="Layer_1" xmlns="http://www.w3.org/2000/svg" xmlns:xlink="http://www.w3.org/1999/xlink" x="0px" y="0px"
	 width="20.206px" height="13px" viewBox="-2.457 3.036 20.206 13" enable-background="new -2.457 3.036 20.206 13"
	 xml:space="preserve">
<g>
	<path fill="#AEB2B7" d="M7.646,16.036c-4.278,0-8.231-2.498-10.071-6.362c-0.021-0.044-0.032-0.091-0.031-0.138
		c-0.001-0.046,0.01-0.093,0.031-0.138c1.84-3.865,5.793-6.362,10.071-6.362s8.232,2.498,10.072,6.363
		c0.042,0.086,0.042,0.187,0,0.273C15.878,13.538,11.924,16.036,7.646,16.036z M-1.784,9.536c1.762,3.566,5.446,5.863,9.43,5.863
		s7.668-2.297,9.431-5.863c-1.763-3.566-5.447-5.863-9.431-5.863S-0.022,5.97-1.784,9.536z"/>
</g>
<g>
	<path fill="#AEB2B7" d="M7.647,14.419c-2.692,0-4.883-2.19-4.883-4.883s2.19-4.882,4.883-4.882c2.691,0,4.882,2.19,4.882,4.882
		S10.338,14.419,7.647,14.419z M7.647,5.291c-2.341,0-4.245,1.904-4.245,4.245s1.904,4.245,4.245,4.245s4.244-1.904,4.244-4.245
		S9.988,5.291,7.647,5.291z"/>
</g>
<g>
	<path fill="#AEB2B7" d="M4.917,8.496c-0.048,0-0.097-0.011-0.143-0.034c-0.157-0.079-0.222-0.27-0.143-0.428
		c0.574-1.15,1.729-1.865,3.015-1.865c0.176,0,0.318,0.143,0.318,0.319c0,0.176-0.143,0.318-0.318,0.318
		c-1.042,0-1.979,0.58-2.444,1.513C5.147,8.431,5.034,8.496,4.917,8.496z"/>
</g>
</svg>
