<?xml version="1.0" encoding="utf-8"?>
<!-- Generator: Adobe Illustrator 15.1.0, SVG Export Plug-In . SVG Version: 6.00 Build 0)  -->
<!DOCTYPE svg PUBLIC "-//W3C//DTD SVG 1.1//EN" "http://www.w3.org/Graphics/SVG/1.1/DTD/svg11.dtd">
<svg version="1.1" id="Layer_1" xmlns="http://www.w3.org/2000/svg" xmlns:xlink="http://www.w3.org/1999/xlink" x="0px" y="0px"
	 width="19.001px" height="20.214px" viewBox="447.875 445.775 19.001 20.214"
	 enable-background="new 447.875 445.775 19.001 20.214" xml:space="preserve">
<g>
	<path fill="#AEB2B7" d="M457.375,461.411c-0.21,0-0.381-0.171-0.381-0.381v-14.874c0-0.21,0.171-0.381,0.381-0.381
		s0.381,0.171,0.381,0.381v14.874C457.756,461.24,457.585,461.411,457.375,461.411z"/>
</g>
<g>
	<g>
		<path fill="#AEB2B7" d="M466.494,465.989h-18.238c-0.21,0-0.381-0.171-0.381-0.381v-4.574c0-0.21,0.171-0.381,0.381-0.381
			c0.211,0,0.381,0.171,0.381,0.381v4.192h17.478v-4.192c0-0.21,0.17-0.381,0.381-0.381c0.21,0,0.381,0.171,0.381,0.381v4.574
			C466.875,465.818,466.704,465.989,466.494,465.989z"/>
	</g>
</g>
<g>
	<path fill="#AEB2B7" d="M457.375,461.411c-0.102,0-0.198-0.04-0.27-0.112l-4.434-4.432c-0.147-0.149-0.147-0.391,0-0.539
		c0.148-0.149,0.391-0.149,0.539,0l4.163,4.163l4.163-4.163c0.147-0.149,0.39-0.149,0.538,0c0.148,0.148,0.148,0.39,0,0.539
		l-4.433,4.432C457.573,461.371,457.477,461.411,457.375,461.411z"/>
</g>
</svg>
