<?xml version="1.0" encoding="utf-8"?>
<!-- Generator: Adobe Illustrator 15.1.0, SVG Export Plug-In . SVG Version: 6.00 Build 0)  -->
<!DOCTYPE svg PUBLIC "-//W3C//DTD SVG 1.1//EN" "http://www.w3.org/Graphics/SVG/1.1/DTD/svg11.dtd">
<svg version="1.1" id="Layer_1" xmlns="http://www.w3.org/2000/svg" xmlns:xlink="http://www.w3.org/1999/xlink" x="0px" y="0px"
	 width="19px" height="20.214px" viewBox="0 0 19 20.214" enable-background="new 0 0 19 20.214" xml:space="preserve">
<g>
	<path fill="#C95632" d="M9.499,15.636c-0.211,0-0.381-0.172-0.381-0.381V0.38C9.118,0.171,9.288,0,9.499,0
		C9.708,0,9.88,0.171,9.88,0.38v14.875C9.88,15.464,9.708,15.636,9.499,15.636z"/>
</g>
<g>
	<g>
		<path fill="#C95632" d="M18.618,20.214H0.38c-0.211,0-0.381-0.172-0.381-0.381v-4.574c0-0.211,0.17-0.381,0.381-0.381
			s0.381,0.17,0.381,0.381v4.191h17.478v-4.191c0-0.211,0.17-0.381,0.381-0.381c0.209,0,0.381,0.17,0.381,0.381v4.574
			C18.999,20.042,18.827,20.214,18.618,20.214z"/>
	</g>
</g>
<g>
	<path fill="#C95632" d="M9.499,15.636c-0.102,0-0.199-0.041-0.27-0.113l-4.436-4.432c-0.146-0.148-0.146-0.391,0-0.539
		c0.148-0.148,0.393-0.148,0.539,0l4.164,4.164l4.162-4.164c0.146-0.148,0.391-0.148,0.539,0c0.146,0.148,0.146,0.391,0,0.539
		l-4.433,4.432C9.696,15.595,9.601,15.636,9.499,15.636z"/>
</g>
</svg>
