<?xml version="1.0" encoding="utf-8"?>
<!-- Generator: Adobe Illustrator 15.1.0, SVG Export Plug-In . SVG Version: 6.00 Build 0)  -->
<!DOCTYPE svg PUBLIC "-//W3C//DTD SVG 1.1//EN" "http://www.w3.org/Graphics/SVG/1.1/DTD/svg11.dtd">
<svg version="1.1" id="Layer_1" xmlns="http://www.w3.org/2000/svg" xmlns:xlink="http://www.w3.org/1999/xlink" x="0px" y="0px"
	 width="15px" height="15px" viewBox="0 0 15 15" enable-background="new 0 0 15 15" xml:space="preserve">
<g>
	<path fill="#C95632" d="M4.835,8.035c0-0.079-0.008-0.157-0.021-0.233c0.015-0.027,0.021-0.061,0.021-0.094V0.825l1.482,1.389
		C6.421,2.308,6.582,2.306,6.679,2.21c0.098-0.098,0.096-0.252-0.005-0.346L4.756,0.069C4.683,0.001,4.572-0.019,4.479,0.021
		C4.385,0.056,4.325,0.147,4.325,0.245v6.623c-0.443-0.451-1.135-0.74-1.907-0.74C1.085,6.128,0,6.983,0,8.039
		c0,1.053,1.084,1.908,2.418,1.908C3.751,9.945,4.835,9.087,4.835,8.035z M2.418,9.457c-1.052,0-1.908-0.637-1.908-1.42
		c0-0.786,0.855-1.422,1.908-1.422c1.051,0,1.907,0.637,1.907,1.422C4.325,8.818,3.469,9.457,2.418,9.457z"/>
	<path fill="#C95632" d="M15,5.298c0-0.135-0.114-0.246-0.255-0.246H7.94c-0.141,0-0.255,0.111-0.255,0.246v6.622
		c-0.44-0.449-1.132-0.74-1.907-0.74c-1.333,0-2.418,0.857-2.418,1.91S4.445,15,5.778,15s2.419-0.857,2.419-1.91
		c0-0.08-0.01-0.156-0.021-0.23c0.013-0.029,0.021-0.062,0.021-0.096V5.542h6.29v6.377c-0.44-0.449-1.131-0.74-1.905-0.74
		c-1.333,0-2.417,0.857-2.417,1.91S11.249,15,12.582,15C13.916,15,15,14.144,15,13.089c0-0.08-0.008-0.156-0.021-0.23
		C14.992,12.83,15,12.796,15,12.763V5.298L15,5.298z M5.779,14.509c-1.052,0-1.905-0.637-1.905-1.42s0.854-1.42,1.905-1.42
		c1.054,0,1.907,0.637,1.907,1.42C7.688,13.873,6.832,14.509,5.779,14.509z M12.582,14.509c-1.051,0-1.907-0.637-1.907-1.42
		s0.854-1.42,1.907-1.42c1.052,0,1.907,0.637,1.907,1.42C14.488,13.873,13.634,14.509,12.582,14.509z"/>
</g>
</svg>
