<?xml version="1.0" encoding="utf-8"?>
<!-- Generator: Adobe Illustrator 16.0.0, SVG Export Plug-In . SVG Version: 6.00 Build 0)  -->
<!DOCTYPE svg PUBLIC "-//W3C//DTD SVG 1.1//EN" "http://www.w3.org/Graphics/SVG/1.1/DTD/svg11.dtd">
<svg version="1.1" id="Layer_1" xmlns="http://www.w3.org/2000/svg" xmlns:xlink="http://www.w3.org/1999/xlink" x="0px" y="0px"
	 width="15.665px" height="14.881px" viewBox="16.167 15.116 15.665 14.881" enable-background="new 16.167 15.116 15.665 14.881"
	 xml:space="preserve">
<g>
	<path fill="#AFB2B7" d="M25.069,19.486c0,0.232,0.188,0.422,0.422,0.422c0.232,0,0.422-0.189,0.422-0.422
		c0-1.817-1.641-2.328-2.532-2.348c-0.906-0.122-1.516-0.396-1.765-0.793c-0.202-0.323-0.103-0.644-0.095-0.666
		c0.077-0.218-0.035-0.458-0.253-0.536c-0.218-0.081-0.461,0.031-0.542,0.25c-0.017,0.046-0.11,0.329-0.069,0.701
		c-0.003,0.021-0.012,0.039-0.012,0.062v9.635c-0.477-0.409-1.115-0.662-1.817-0.662c-1.468,0-2.661,1.093-2.661,2.436
		c0,1.342,1.193,2.434,2.661,2.434c1.467,0,2.661-1.092,2.661-2.434V17.385c0.44,0.293,1.042,0.493,1.805,0.593
		c0.016,0.002,0.033,0.004,0.049,0.004C23.52,17.985,25.069,18.053,25.069,19.486z M18.828,29.154c-1.001,0-1.817-0.713-1.817-1.59
		c0-0.878,0.815-1.591,1.817-1.591c1.002,0,1.817,0.713,1.817,1.591C20.646,28.441,19.83,29.154,18.828,29.154z"/>
	<path fill="#AFB2B7" d="M28.403,19.71h3.008c0.234,0,0.422-0.189,0.422-0.422c0-0.233-0.188-0.423-0.422-0.423h-3.008
		c-0.232,0-0.422,0.189-0.422,0.423C27.981,19.521,28.17,19.71,28.403,19.71z"/>
	<path fill="#AFB2B7" d="M31.411,22.114h-7.264c-0.232,0-0.422,0.188-0.422,0.422s0.189,0.422,0.422,0.422h7.264
		c0.232,0,0.422-0.188,0.422-0.422S31.645,22.114,31.411,22.114z"/>
	<path fill="#AFB2B7" d="M16.687,19.71h1.496c0.233,0,0.422-0.189,0.422-0.422c0-0.233-0.189-0.423-0.422-0.423h-1.496
		c-0.233,0-0.422,0.189-0.422,0.423C16.265,19.521,16.454,19.71,16.687,19.71z"/>
	<path fill="#AFB2B7" d="M16.687,22.957h1.496c0.233,0,0.422-0.188,0.422-0.422s-0.189-0.422-0.422-0.422h-1.496
		c-0.233,0-0.422,0.188-0.422,0.422S16.454,22.957,16.687,22.957z"/>
	<path fill="#AFB2B7" d="M31.411,25.361h-7.264c-0.232,0-0.422,0.188-0.422,0.422c0,0.232,0.189,0.422,0.422,0.422h7.264
		c0.232,0,0.422-0.189,0.422-0.422C31.833,25.549,31.645,25.361,31.411,25.361z"/>
</g>
</svg>
