<?xml version="1.0" encoding="utf-8"?>
<!-- Generator: Adobe Illustrator 15.1.0, SVG Export Plug-In . SVG Version: 6.00 Build 0)  -->
<!DOCTYPE svg PUBLIC "-//W3C//DTD SVG 1.1//EN" "http://www.w3.org/Graphics/SVG/1.1/DTD/svg11.dtd">
<svg version="1.1" id="Layer_1" xmlns="http://www.w3.org/2000/svg" xmlns:xlink="http://www.w3.org/1999/xlink" x="0px" y="0px"
	 width="21px" height="17.908px" viewBox="0 0 21 17.908" enable-background="new 0 0 21 17.908" xml:space="preserve">
<g>
	<g>
		<g>
			<path fill="#AFB2B7" d="M6.966,10.616c-0.042,0-0.086-0.008-0.127-0.025c-0.124-0.051-0.204-0.172-0.204-0.307V8.025H0.331
				C0.148,8.025,0,7.876,0,7.693v-4.77C0,2.74,0.148,2.591,0.331,2.591h6.304V0.332c0-0.134,0.08-0.255,0.204-0.307
				c0.124-0.052,0.267-0.023,0.362,0.072l4.976,4.977c0.13,0.129,0.13,0.34,0,0.469l-4.976,4.976
				C7.138,10.583,7.053,10.616,6.966,10.616z M0.663,7.362h6.303c0.184,0,0.332,0.148,0.332,0.332v1.79l4.175-4.175L7.298,1.133
				v1.79c0,0.183-0.148,0.332-0.332,0.332H0.663V7.362z"/>
		</g>
		<g>
			<path fill="#AFB2B7" d="M14.033,17.908c-0.087,0-0.172-0.034-0.235-0.097l-4.976-4.977c-0.062-0.062-0.098-0.146-0.098-0.235
				c0-0.088,0.035-0.172,0.098-0.234l4.976-4.976c0.095-0.096,0.238-0.124,0.362-0.072c0.124,0.052,0.204,0.172,0.204,0.307v2.259
				h6.304c0.183,0,0.332,0.148,0.332,0.332v4.77c0,0.183-0.149,0.332-0.332,0.332h-6.304v2.26c0,0.134-0.08,0.255-0.204,0.307
				C14.119,17.899,14.075,17.908,14.033,17.908z M9.525,12.599l4.176,4.175v-1.79c0-0.183,0.148-0.332,0.332-0.332h6.303v-4.106
				h-6.303c-0.184,0-0.332-0.148-0.332-0.332v-1.79L9.525,12.599z"/>
		</g>
	</g>
</g>
</svg>
