<?xml version="1.0" encoding="utf-8"?>
<!-- Generator: Adobe Illustrator 15.1.0, SVG Export Plug-In . SVG Version: 6.00 Build 0)  -->
<!DOCTYPE svg PUBLIC "-//W3C//DTD SVG 1.1//EN" "http://www.w3.org/Graphics/SVG/1.1/DTD/svg11.dtd">
<svg version="1.1" id="Layer_1" xmlns="http://www.w3.org/2000/svg" xmlns:xlink="http://www.w3.org/1999/xlink" x="0px" y="0px"
	 width="20.206px" height="13px" viewBox="0 0 20.206 13" enable-background="new 0 0 20.206 13" xml:space="preserve">
<g>
	<path fill="#FF6633" d="M10.103,13c-4.278,0-8.231-2.498-10.071-6.362C0.01,6.593-0.001,6.546,0,6.5
		c-0.001-0.046,0.01-0.093,0.031-0.138C1.871,2.498,5.824,0,10.103,0s8.232,2.498,10.072,6.363c0.042,0.086,0.042,0.187,0,0.273
		C18.335,10.502,14.381,13,10.103,13z M0.673,6.5c1.762,3.566,5.446,5.863,9.43,5.863s7.668-2.297,9.431-5.863
		c-1.763-3.566-5.447-5.863-9.431-5.863S2.435,2.934,0.673,6.5z"/>
</g>
<g>
	<path fill="#FF6633" d="M10.104,11.383c-2.692,0-4.883-2.19-4.883-4.883s2.19-4.882,4.883-4.882c2.691,0,4.882,2.19,4.882,4.882
		S12.795,11.383,10.104,11.383z M10.104,2.255c-2.341,0-4.245,1.904-4.245,4.245s1.904,4.245,4.245,4.245s4.244-1.904,4.244-4.245
		S12.444,2.255,10.104,2.255z"/>
</g>
<g>
	<path fill="#FF6633" d="M7.374,5.46c-0.048,0-0.097-0.011-0.143-0.034C7.074,5.348,7.01,5.156,7.089,4.999
		c0.574-1.15,1.729-1.865,3.015-1.865c0.176,0,0.318,0.143,0.318,0.319c0,0.176-0.143,0.318-0.318,0.318
		c-1.042,0-1.979,0.58-2.444,1.513C7.604,5.395,7.49,5.46,7.374,5.46z"/>
</g>
</svg>
