<?xml version="1.0" encoding="utf-8"?>
<!-- Generator: Adobe Illustrator 16.0.0, SVG Export Plug-In . SVG Version: 6.00 Build 0)  -->
<!DOCTYPE svg PUBLIC "-//W3C//DTD SVG 1.1//EN" "http://www.w3.org/Graphics/SVG/1.1/DTD/svg11.dtd">
<svg version="1.1" id="Layer_1" xmlns="http://www.w3.org/2000/svg" xmlns:xlink="http://www.w3.org/1999/xlink" x="0px" y="0px"
	 width="16px" height="15.113px" viewBox="0 0 16 15.113" enable-background="new 0 0 16 15.113" xml:space="preserve">
<g>
	<path fill="#AEB2B7" d="M359.783,391.254h-4.094c-0.131,0-0.236-0.104-0.236-0.238v-4.36h-2.733v4.36
		c0,0.133-0.104,0.238-0.238,0.238h-4.092c-0.132,0-0.236-0.104-0.236-0.238v-6.987h-1.67c-0.097,0-0.185-0.061-0.219-0.148
		c-0.037-0.09-0.017-0.192,0.053-0.26l7.604-7.41c0.091-0.089,0.234-0.09,0.328-0.004l2.16,2.021v-1.688
		c0-0.132,0.105-0.238,0.238-0.238h1.789c0.131,0,0.236,0.106,0.236,0.238v3.811l3.494,3.271c0.072,0.065,0.096,0.17,0.061,0.261
		s-0.123,0.151-0.223,0.151h-1.984v6.987C360.021,391.147,359.914,391.254,359.783,391.254z M355.93,390.778h3.614v-6.989
		c0-0.131,0.105-0.238,0.238-0.238h1.619l-3.129-2.928c-0.047-0.045-0.074-0.108-0.074-0.174v-3.676h-1.314v2.001
		c0,0.095-0.055,0.181-0.143,0.218c-0.088,0.038-0.188,0.021-0.258-0.044l-2.396-2.241l-7.021,6.843h1.32
		c0.133,0,0.237,0.106,0.237,0.238v6.989h3.615v-4.362c0-0.131,0.107-0.238,0.238-0.238h3.209c0.133,0,0.238,0.106,0.238,0.238
		v4.363H355.93L355.93,390.778z"/>
</g>
<g id="Document">
	<path fill="#AEB2B7" d="M14.108,13.565V3.309c0-1.597-1.4-2.896-3.121-2.896H3.114c-0.674,0-1.222,0.508-1.222,1.133v12.019
		c0,0.625,0.548,1.134,1.222,1.134h9.772C13.56,14.699,14.108,14.19,14.108,13.565z M3.114,1.17h7.126v2.675h3.053v9.721
		c0,0.209-0.183,0.379-0.406,0.379H3.114c-0.225,0-0.407-0.17-0.407-0.379V1.547C2.707,1.339,2.889,1.17,3.114,1.17z M13.28,3.088
		h-2.227V1.172C12.214,1.204,13.165,2.033,13.28,3.088z"/>
</g>
</svg>
