<?xml version="1.0" encoding="utf-8"?>
<!-- Generator: Adobe Illustrator 15.1.0, SVG Export Plug-In . SVG Version: 6.00 Build 0)  -->
<!DOCTYPE svg PUBLIC "-//W3C//DTD SVG 1.1//EN" "http://www.w3.org/Graphics/SVG/1.1/DTD/svg11.dtd">
<svg version="1.1" id="Layer_1" xmlns="http://www.w3.org/2000/svg" xmlns:xlink="http://www.w3.org/1999/xlink" x="0px" y="0px"
	 width="15.999px" height="15.113px" viewBox="346.245 376.141 15.999 15.113"
	 enable-background="new 346.245 376.141 15.999 15.113" xml:space="preserve">
<g>
	<path fill="#AEB2B7" d="M359.782,391.254h-4.093c-0.131,0-0.236-0.105-0.236-0.238v-4.361h-2.734v4.361
		c0,0.132-0.105,0.238-0.238,0.238h-4.092c-0.131,0-0.236-0.105-0.236-0.238v-6.988h-1.67c-0.097,0-0.184-0.06-0.219-0.148
		c-0.037-0.09-0.017-0.192,0.053-0.26l7.604-7.41c0.091-0.089,0.235-0.09,0.328-0.004l2.161,2.021v-1.689
		c0-0.132,0.105-0.238,0.238-0.238h1.789c0.131,0,0.237,0.106,0.237,0.238v3.811l3.494,3.27c0.071,0.066,0.095,0.17,0.06,0.261
		s-0.123,0.151-0.222,0.151h-1.985v6.988C360.021,391.147,359.914,391.254,359.782,391.254z M355.93,390.778h3.614v-6.989
		c0-0.131,0.106-0.238,0.238-0.238h1.62l-3.129-2.928c-0.047-0.045-0.074-0.108-0.074-0.174v-3.676h-1.314v2.001
		c0,0.095-0.056,0.181-0.143,0.218c-0.088,0.038-0.188,0.021-0.258-0.044l-2.396-2.241l-7.021,6.843h1.32
		c0.133,0,0.238,0.106,0.238,0.238v6.989h3.615v-4.362c0-0.131,0.107-0.238,0.238-0.238h3.209c0.133,0,0.238,0.106,0.238,0.238
		v4.363H355.93z"/>
</g>
</svg>
