<?xml version="1.0" encoding="utf-8"?>
<!-- Generator: Adobe Illustrator 15.1.0, SVG Export Plug-In . SVG Version: 6.00 Build 0)  -->
<!DOCTYPE svg PUBLIC "-//W3C//DTD SVG 1.1//EN" "http://www.w3.org/Graphics/SVG/1.1/DTD/svg11.dtd">
<svg version="1.1" id="Layer_1" xmlns="http://www.w3.org/2000/svg" xmlns:xlink="http://www.w3.org/1999/xlink" x="0px" y="0px"
	 width="16px" height="15.113px" viewBox="0 0 16 15.113" enable-background="new 0 0 16 15.113" xml:space="preserve">
<g>
	<path fill="#C95632" d="M13.538,15.111H9.444c-0.131,0-0.236-0.104-0.236-0.238v-4.359H6.474v4.359
		c0,0.133-0.104,0.238-0.238,0.238H2.144c-0.132,0-0.236-0.104-0.236-0.238V7.886h-1.67c-0.097,0-0.185-0.061-0.219-0.148
		c-0.037-0.09-0.017-0.192,0.053-0.26l7.604-7.41c0.091-0.089,0.234-0.09,0.328-0.004l2.16,2.021V0.396
		c0-0.132,0.105-0.238,0.238-0.238h1.789c0.131,0,0.236,0.106,0.236,0.238v3.811l3.494,3.271c0.072,0.065,0.096,0.17,0.061,0.261
		S15.86,7.889,15.76,7.889h-1.984v6.988C13.776,15.006,13.668,15.111,13.538,15.111z M9.685,14.636h3.614v-6.99
		c0-0.131,0.105-0.238,0.238-0.238h1.619l-3.129-2.928c-0.047-0.045-0.074-0.108-0.074-0.174V0.631h-1.314v2.001
		c0,0.095-0.055,0.181-0.143,0.218c-0.088,0.038-0.188,0.021-0.258-0.044L7.842,0.565L0.822,7.407h1.32
		c0.133,0,0.237,0.106,0.237,0.238v6.989h3.615v-4.361c0-0.131,0.107-0.238,0.238-0.238h3.209c0.133,0,0.238,0.105,0.238,0.238
		v4.363H9.685L9.685,14.636z"/>
</g>
</svg>
