<?xml version="1.0" encoding="utf-8"?>
<!-- Generator: Adobe Illustrator 22.0.1, SVG Export Plug-In . SVG Version: 6.00 Build 0)  -->
<svg version="1.1" id="Layer_1" xmlns="http://www.w3.org/2000/svg" xmlns:xlink="http://www.w3.org/1999/xlink" x="0px" y="0px"
	 width="15.9px" height="20.8px" viewBox="100.1 8.5 15.9 20.8" style="enable-background:new 100.1 8.5 15.9 20.8;"
	 xml:space="preserve">
<style type="text/css">
	.st0{fill:none;stroke:#7A7A7A;stroke-width:0.75;stroke-linecap:round;stroke-linejoin:round;stroke-miterlimit:10;}
</style>
<polyline class="st0" points="111.4,27.1 111.4,23 115.7,23 "/>
<polygon class="st0" points="115.7,23 115.7,8.9 102.2,8.9 102.2,27.1 111.4,27.1 "/>
<polyline class="st0" points="102.2,10.2 100.5,10.2 100.5,28.9 110.2,28.9 114.4,28.9 114.4,24.3 "/>
<line class="st0" x1="105" y1="19" x2="112.8" y2="19"/>
<line class="st0" x1="105" y1="21" x2="110.4" y2="21"/>
<line class="st0" x1="105" y1="23" x2="107.7" y2="23"/>
<polyline class="st0" points="112.4,19 112.4,12.6 111,12.6 111,17.6 "/>
<polyline class="st0" points="109.6,19 109.6,14 108.2,14 108.2,17.6 "/>
<polyline class="st0" points="106.8,19 106.8,15.3 105.4,15.3 105.4,17.6 "/>
<rect x="105.7" y="8.9" class="st0" width="6.5" height="1.8"/>
</svg>
