<?xml version="1.0" encoding="utf-8"?>
<!-- Generator: Adobe Illustrator 22.0.1, SVG Export Plug-In . SVG Version: 6.00 Build 0)  -->
<svg version="1.1" id="Layer_1" xmlns="http://www.w3.org/2000/svg" xmlns:xlink="http://www.w3.org/1999/xlink" x="0px" y="0px"
	 width="19px" height="20px" viewBox="0 0 19 20" style="enable-background:new 0 0 19 20;" xml:space="preserve">
<style type="text/css">
	.st0{fill:#FFFFFF;}
</style>
<g>
	<path class="st0" d="M3.4,18.5c-1.6,0-2.8-1.2-2.8-2.6c0-1.4,1.3-2.6,2.8-2.6c1.6,0,2.8,1.2,2.8,2.6C6.3,17.3,5,18.5,3.4,18.5z
		 M3.4,13.7c-1.3,0-2.4,1-2.4,2.1C1,17.1,2.1,18,3.4,18c1.3,0,2.4-1,2.4-2.1C5.8,14.7,4.8,13.7,3.4,13.7z"/>
</g>
<g>
	<path class="st0" d="M6.1,16.1c-0.1,0-0.2-0.1-0.2-0.2V2.5c0-0.1,0.1-0.2,0.2-0.2c0.1,0,0.2,0.1,0.2,0.2v13.4
		C6.3,16,6.2,16.1,6.1,16.1z"/>
</g>
<g>
	<path class="st0" d="M11.2,6.6c-0.1,0-0.2-0.1-0.2-0.2c0-2-2.2-2-2.3-2C7.4,4.2,6.5,3.7,6.1,3.1C5.7,2.4,5.9,1.7,5.9,1.7
		c0-0.1,0.2-0.2,0.3-0.1c0.1,0,0.2,0.2,0.1,0.3l0,0c0,0-0.2,0.5,0.1,1c0.3,0.5,1.1,0.9,2.3,1.1c0,0,2.7,0.1,2.7,2.5
		C11.5,6.5,11.4,6.6,11.2,6.6z"/>
</g>
<g>
	<path class="st0" d="M18.2,6.4h-5.3c-0.1,0-0.2-0.1-0.2-0.2s0.1-0.2,0.2-0.2h5.3c0.1,0,0.2,0.1,0.2,0.2S18.3,6.4,18.2,6.4z"/>
</g>
<g>
	<path class="st0" d="M18.2,10.2H7.9c-0.1,0-0.2-0.1-0.2-0.2s0.1-0.2,0.2-0.2h10.3c0.1,0,0.2,0.1,0.2,0.2S18.3,10.2,18.2,10.2z"/>
</g>
<g>
	<path class="st0" d="M4.1,6.4H0.9c-0.1,0-0.2-0.1-0.2-0.2s0.1-0.2,0.2-0.2h3.2c0.1,0,0.2,0.1,0.2,0.2S4.2,6.4,4.1,6.4z"/>
</g>
<g>
	<path class="st0" d="M4.1,10.2H0.9c-0.1,0-0.2-0.1-0.2-0.2s0.1-0.2,0.2-0.2h3.2c0.1,0,0.2,0.1,0.2,0.2S4.2,10.2,4.1,10.2z"/>
</g>
<g>
	<path class="st0" d="M18.2,14H7.9c-0.1,0-0.2-0.1-0.2-0.2s0.1-0.2,0.2-0.2h10.3c0.1,0,0.2,0.1,0.2,0.2S18.3,14,18.2,14z"/>
</g>
</svg>
