<?xml version="1.0" encoding="utf-8"?>
<!-- Generator: Adobe Illustrator 15.1.0, SVG Export Plug-In . SVG Version: 6.00 Build 0)  -->
<!DOCTYPE svg PUBLIC "-//W3C//DTD SVG 1.1//EN" "http://www.w3.org/Graphics/SVG/1.1/DTD/svg11.dtd">
<svg version="1.1" id="Layer_1" xmlns="http://www.w3.org/2000/svg" xmlns:xlink="http://www.w3.org/1999/xlink" x="0px" y="0px"
	 width="67.001px" height="66.999px" viewBox="388.366 246.292 67.001 66.999"
	 enable-background="new 388.366 246.292 67.001 66.999" xml:space="preserve">
<g>
	<path fill="#F26838" d="M420.431,267.402h-8.483v-8.484c0-0.642-0.521-1.163-1.163-1.163c-0.643,0-1.163,0.521-1.163,1.163v8.484
		h-8.482c-0.642,0-1.163,0.521-1.163,1.163s0.521,1.163,1.163,1.163h8.482v8.484c0,0.642,0.521,1.163,1.163,1.163
		s1.163-0.521,1.163-1.163v-8.484h8.483c0.643,0,1.163-0.521,1.163-1.163S421.072,267.402,420.431,267.402z"/>
	<path fill="#F26838" d="M455.026,304.865l-25.138-25.138c4.938-8.521,3.787-19.628-3.498-26.912
		c-4.208-4.208-9.801-6.523-15.749-6.523c-5.949,0-11.543,2.316-15.749,6.523c-4.209,4.207-6.526,9.801-6.526,15.75
		c0,5.95,2.317,11.544,6.526,15.751c4.206,4.207,9.8,6.523,15.749,6.523c3.989,0,7.808-1.064,11.166-3.019l25.133,25.13
		c0.218,0.218,0.514,0.341,0.821,0.341c0.311,0,0.604-0.123,0.822-0.341l6.441-6.441C455.48,306.056,455.48,305.319,455.026,304.865
		z M396.537,282.672c-3.768-3.768-5.846-8.778-5.846-14.106s2.078-10.337,5.846-14.105c3.768-3.767,8.777-5.842,14.104-5.842
		c5.326,0,10.336,2.075,14.104,5.842c7.778,7.778,7.778,20.434,0,28.212c-3.769,3.767-8.777,5.842-14.104,5.842
		C405.314,288.514,400.305,286.439,396.537,282.672z M426.392,284.316c0.817-0.818,1.532-1.696,2.195-2.601l8.124,8.124
		l-4.797,4.798l-8.122-8.121C424.701,285.848,425.579,285.129,426.392,284.316z M447.763,310.484l-14.204-14.203l4.798-4.798
		l14.203,14.204L447.763,310.484z"/>
</g>
</svg>
