<?xml version="1.0" encoding="utf-8"?>
<!-- Generator: Adobe Illustrator 15.1.0, SVG Export Plug-In . SVG Version: 6.00 Build 0)  -->
<!DOCTYPE svg PUBLIC "-//W3C//DTD SVG 1.1//EN" "http://www.w3.org/Graphics/SVG/1.1/DTD/svg11.dtd">
<svg version="1.1" id="Layer_1" xmlns="http://www.w3.org/2000/svg" xmlns:xlink="http://www.w3.org/1999/xlink" x="0px" y="0px"
	 width="57px" height="63.334px" viewBox="323.496 287.195 57 63.334" enable-background="new 323.496 287.195 57 63.334"
	 xml:space="preserve">
<g>
	<path fill="#F26739" d="M328.889,309.868c-0.638,0-1.156,0.516-1.156,1.15v38.359c0,0.635,0.52,1.151,1.156,1.151
		c0.639,0,1.155-0.517,1.155-1.151v-38.359C330.044,310.383,329.525,309.868,328.889,309.868z"/>
	<path fill="#F26739" d="M344.293,332.708c-0.639,0-1.156,0.515-1.156,1.151v15.519c0,0.636,0.518,1.151,1.156,1.151
		s1.154-0.517,1.154-1.151v-15.519C345.447,333.224,344.932,332.708,344.293,332.708z"/>
	<path fill="#F26739" d="M359.695,319.074c-0.637,0-1.154,0.516-1.154,1.15v29.153c0,0.635,0.518,1.151,1.154,1.151
		c0.641,0,1.156-0.517,1.156-1.151v-29.153C360.852,319.59,360.335,319.074,359.695,319.074z"/>
	<path fill="#F26739" d="M333.125,305.79h-3.082v-17.444c0-0.635-0.518-1.151-1.154-1.151c-0.639,0-1.156,0.516-1.156,1.151v17.444
		h-3.08c-0.639,0-1.156,0.515-1.156,1.151c0,0.635,0.518,1.149,1.156,1.149h8.473c0.639,0,1.156-0.515,1.156-1.149
		C334.281,306.305,333.764,305.79,333.125,305.79z"/>
	<path fill="#F26739" d="M348.529,328.587h-3.082v-40.241c0-0.635-0.518-1.151-1.155-1.151s-1.156,0.516-1.156,1.151v40.241h-3.081
		c-0.638,0-1.154,0.515-1.154,1.151c0,0.635,0.518,1.149,1.154,1.149h8.475c0.638,0,1.156-0.516,1.156-1.149
		C349.686,329.102,349.167,328.587,348.529,328.587z"/>
	<path fill="#F26739" d="M375.104,339.986c-0.638,0-1.155,0.516-1.155,1.15v8.241c0,0.635,0.519,1.151,1.155,1.151
		c0.64,0,1.155-0.517,1.155-1.151v-8.241C376.259,340.501,375.741,339.986,375.104,339.986z"/>
	<path fill="#F26739" d="M379.34,335.583h-3.081v-47.238c0-0.635-0.518-1.151-1.155-1.151c-0.639,0-1.155,0.516-1.155,1.151v47.238
		h-3.081c-0.639,0-1.156,0.515-1.156,1.151c0,0.635,0.52,1.149,1.156,1.149h8.473c0.639,0,1.156-0.516,1.156-1.149
		C380.496,336.099,379.979,335.583,379.34,335.583z"/>
	<path fill="#F26739" d="M363.934,314.612h-3.082v-26.267c0-0.635-0.517-1.151-1.156-1.151c-0.637,0-1.154,0.516-1.154,1.151v26.267
		h-3.081c-0.638,0-1.155,0.516-1.155,1.15c0,0.636,0.519,1.151,1.155,1.151h8.474c0.639,0,1.155-0.516,1.155-1.151
		C365.088,315.128,364.57,314.612,363.934,314.612z"/>
</g>
</svg>
