<?xml version="1.0" encoding="utf-8"?>
<!-- Generator: Adobe Illustrator 15.1.0, SVG Export Plug-In . SVG Version: 6.00 Build 0)  -->
<!DOCTYPE svg PUBLIC "-//W3C//DTD SVG 1.1//EN" "http://www.w3.org/Graphics/SVG/1.1/DTD/svg11.dtd">
<svg version="1.1" id="Layer_1" xmlns="http://www.w3.org/2000/svg" xmlns:xlink="http://www.w3.org/1999/xlink" x="0px" y="0px"
	 width="63px" height="63.001px" viewBox="0 -0.167 63 63.001" enable-background="new 0 -0.167 63 63.001" xml:space="preserve">
<g>
	<path fill="#FFFFFF" d="M20.307,33.585c0-0.33-0.033-0.656-0.084-0.977c0.054-0.121,0.084-0.256,0.084-0.396V3.298l6.236,5.834
		c0.425,0.398,1.102,0.387,1.515-0.017c0.412-0.406,0.404-1.059-0.019-1.453l-8.058-7.536c-0.309-0.289-0.768-0.373-1.164-0.212
		c-0.396,0.16-0.653,0.533-0.653,0.946v27.812c-1.858-1.888-4.756-3.108-8.013-3.108C4.553,25.564,0,29.162,0,33.585
		c0,4.422,4.554,8.021,10.151,8.021C15.754,41.606,20.307,38.009,20.307,33.585z M10.153,39.552c-4.417,0-8.011-2.676-8.011-5.967
		c0-3.29,3.594-5.966,8.011-5.966s8.013,2.676,8.013,5.966C18.164,36.876,14.57,39.552,10.153,39.552z"/>
	<path fill="#FFFFFF" d="M62.998,22.092c0-0.565-0.479-1.025-1.07-1.025H33.358c-0.591,0-1.068,0.459-1.068,1.025v27.813
		c-1.859-1.891-4.754-3.111-8.013-3.111c-5.6,0-10.153,3.6-10.153,8.021s4.556,8.021,10.153,8.021
		c5.601,0,10.153-3.598,10.153-8.021c0-0.33-0.034-0.656-0.082-0.979c0.052-0.121,0.082-0.254,0.082-0.393V23.12h26.426v26.784
		c-1.855-1.891-4.753-3.109-8.011-3.109c-5.599,0-10.153,3.598-10.153,8.021c0,4.422,4.556,8.02,10.153,8.02
		c5.603,0,10.154-3.598,10.154-8.02c0-0.332-0.034-0.656-0.083-0.979C62.969,53.714,63,53.581,63,53.442V22.09L62.998,22.092
		L62.998,22.092z M24.276,60.78c-4.417,0-8.012-2.678-8.012-5.965c0-3.291,3.594-5.969,8.012-5.969c4.417,0,8.013,2.676,8.013,5.969
		C32.287,58.103,28.693,60.78,24.276,60.78z M52.845,60.78c-4.415,0-8.011-2.678-8.011-5.965c0-3.291,3.595-5.969,8.011-5.969
		c4.418,0,8.011,2.676,8.011,5.969C60.855,58.103,57.263,60.78,52.845,60.78z"/>
</g>
</svg>
