<?xml version="1.0" encoding="utf-8"?>
<!-- Generator: Adobe Illustrator 15.1.0, SVG Export Plug-In . SVG Version: 6.00 Build 0)  -->
<!DOCTYPE svg PUBLIC "-//W3C//DTD SVG 1.1//EN" "http://www.w3.org/Graphics/SVG/1.1/DTD/svg11.dtd">
<svg version="1.1" id="Layer_1" xmlns="http://www.w3.org/2000/svg" xmlns:xlink="http://www.w3.org/1999/xlink" x="0px" y="0px"
	 width="64px" height="64px" viewBox="371.754 286.861 64 64" enable-background="new 371.754 286.861 64 64" xml:space="preserve">
<g>
	<path fill="#F26739" d="M403.754,350.861c-17.645,0-32-14.354-32-32c0-17.646,14.355-32,32-32c17.646,0,32,14.354,32,32
		C435.754,336.507,421.398,350.861,403.754,350.861z M403.754,289.188c-16.361,0-29.674,13.312-29.674,29.674
		c0,16.361,13.312,29.674,29.674,29.674c16.362,0,29.674-13.312,29.674-29.674C433.428,302.5,420.115,289.188,403.754,289.188z"/>
</g>
<g>
	<path fill="#F26739" d="M403.754,325.381c-3.595,0-6.521-2.925-6.521-6.52c0-3.596,2.926-6.521,6.521-6.521
		s6.521,2.925,6.521,6.521C410.274,322.456,407.349,325.381,403.754,325.381z M403.754,314.667c-2.312,0-4.194,1.881-4.194,4.194
		c0,2.312,1.884,4.193,4.194,4.193c2.312,0,4.194-1.882,4.194-4.193C407.948,316.549,406.066,314.667,403.754,314.667z"/>
</g>
<g>
	<path fill="#F26739" d="M425.148,310.987c-0.452,0-0.884-0.268-1.07-0.711c-3.461-8.184-11.439-13.471-20.324-13.471
		c-0.643,0-1.162-0.521-1.162-1.164c0-0.641,0.521-1.163,1.162-1.163c9.821,0,18.639,5.846,22.466,14.892
		c0.251,0.591-0.025,1.272-0.617,1.523C425.455,310.956,425.301,310.987,425.148,310.987z"/>
</g>
</svg>
