<?xml version="1.0" encoding="utf-8"?>
<!-- Generator: Adobe Illustrator 15.1.0, SVG Export Plug-In . SVG Version: 6.00 Build 0)  -->
<!DOCTYPE svg PUBLIC "-//W3C//DTD SVG 1.1//EN" "http://www.w3.org/Graphics/SVG/1.1/DTD/svg11.dtd">
<svg version="1.1" id="Layer_1" xmlns="http://www.w3.org/2000/svg" xmlns:xlink="http://www.w3.org/1999/xlink" x="0px" y="0px"
	 width="54.999px" height="62.86px" viewBox="484.57 289.996 54.999 62.86" enable-background="new 484.57 289.996 54.999 62.86"
	 xml:space="preserve">
<g>
	<path fill="#FFFFFF" d="M535.062,294.473c-2.918-2.887-6.797-4.477-10.923-4.477c-3.767,0-7.316,1.339-10.131,3.77
		c-0.428-0.318-1.027-0.301-1.419,0.084c-0.39,0.385-0.406,0.981-0.082,1.405c-3.228,3.666-4.406,8.495-3.507,13.006
		c-0.012,0.014-0.03,0.02-0.042,0.033l-22.781,26.633c-0.366,0.431-0.344,1.066,0.062,1.464l2.462,2.439l-2.609,2.583
		c-1.134,1.123-1.665,2.698-1.489,4.433c0.162,1.655,0.955,3.264,2.231,4.525l0.489,0.481c1.348,1.337,3.12,2.004,4.893,2.004
		c1.771,0,3.544-0.669,4.896-2.004l12.877-12.743c1.847-1.827,4.776-1.899,6.536-0.16c1.755,1.739,1.685,4.641-0.161,6.468
		l-5.35,5.292c-0.426,0.422-0.426,1.107,0,1.529c0.428,0.421,1.12,0.422,1.548,0l5.348-5.292c2.696-2.67,2.77-6.944,0.16-9.527
		s-6.929-2.513-9.626,0.16l-12.879,12.745c-1.848,1.826-4.852,1.827-6.696-0.001l-0.488-0.483c-1.816-1.796-2.152-4.497-0.739-5.896
		l2.61-2.583l2.462,2.438c0.213,0.21,0.493,0.316,0.772,0.316c0.251,0,0.503-0.084,0.705-0.256l26.905-22.552
		c0.012-0.009,0.017-0.021,0.024-0.029c0.984,0.191,1.995,0.292,3.02,0.292c3.764,0,7.311-1.334,10.117-3.756
		c0.211,0.193,0.476,0.296,0.74,0.296c0.28,0,0.56-0.105,0.771-0.316c0.417-0.414,0.42-1.075,0.02-1.5
		C541.057,309.292,540.823,300.176,535.062,294.473z M493.543,340.562l-5.048-4.997l15.522-18.148c0.883,1.637,2,3.137,3.348,4.469
		c1.34,1.328,2.862,2.43,4.521,3.305L493.543,340.562z M513.625,323.733c-0.082-0.084-0.176-0.165-0.289-0.222
		c-1.635-0.804-3.123-1.865-4.426-3.155c-1.404-1.39-2.518-2.99-3.346-4.748l4.164-4.868c0.752,1.95,1.906,3.779,3.491,5.348
		c1.561,1.543,3.397,2.703,5.396,3.461L513.625,323.733z M514.766,314.56c-4.907-4.857-5.146-12.604-0.731-17.754l13.201,13.068
		c0.213,0.211,0.492,0.316,0.771,0.316c0.28,0,0.562-0.105,0.772-0.316c0.427-0.423,0.427-1.107,0-1.529l-13.205-13.068
		c2.394-2.012,5.39-3.116,8.562-3.116c3.543,0,6.872,1.366,9.378,3.844c4.908,4.858,5.146,12.605,0.732,17.755l-2.729-2.702
		c-0.427-0.423-1.12-0.423-1.547,0c-0.427,0.424-0.427,1.107,0,1.529l2.733,2.704c-2.394,2.012-5.392,3.116-8.566,3.116
		C520.599,318.404,517.27,317.038,514.766,314.56z"/>
	<path fill="#FFFFFF" d="M527.689,296.238c-0.284,0.281-0.284,0.738,0,1.02c0.282,0.281,0.745,0.281,1.029,0
		c0.286-0.281,0.285-0.738,0-1.02C528.438,295.955,527.975,295.956,527.689,296.238z"/>
	<path fill="#FFFFFF" d="M521.955,295.936c-0.284,0.282-0.284,0.738,0,1.021c0.283,0.281,0.744,0.281,1.03,0
		c0.284-0.283,0.284-0.738,0-1.021C522.7,295.654,522.239,295.654,521.955,295.936z"/>
</g>
</svg>
