<?xml version="1.0" encoding="utf-8"?>
<!-- Generator: Adobe Illustrator 15.1.0, SVG Export Plug-In . SVG Version: 6.00 Build 0)  -->
<!DOCTYPE svg PUBLIC "-//W3C//DTD SVG 1.1//EN" "http://www.w3.org/Graphics/SVG/1.1/DTD/svg11.dtd">
<svg version="1.1" id="Layer_1" xmlns="http://www.w3.org/2000/svg" xmlns:xlink="http://www.w3.org/1999/xlink" x="0px" y="0px"
	 width="57px" height="63.334px" viewBox="0 0 57 63.334" enable-background="new 0 0 57 63.334" xml:space="preserve">
<g>
	<path fill="#FFFFFF" d="M5.392,22.674c-0.638,0-1.156,0.516-1.156,1.149v38.359c0,0.635,0.521,1.151,1.156,1.151
		c0.639,0,1.155-0.518,1.155-1.151V23.823C6.547,23.188,6.028,22.674,5.392,22.674z"/>
	<path fill="#FFFFFF" d="M20.796,45.514c-0.639,0-1.156,0.515-1.156,1.151v15.519c0,0.636,0.518,1.151,1.156,1.151
		s1.154-0.518,1.154-1.151V46.665C21.95,46.029,21.435,45.514,20.796,45.514z"/>
	<path fill="#FFFFFF" d="M36.198,31.88c-0.637,0-1.154,0.516-1.154,1.149v29.153c0,0.635,0.518,1.151,1.154,1.151
		c0.641,0,1.156-0.518,1.156-1.151V33.029C37.354,32.396,36.838,31.88,36.198,31.88z"/>
	<path fill="#FFFFFF" d="M9.628,18.596H6.546V1.152C6.546,0.517,6.028,0,5.392,0C4.753,0,4.235,0.517,4.235,1.152v17.443h-3.08
		C0.517,18.596,0,19.111,0,19.747c0,0.635,0.519,1.148,1.155,1.148h8.474c0.64,0,1.156-0.515,1.156-1.148
		C10.784,19.111,10.267,18.596,9.628,18.596z"/>
	<path fill="#FFFFFF" d="M25.032,41.393H21.95V1.152C21.95,0.517,21.433,0,20.795,0s-1.156,0.517-1.156,1.152v40.24h-3.081
		c-0.638,0-1.154,0.515-1.154,1.151c0,0.635,0.519,1.148,1.154,1.148h8.475c0.639,0,1.156-0.516,1.156-1.148
		C26.188,41.907,25.67,41.393,25.032,41.393z"/>
	<path fill="#FFFFFF" d="M51.606,52.792c-0.638,0-1.154,0.516-1.154,1.149v8.241c0,0.635,0.519,1.151,1.154,1.151
		c0.641,0,1.155-0.518,1.155-1.151v-8.241C52.762,53.307,52.244,52.792,51.606,52.792z"/>
	<path fill="#FFFFFF" d="M55.843,48.389h-3.081V1.15c0-0.635-0.518-1.15-1.155-1.15c-0.639,0-1.154,0.516-1.154,1.15v47.238h-3.081
		c-0.64,0-1.156,0.515-1.156,1.151c0,0.635,0.521,1.148,1.156,1.148h8.473c0.64,0,1.156-0.516,1.156-1.148
		C56.999,48.904,56.481,48.389,55.843,48.389z"/>
	<path fill="#FFFFFF" d="M40.437,27.418h-3.082V1.15c0-0.635-0.517-1.15-1.156-1.15c-0.637,0-1.153,0.516-1.153,1.15v26.268h-3.081
		c-0.638,0-1.154,0.516-1.154,1.149c0,0.637,0.519,1.151,1.154,1.151h8.475c0.639,0,1.154-0.516,1.154-1.151
		C41.591,27.934,41.073,27.418,40.437,27.418z"/>
</g>
</svg>
