<?xml version="1.0" encoding="utf-8"?>
<!-- Generator: Adobe Illustrator 15.1.0, SVG Export Plug-In . SVG Version: 6.00 Build 0)  -->
<!DOCTYPE svg PUBLIC "-//W3C//DTD SVG 1.1//EN" "http://www.w3.org/Graphics/SVG/1.1/DTD/svg11.dtd">
<svg version="1.1" id="Layer_1" xmlns="http://www.w3.org/2000/svg" xmlns:xlink="http://www.w3.org/1999/xlink" x="0px" y="0px"
	 width="63px" height="63.002px" viewBox="387.199 347.5 63 63.002" enable-background="new 387.199 347.5 63 63.002"
	 xml:space="preserve">
<g>
	<path fill="#F26739" d="M407.506,381.251c0-0.331-0.033-0.656-0.084-0.977c0.054-0.122,0.084-0.256,0.084-0.396v-28.914
		l6.236,5.834c0.425,0.398,1.102,0.387,1.515-0.017c0.412-0.406,0.404-1.058-0.019-1.453l-8.057-7.536
		c-0.309-0.289-0.768-0.373-1.164-0.212c-0.396,0.16-0.654,0.533-0.654,0.946v27.812c-1.858-1.888-4.756-3.109-8.012-3.109
		c-5.599,0-10.152,3.598-10.152,8.021s4.554,8.021,10.152,8.021C402.953,389.271,407.506,385.674,407.506,381.251z M397.353,387.217
		c-4.417,0-8.011-2.676-8.011-5.966s3.594-5.967,8.011-5.967s8.012,2.676,8.012,5.967
		C405.363,384.541,401.77,387.217,397.353,387.217z"/>
	<path fill="#F26739" d="M450.197,369.758c0-0.566-0.479-1.026-1.07-1.026h-28.569c-0.591,0-1.069,0.459-1.069,1.026v27.812
		c-1.859-1.89-4.754-3.11-8.012-3.11c-5.6,0-10.154,3.599-10.154,8.021s4.556,8.021,10.154,8.021c5.6,0,10.153-3.598,10.153-8.021
		c0-0.331-0.034-0.656-0.082-0.978c0.052-0.122,0.082-0.255,0.082-0.394v-30.324h26.426v26.784c-1.856-1.89-4.753-3.11-8.011-3.11
		c-5.599,0-10.153,3.599-10.153,8.021s4.555,8.021,10.153,8.021c5.602,0,10.154-3.598,10.154-8.021c0-0.331-0.034-0.656-0.083-0.978
		c0.052-0.122,0.083-0.255,0.083-0.394v-31.352L450.197,369.758L450.197,369.758z M411.476,408.445
		c-4.417,0-8.012-2.676-8.012-5.965c0-3.291,3.594-5.968,8.012-5.968c4.417,0,8.012,2.675,8.012,5.968
		C419.486,405.769,415.893,408.445,411.476,408.445z M440.044,408.445c-4.415,0-8.011-2.676-8.011-5.965
		c0-3.291,3.595-5.968,8.011-5.968c4.418,0,8.011,2.675,8.011,5.968C448.055,405.769,444.462,408.445,440.044,408.445z"/>
</g>
</svg>
