<?xml version="1.0" encoding="utf-8"?>
<!-- Generator: Adobe Illustrator 15.1.0, SVG Export Plug-In . SVG Version: 6.00 Build 0)  -->
<!DOCTYPE svg PUBLIC "-//W3C//DTD SVG 1.1//EN" "http://www.w3.org/Graphics/SVG/1.1/DTD/svg11.dtd">
<svg version="1.1" id="Layer_1" xmlns="http://www.w3.org/2000/svg" xmlns:xlink="http://www.w3.org/1999/xlink" x="0px" y="0px"
	 width="67px" height="67px" viewBox="0 0 67 67" enable-background="new 0 0 67 67" xml:space="preserve">
<g>
	<path fill="#FFFFFF" d="M32.064,21.11h-8.482v-8.484c0-0.642-0.521-1.162-1.162-1.162c-0.645,0-1.164,0.521-1.164,1.162v8.484
		h-8.482c-0.641,0-1.162,0.521-1.162,1.163s0.521,1.163,1.162,1.163h8.482v8.484c0,0.642,0.521,1.162,1.164,1.162
		c0.641,0,1.162-0.521,1.162-1.162v-8.484h8.482c0.645,0,1.164-0.521,1.164-1.163S32.707,21.11,32.064,21.11z"/>
	<path fill="#FFFFFF" d="M66.66,58.573L41.521,33.435c4.939-8.521,3.787-19.628-3.498-26.912C33.816,2.315,28.222,0,22.275,0
		C16.326,0,10.732,2.316,6.526,6.523C2.317,10.73,0,16.325,0,22.273c0,5.95,2.317,11.544,6.526,15.751
		c4.206,4.207,9.8,6.523,15.749,6.523c3.988,0,7.809-1.064,11.166-3.02l25.133,25.131c0.219,0.217,0.514,0.34,0.82,0.34
		c0.312,0,0.605-0.123,0.822-0.34l6.441-6.441C67.115,59.764,67.115,59.027,66.66,58.573z M8.171,36.379
		c-3.769-3.768-5.847-8.777-5.847-14.105S4.403,11.937,8.171,8.168c3.768-3.767,8.777-5.842,14.104-5.842s10.336,2.075,14.104,5.842
		c7.779,7.779,7.779,20.435,0,28.213c-3.77,3.767-8.777,5.842-14.104,5.842C16.949,42.222,11.939,40.147,8.171,36.379z
		 M38.025,38.024c0.818-0.818,1.533-1.695,2.195-2.602l8.125,8.125l-4.797,4.798l-8.123-8.121
		C36.335,39.556,37.212,38.836,38.025,38.024z M59.396,64.192L45.193,49.989l4.799-4.798l14.201,14.204L59.396,64.192z"/>
</g>
</svg>
