<?xml version="1.0" encoding="utf-8"?>
<!-- Generator: Adobe Illustrator 15.1.0, SVG Export Plug-In . SVG Version: 6.00 Build 0)  -->
<!DOCTYPE svg PUBLIC "-//W3C//DTD SVG 1.1//EN" "http://www.w3.org/Graphics/SVG/1.1/DTD/svg11.dtd">
<svg version="1.1" id="Layer_1" xmlns="http://www.w3.org/2000/svg" xmlns:xlink="http://www.w3.org/1999/xlink" x="0px" y="0px"
	 width="68.432px" height="64.764px" viewBox="0 0 68.432 64.764" enable-background="new 0 0 68.432 64.764" xml:space="preserve">
<g>
	<g>
		<path fill="#FFFFFF" d="M16.969,48.085c-4.297,0-7.793-2.896-7.793-6.456s3.496-6.455,7.793-6.455
			c4.298,0,7.795,2.896,7.795,6.455S21.267,48.085,16.969,48.085z M16.969,37.175c-3.194,0-5.793,1.999-5.793,4.455
			c0,2.457,2.599,4.456,5.793,4.456c3.195,0,5.795-1.999,5.795-4.456C22.764,39.173,20.164,37.175,16.969,37.175z"/>
	</g>
	<g>
		<path fill="#FFFFFF" d="M38.339,43.428c-4.298,0-7.794-2.897-7.794-6.458c0-3.559,3.496-6.454,7.794-6.454
			s7.794,2.895,7.794,6.454C46.133,40.531,42.637,43.428,38.339,43.428z M38.339,32.517c-3.194,0-5.794,1.998-5.794,4.454
			c0,2.458,2.6,4.458,5.794,4.458s5.794-2,5.794-4.458C44.133,34.515,41.533,32.517,38.339,32.517z"/>
	</g>
	<g>
		<path fill="#FFFFFF" d="M23.764,41.56c-0.552,0-1-0.448-1-1V16.102c0-0.47,0.328-0.877,0.787-0.977l21.369-4.658
			c0.293-0.066,0.604,0.008,0.84,0.198c0.236,0.19,0.373,0.476,0.373,0.779v24.458c0,0.552-0.447,1-1,1s-1-0.448-1-1V12.686
			l-19.369,4.222V40.56C24.764,41.112,24.316,41.56,23.764,41.56z"/>
	</g>
</g>
<g>
	<path fill="#FFFFFF" d="M23.763,23.683c-0.345,0-0.656-0.239-0.732-0.59c-0.088-0.405,0.168-0.804,0.573-0.893l21.369-4.66
		c0.406-0.089,0.805,0.168,0.893,0.573c0.089,0.405-0.168,0.804-0.572,0.893l-21.37,4.66C23.87,23.678,23.816,23.683,23.763,23.683z
		"/>
</g>
<g>
	<g>
		<path fill="#FFFFFF" d="M48.254,59.308c-0.256,0-0.512-0.098-0.707-0.293c-0.391-0.391-0.391-1.024,0-1.414l18.612-18.609
			c0.361-0.363,0.36-0.978-0.003-1.342l-3.332-3.332c-0.178-0.177-0.415-0.275-0.67-0.275l0,0c-0.255,0-0.493,0.098-0.671,0.275
			l-18.609,18.61c-0.391,0.391-1.023,0.391-1.414,0s-0.391-1.023,0-1.414l18.609-18.61c0.556-0.555,1.296-0.861,2.085-0.861l0,0
			c0.79,0,1.53,0.306,2.085,0.861l3.331,3.332c1.147,1.148,1.149,3.018,0.005,4.168L48.961,59.015
			C48.766,59.21,48.51,59.308,48.254,59.308z"/>
	</g>
	<g>
		<path fill="#FFFFFF" d="M64.087,43.472c-0.256,0-0.512-0.098-0.707-0.293l-6.084-6.087c-0.391-0.391-0.391-1.024,0-1.414
			c0.391-0.391,1.023-0.391,1.414,0l6.084,6.087c0.391,0.391,0.391,1.024,0,1.414C64.599,43.374,64.343,43.472,64.087,43.472z"/>
	</g>
	<g>
		<path fill="#FFFFFF" d="M47.865,59.493c-0.256,0-0.512-0.098-0.707-0.293l-5.881-5.884c-0.391-0.391-0.391-1.024,0-1.415
			c0.391-0.39,1.023-0.39,1.414,0l5.881,5.884c0.391,0.391,0.391,1.024,0,1.415C48.377,59.396,48.121,59.493,47.865,59.493z"/>
	</g>
	<g>
		<path fill="#FFFFFF" d="M36.711,64.764c-0.26,0-0.516-0.101-0.707-0.293c-0.299-0.298-0.378-0.752-0.197-1.134l5.456-11.543
			c0.236-0.499,0.829-0.713,1.332-0.477c0.499,0.236,0.712,0.833,0.477,1.332l-4.263,9.018l9.018-4.263
			c0.503-0.236,1.097-0.022,1.332,0.477s0.022,1.095-0.477,1.332l-11.543,5.456C37.002,64.732,36.855,64.764,36.711,64.764z"/>
	</g>
</g>
<g>
	<g>
		<path fill="#FFFFFF" d="M3.964,55.163c-0.994,0-1.802-0.808-1.802-1.802V3.964c0-0.994,0.808-1.802,1.802-1.802h53.152
			c0.994,0,1.802,0.808,1.802,1.802v24.919l2.162-2.162V3.964C61.08,1.778,59.303,0,57.116,0H3.964C1.777,0,0,1.778,0,3.964v49.397
			c0,2.185,1.777,3.964,3.964,3.964h29.062l1.021-2.162H3.964z"/>
	</g>
</g>
</svg>
