<svg id="Layer_1" data-name="Layer 1" xmlns="http://www.w3.org/2000/svg" width="53.3" height="48.25" viewBox="0 0 53.3 48.25"><title>hit-songs-deconstructed-logic-projects-icon</title><path d="M52.68,31.66v3.2a2.78,2.78,0,0,1-2.77,2.78H3.4A2.79,2.79,0,0,1,.62,34.86V3.4A2.79,2.79,0,0,1,3.4.62H49.91A2.78,2.78,0,0,1,52.68,3.4V27.1" fill="none" stroke="#f63" stroke-linecap="round" stroke-linejoin="round" stroke-width="1.25"/><line x1="15.38" y1="47.63" x2="37.73" y2="47.63" fill="none" stroke="#f63" stroke-linecap="round" stroke-linejoin="round" stroke-width="1.25"/><line x1="26.56" y1="37.64" x2="26.56" y2="47.63" fill="none" stroke="#f63" stroke-linecap="round" stroke-linejoin="round" stroke-width="1.25"/><path d="M26.05,18.53a.85.85,0,1,1,0,1.2A.85.85,0,0,1,26.05,18.53Z" fill="#f63"/><circle cx="26.65" cy="19.13" r="12.03" fill="none" stroke="#f63" stroke-linecap="round" stroke-linejoin="round" stroke-width="1.25"/><path d="M26.65,29a9.88,9.88,0,0,1-9.87-9.88" fill="none" stroke="#f63" stroke-linecap="round" stroke-linejoin="round" stroke-width="1.25"/><path d="M26.65,26.87a7.75,7.75,0,0,1-7.74-7.74" fill="none" stroke="#f63" stroke-linecap="round" stroke-linejoin="round" stroke-width="1.25"/><path d="M26.65,24.66a5.53,5.53,0,0,1-5.53-5.53" fill="none" stroke="#f63" stroke-linecap="round" stroke-linejoin="round" stroke-width="1.25"/><path d="M26.65,9.25a9.88,9.88,0,0,1,9.88,9.88" fill="none" stroke="#f63" stroke-linecap="round" stroke-linejoin="round" stroke-width="1.25"/><path d="M26.65,11.39a7.75,7.75,0,0,1,7.74,7.74" fill="none" stroke="#f63" stroke-linecap="round" stroke-linejoin="round" stroke-width="1.25"/><path d="M26.65,13.6a5.53,5.53,0,0,1,5.53,5.53" fill="none" stroke="#f63" stroke-linecap="round" stroke-linejoin="round" stroke-width="1.25"/><circle cx="26.65" cy="19.13" r="3.3" fill="none" stroke="#f63" stroke-linecap="round" stroke-linejoin="round" stroke-width="1.25"/></svg>