<svg id="Layer_1" data-name="Layer 1" xmlns="http://www.w3.org/2000/svg" width="50.63" height="48.37" viewBox="0 0 50.63 48.37"><title>hit-songs-deconstructed-date-range-icon-hover</title><path d="M40.19,4.4h6.74a3,3,0,0,1,3,3V44.69a3,3,0,0,1-3,3H3.77" transform="translate(0 0)" fill="none" stroke="#fff" stroke-linecap="round" stroke-linejoin="round" stroke-width="1.25"/><line x1="16.31" y1="4.4" x2="37.39" y2="4.4" fill="none" stroke="#fff" stroke-linecap="round" stroke-linejoin="round" stroke-width="1.25"/><path d="M3.72,42.42v-35a3,3,0,0,1,3-3h6.75" transform="translate(0 0)" fill="none" stroke="#fff" stroke-linecap="round" stroke-linejoin="round" stroke-width="1.25"/><line x1="3.73" y1="12.74" x2="43.23" y2="12.74" fill="none" stroke="#fff" stroke-linecap="round" stroke-linejoin="round" stroke-width="1.25"/><line x1="46.25" y1="12.74" x2="46.64" y2="12.74" fill="none" stroke="#fff" stroke-linecap="round" stroke-linejoin="round" stroke-width="1.25"/><line x1="31.79" y1="42.43" x2="32.16" y2="42.43" fill="none" stroke="#fff" stroke-linecap="round" stroke-linejoin="round" stroke-width="1.25"/><path d="M50,36.11v8.63a3,3,0,0,1-3,3h-.1a2.88,2.88,0,0,1-3-2.65V42.42" transform="translate(0 0)" fill="none" stroke="#fff" stroke-linecap="round" stroke-linejoin="round" stroke-width="1.25"/><path d="M3.77,47.73h-.1a2.88,2.88,0,0,1-3-2.62V42.42" transform="translate(0 0)" fill="none" stroke="#fff" stroke-linecap="round" stroke-linejoin="round" stroke-width="1.25"/><line x1="35.23" y1="42.43" x2="43.8" y2="42.43" fill="none" stroke="#fff" stroke-linecap="round" stroke-linejoin="round" stroke-width="1.25"/><line x1="0.63" y1="42.43" x2="28.73" y2="42.43" fill="none" stroke="#fff" stroke-linecap="round" stroke-linejoin="round" stroke-width="1.25"/><path d="M14.91,8.17a1.4,1.4,0,0,1-1.4-1.4V2a1.4,1.4,0,0,1,2.8,0V6.77a1.39,1.39,0,0,1-1.38,1.4Z" transform="translate(0 0)" fill="none" stroke="#fff" stroke-linecap="round" stroke-linejoin="round" stroke-width="1.25"/><path d="M38.79,8.17a1.4,1.4,0,0,1-1.41-1.39h0V2a1.41,1.41,0,0,1,2.81,0V6.77a1.4,1.4,0,0,1-1.4,1.4Z" transform="translate(0 0)" fill="none" stroke="#fff" stroke-linecap="round" stroke-linejoin="round" stroke-width="1.25"/><path d="M13.73,20.35a1.92,1.92,0,1,1-1.92-1.92,1.92,1.92,0,0,1,1.92,1.92Z" transform="translate(0 0)" fill="none" stroke="#fff" stroke-linecap="round" stroke-linejoin="round" stroke-width="1.25"/><circle cx="31.87" cy="20.36" r="1.92" fill="none" stroke="#fff" stroke-linecap="round" stroke-linejoin="round" stroke-width="1.25"/><path d="M43.81,20.35a1.92,1.92,0,1,1-1.92-1.92h0A1.92,1.92,0,0,1,43.81,20.35Z" transform="translate(0 0)" fill="none" stroke="#fff" stroke-linecap="round" stroke-linejoin="round" stroke-width="1.25"/><path d="M13.73,28A1.92,1.92,0,1,1,11.81,26,1.92,1.92,0,0,1,13.73,28Z" transform="translate(0 0)" fill="none" stroke="#fff" stroke-linecap="round" stroke-linejoin="round" stroke-width="1.25"/><path d="M23.75,28A1.92,1.92,0,1,1,21.83,26h0a1.92,1.92,0,0,1,1.91,1.91Z" transform="translate(0 0)" fill="none" stroke="#fff" stroke-linecap="round" stroke-linejoin="round" stroke-width="1.25"/><path d="M33.78,28A1.92,1.92,0,1,1,31.86,26,1.92,1.92,0,0,1,33.78,28Z" transform="translate(0 0)" fill="none" stroke="#fff" stroke-linecap="round" stroke-linejoin="round" stroke-width="1.25"/><path d="M13.73,35.54a1.92,1.92,0,1,1-1.92-1.92h0A1.92,1.92,0,0,1,13.73,35.54Z" transform="translate(0 0)" fill="none" stroke="#fff" stroke-linecap="round" stroke-linejoin="round" stroke-width="1.25"/><circle cx="21.85" cy="35.54" r="1.92" fill="none" stroke="#fff" stroke-linecap="round" stroke-linejoin="round" stroke-width="1.25"/><circle cx="31.87" cy="35.54" r="1.92" fill="none" stroke="#fff" stroke-linecap="round" stroke-linejoin="round" stroke-width="1.25"/><path d="M43.81,35.54a1.92,1.92,0,1,1-1.92-1.92h0A1.92,1.92,0,0,1,43.81,35.54Z" transform="translate(0 0)" fill="none" stroke="#fff" stroke-linecap="round" stroke-linejoin="round" stroke-width="1.25"/><line x1="19.54" y1="18.04" x2="24.14" y2="22.65" fill="none" stroke="#fff" stroke-linecap="round" stroke-linejoin="round" stroke-width="1.25"/><line x1="19.64" y1="22.58" x2="24.08" y2="18.14" fill="none" stroke="#fff" stroke-linecap="round" stroke-linejoin="round" stroke-width="1.25"/><line x1="39.6" y1="25.65" x2="44.19" y2="30.25" fill="none" stroke="#fff" stroke-linecap="round" stroke-linejoin="round" stroke-width="1.25"/><line x1="39.69" y1="30.19" x2="44.14" y2="25.75" fill="none" stroke="#fff" stroke-linecap="round" stroke-linejoin="round" stroke-width="1.25"/><line x1="33.78" y1="20.36" x2="39.98" y2="20.36" fill="none" stroke="#fff" stroke-linecap="round" stroke-linejoin="round" stroke-width="1.25"/><line x1="28.04" y1="20.36" x2="29.95" y2="20.36" fill="none" stroke="#fff" stroke-linecap="round" stroke-linejoin="round" stroke-width="1.25"/><line x1="23.75" y1="27.95" x2="29.95" y2="27.95" fill="none" stroke="#fff" stroke-linecap="round" stroke-linejoin="round" stroke-width="1.25"/><line x1="13.86" y1="27.95" x2="19.41" y2="27.95" fill="none" stroke="#fff" stroke-linecap="round" stroke-linejoin="round" stroke-width="1.25"/><line x1="43.8" y1="20.36" x2="45.71" y2="20.36" fill="none" stroke="#fff" stroke-linecap="round" stroke-linejoin="round" stroke-width="1.25"/><line x1="33.78" y1="27.96" x2="35.69" y2="27.96" fill="none" stroke="#fff" stroke-linecap="round" stroke-linejoin="round" stroke-width="1.25"/><line x1="7.83" y1="27.96" x2="9.75" y2="27.96" fill="none" stroke="#fff" stroke-linecap="round" stroke-linejoin="round" stroke-width="1.25"/></svg>