<svg id="Layer_1" data-name="Layer 1" xmlns="http://www.w3.org/2000/svg" width="48.13" height="48.25" viewBox="0 0 48.13 48.25"><title>hit-songs-deconstructed-combo-search-icon-hover</title><polygon points="10.54 17.67 6.67 21.55 21.55 21.55 21.55 6.67 17.67 10.54 7.75 0.63 0.63 7.75 10.54 17.67" fill="none" stroke="#fff" stroke-linecap="round" stroke-linejoin="round" stroke-width="1.25"/><polygon points="30.46 10.54 26.58 6.67 26.58 21.55 41.46 21.55 37.59 17.67 47.5 7.75 40.37 0.63 30.46 10.54" fill="none" stroke="#fff" stroke-linecap="round" stroke-linejoin="round" stroke-width="1.25"/><polygon points="37.59 30.58 41.46 26.7 26.58 26.7 26.58 41.58 30.46 37.71 40.37 47.63 47.5 40.49 37.59 30.58" fill="none" stroke="#fff" stroke-linecap="round" stroke-linejoin="round" stroke-width="1.25"/><polygon points="17.67 37.71 21.55 41.58 21.55 26.7 6.67 26.7 10.54 30.58 0.63 40.49 7.75 47.63 17.67 37.71" fill="none" stroke="#fff" stroke-linecap="round" stroke-linejoin="round" stroke-width="1.25"/></svg>