<svg id="Layer_1" data-name="Layer 1" xmlns="http://www.w3.org/2000/svg" width="50.6" height="48.36" viewBox="0 0 50.6 48.36"><title>Vector Smart Object11</title><path d="M40.19,4.29h6.74a3.05,3.05,0,0,1,3,3V44.58a3.05,3.05,0,0,1-3,3H3.77" transform="translate(0 0.11)" fill="none" stroke="#f63" stroke-linecap="round" stroke-linejoin="round" stroke-width="1.25"/><line x1="16.31" y1="4.4" x2="37.38" y2="4.4" fill="none" stroke="#f63" stroke-linecap="round" stroke-linejoin="round" stroke-width="1.25"/><path d="M3.72,42.31v-35a3.05,3.05,0,0,1,3-3h6.75" transform="translate(0 0.11)" fill="none" stroke="#f63" stroke-linecap="round" stroke-linejoin="round" stroke-width="1.25"/><line x1="3.72" y1="12.74" x2="43.23" y2="12.74" fill="none" stroke="#f63" stroke-linecap="round" stroke-linejoin="round" stroke-width="1.25"/><line x1="46.24" y1="12.74" x2="46.63" y2="12.74" fill="none" stroke="#f63" stroke-linecap="round" stroke-linejoin="round" stroke-width="1.25"/><line x1="31.78" y1="42.43" x2="32.16" y2="42.43" fill="none" stroke="#f63" stroke-linecap="round" stroke-linejoin="round" stroke-width="1.25"/><path d="M50,36v8.63a3.05,3.05,0,0,1-3,3h-.1a2.87,2.87,0,0,1-3-2.65V42.31" transform="translate(0 0.11)" fill="none" stroke="#f63" stroke-linecap="round" stroke-linejoin="round" stroke-width="1.25"/><path d="M3.77,47.62h-.1A2.88,2.88,0,0,1,.62,45V42.31" transform="translate(0 0.11)" fill="none" stroke="#f63" stroke-linecap="round" stroke-linejoin="round" stroke-width="1.25"/><line x1="35.22" y1="42.43" x2="43.79" y2="42.43" fill="none" stroke="#f63" stroke-linecap="round" stroke-linejoin="round" stroke-width="1.25"/><line x1="0.63" y1="42.43" x2="28.73" y2="42.43" fill="none" stroke="#f63" stroke-linecap="round" stroke-linejoin="round" stroke-width="1.25"/><path d="M14.91,8.06a1.4,1.4,0,0,1-1.4-1.4V1.91a1.4,1.4,0,0,1,2.8,0V6.66A1.39,1.39,0,0,1,14.91,8.06Z" transform="translate(0 0.11)" fill="none" stroke="#f63" stroke-linecap="round" stroke-linejoin="round" stroke-width="1.25"/><path d="M38.79,8.06a1.4,1.4,0,0,1-1.41-1.4V1.91a1.41,1.41,0,0,1,2.81,0V6.66A1.4,1.4,0,0,1,38.79,8.06Z" transform="translate(0 0.11)" fill="none" stroke="#f63" stroke-linecap="round" stroke-linejoin="round" stroke-width="1.25"/><path d="M13.73,20.24a1.92,1.92,0,1,1-1.92-1.92A1.92,1.92,0,0,1,13.73,20.24Z" transform="translate(0 0.11)" fill="none" stroke="#f63" stroke-linecap="round" stroke-linejoin="round" stroke-width="1.25"/><circle cx="31.86" cy="20.36" r="1.92" fill="none" stroke="#f63" stroke-linecap="round" stroke-linejoin="round" stroke-width="1.25"/><path d="M43.81,20.24a1.92,1.92,0,1,1-1.92-1.92A1.92,1.92,0,0,1,43.81,20.24Z" transform="translate(0 0.11)" fill="none" stroke="#f63" stroke-linecap="round" stroke-linejoin="round" stroke-width="1.25"/><path d="M13.73,27.84a1.92,1.92,0,1,1-1.92-1.92A1.92,1.92,0,0,1,13.73,27.84Z" transform="translate(0 0.11)" fill="none" stroke="#f63" stroke-linecap="round" stroke-linejoin="round" stroke-width="1.25"/><path d="M23.75,27.84a1.92,1.92,0,1,1-1.91-1.92A1.91,1.91,0,0,1,23.75,27.84Z" transform="translate(0 0.11)" fill="none" stroke="#f63" stroke-linecap="round" stroke-linejoin="round" stroke-width="1.25"/><path d="M33.78,27.84a1.92,1.92,0,1,1-1.92-1.92A1.92,1.92,0,0,1,33.78,27.84Z" transform="translate(0 0.11)" fill="none" stroke="#f63" stroke-linecap="round" stroke-linejoin="round" stroke-width="1.25"/><path d="M13.73,35.43a1.92,1.92,0,1,1-1.92-1.92A1.92,1.92,0,0,1,13.73,35.43Z" transform="translate(0 0.11)" fill="none" stroke="#f63" stroke-linecap="round" stroke-linejoin="round" stroke-width="1.25"/><circle cx="21.84" cy="35.54" r="1.92" fill="none" stroke="#f63" stroke-linecap="round" stroke-linejoin="round" stroke-width="1.25"/><circle cx="31.86" cy="35.54" r="1.92" fill="none" stroke="#f63" stroke-linecap="round" stroke-linejoin="round" stroke-width="1.25"/><path d="M43.81,35.43a1.92,1.92,0,1,1-1.92-1.92A1.92,1.92,0,0,1,43.81,35.43Z" transform="translate(0 0.11)" fill="none" stroke="#f63" stroke-linecap="round" stroke-linejoin="round" stroke-width="1.25"/><line x1="19.53" y1="18.04" x2="24.14" y2="22.65" fill="none" stroke="#f63" stroke-linecap="round" stroke-linejoin="round" stroke-width="1.25"/><line x1="19.64" y1="22.58" x2="24.08" y2="18.14" fill="none" stroke="#f63" stroke-linecap="round" stroke-linejoin="round" stroke-width="1.25"/><line x1="39.59" y1="25.65" x2="44.19" y2="30.25" fill="none" stroke="#f63" stroke-linecap="round" stroke-linejoin="round" stroke-width="1.25"/><line x1="39.69" y1="30.19" x2="44.13" y2="25.75" fill="none" stroke="#f63" stroke-linecap="round" stroke-linejoin="round" stroke-width="1.25"/><line x1="33.78" y1="20.36" x2="39.97" y2="20.36" fill="none" stroke="#f63" stroke-linecap="round" stroke-linejoin="round" stroke-width="1.25"/><line x1="28.03" y1="20.36" x2="29.94" y2="20.36" fill="none" stroke="#f63" stroke-linecap="round" stroke-linejoin="round" stroke-width="1.25"/><line x1="23.75" y1="27.95" x2="29.94" y2="27.95" fill="none" stroke="#f63" stroke-linecap="round" stroke-linejoin="round" stroke-width="1.25"/><line x1="13.86" y1="27.95" x2="19.41" y2="27.95" fill="none" stroke="#f63" stroke-linecap="round" stroke-linejoin="round" stroke-width="1.25"/><line x1="43.79" y1="20.36" x2="45.7" y2="20.36" fill="none" stroke="#f63" stroke-linecap="round" stroke-linejoin="round" stroke-width="1.25"/><line x1="33.78" y1="27.96" x2="35.69" y2="27.96" fill="none" stroke="#f63" stroke-linecap="round" stroke-linejoin="round" stroke-width="1.25"/><line x1="7.83" y1="27.96" x2="9.75" y2="27.96" fill="none" stroke="#f63" stroke-linecap="round" stroke-linejoin="round" stroke-width="1.25"/></svg>