<svg id="Layer_1" data-name="Layer 1" xmlns="http://www.w3.org/2000/svg" width="49.44" height="48.25" viewBox="0 0 49.44 48.25"><title>hit-songs-deconstructed-artist-songwriters-producers-labels-icon</title><path d="M40.93,47.62V42c0-9.39-7.31-17.06-16.23-17.06S8.46,32.56,8.46,42v5.67Z" fill="none" stroke="#f63" stroke-linecap="round" stroke-linejoin="round" stroke-width="1.25"/><path d="M35.28,11.21A10.59,10.59,0,1,1,24.7.62,10.58,10.58,0,0,1,35.28,11.21Z" fill="none" stroke="#f63" stroke-linecap="round" stroke-linejoin="round" stroke-width="1.25"/><line x1="11.55" y1="43.97" x2="37.84" y2="43.97" fill="none" stroke="#f63" stroke-linecap="round" stroke-linejoin="round" stroke-width="1.25"/><line x1="5.64" y1="47.63" x2="43.75" y2="47.63" fill="none" stroke="#f63" stroke-linecap="round" stroke-linejoin="round" stroke-width="1.25"/><line x1="46.35" y1="47.63" x2="48.81" y2="47.63" fill="none" stroke="#f63" stroke-linecap="round" stroke-linejoin="round" stroke-width="1.25"/><line x1="0.63" y1="47.63" x2="3.09" y2="47.63" fill="none" stroke="#f63" stroke-linecap="round" stroke-linejoin="round" stroke-width="1.25"/><polyline points="14.99 6.98 25.69 6.98 27.51 4.76 27.51 6.98 34.4 6.98" fill="none" stroke="#f63" stroke-linecap="round" stroke-linejoin="round" stroke-width="1.25"/><line x1="6.68" y1="0.63" x2="6.68" y2="14.81" fill="none" stroke="#f63" stroke-linecap="round" stroke-linejoin="round" stroke-width="1.25"/><path d="M9.86,20.89a3.18,3.18,0,0,1-3.18,3.19h0A3.18,3.18,0,0,1,3.5,20.89V18a3.18,3.18,0,0,1,3.18-3.19h0A3.18,3.18,0,0,1,9.86,18Z" fill="none" stroke="#f63" stroke-linecap="round" stroke-linejoin="round" stroke-width="1.25"/><line x1="3.5" y1="18" x2="5.11" y2="18" fill="none" stroke="#f63" stroke-linecap="round" stroke-linejoin="round" stroke-width="1.25"/><line x1="3.5" y1="20.62" x2="5.11" y2="20.62" fill="none" stroke="#f63" stroke-linecap="round" stroke-linejoin="round" stroke-width="1.25"/><line x1="8.25" y1="18" x2="9.86" y2="18" fill="none" stroke="#f63" stroke-linecap="round" stroke-linejoin="round" stroke-width="1.25"/><line x1="8.25" y1="20.62" x2="9.86" y2="20.62" fill="none" stroke="#f63" stroke-linecap="round" stroke-linejoin="round" stroke-width="1.25"/><path d="M38.54,23.78a1.11,1.11,0,1,1-1.11-1.12A1.11,1.11,0,0,1,38.54,23.78Z" fill="none" stroke="#f63" stroke-linecap="round" stroke-linejoin="round" stroke-width="1.25"/><line x1="38.54" y1="23.78" x2="38.54" y2="18.64" fill="none" stroke="#f63" stroke-linecap="round" stroke-linejoin="round" stroke-width="1.25"/><path d="M43.13,22.45A1.11,1.11,0,1,1,42,21.34,1.12,1.12,0,0,1,43.13,22.45Z" fill="none" stroke="#f63" stroke-linecap="round" stroke-linejoin="round" stroke-width="1.25"/><line x1="43.13" y1="22.45" x2="43.13" y2="17.32" fill="none" stroke="#f63" stroke-linecap="round" stroke-linejoin="round" stroke-width="1.25"/><path d="M44.24,11.34a1.11,1.11,0,1,1-1.11-1.11A1.11,1.11,0,0,1,44.24,11.34Z" fill="none" stroke="#f63" stroke-linecap="round" stroke-linejoin="round" stroke-width="1.25"/><path d="M44.24,11.34V6.2a1.87,1.87,0,0,0,2.11,1" fill="none" stroke="#f63" stroke-linecap="round" stroke-linejoin="round" stroke-width="1.25"/><line x1="38.54" y1="18.64" x2="43.13" y2="17.32" fill="none" stroke="#f63" stroke-linecap="round" stroke-linejoin="round" stroke-width="1.25"/><path d="M29.19,25.71a4.5,4.5,0,0,1-9,0" fill="none" stroke="#f63" stroke-linecap="round" stroke-linejoin="round" stroke-width="1.25"/></svg>