<svg id="Layer_1" data-name="Layer 1" xmlns="http://www.w3.org/2000/svg" width="50.87" height="48.25" viewBox="0 0 50.87 48.25"><title>hit-songs-deconstructed-compositional-characteristics-icon-hover</title><path d="M15.62,40.89c0,3.72-3.36,6.73-7.5,6.73s-7.5-3-7.5-6.73S4,34.15,8.12,34.15,15.62,37.17,15.62,40.89Z" fill="none" stroke="#fff" stroke-linecap="round" stroke-linejoin="round" stroke-width="1.25"/><line x1="15.62" y1="40.89" x2="15.62" y2="2.69" fill="none" stroke="#fff" stroke-linecap="round" stroke-linejoin="round" stroke-width="1.25"/><path d="M15.8.62s-2,5.53,7.46,6.77c0,0,7.16.08,7.16,6.45" fill="none" stroke="#fff" stroke-linecap="round" stroke-linejoin="round" stroke-width="1.25"/><line x1="50.25" y1="13.18" x2="35.17" y2="13.18" fill="none" stroke="#fff" stroke-linecap="round" stroke-linejoin="round" stroke-width="1.25"/><line x1="50.25" y1="24.05" x2="20.92" y2="24.05" fill="none" stroke="#fff" stroke-linecap="round" stroke-linejoin="round" stroke-width="1.25"/><line x1="9.96" y1="13.18" x2="0.95" y2="13.18" fill="none" stroke="#fff" stroke-linecap="round" stroke-linejoin="round" stroke-width="1.25"/><line x1="25.18" y1="13.18" x2="21.27" y2="13.18" fill="none" stroke="#fff" stroke-linecap="round" stroke-linejoin="round" stroke-width="1.25"/><line x1="9.96" y1="24.05" x2="0.95" y2="24.05" fill="none" stroke="#fff" stroke-linecap="round" stroke-linejoin="round" stroke-width="1.25"/><line x1="50.25" y1="34.93" x2="20.92" y2="34.93" fill="none" stroke="#fff" stroke-linecap="round" stroke-linejoin="round" stroke-width="1.25"/><line x1="50.25" y1="13.18" x2="50.25" y2="34.93" fill="none" stroke="#fff" stroke-linecap="round" stroke-linejoin="round" stroke-width="1.25"/><line x1="46.26" y1="13.18" x2="46.26" y2="34.93" fill="none" stroke="#fff" stroke-linecap="round" stroke-linejoin="round" stroke-width="1.25"/></svg>