<svg id="Layer_1" data-name="Layer 1" xmlns="http://www.w3.org/2000/svg" width="0.61in" height="0.7in" viewBox="0 0 43.59 50.72"><title>hit-songs-deconstructed-techniques-icon-hover</title><path d="M15.12,35.28a15,15,0,1,1,13.25,0" fill="none" stroke="#fff" stroke-linecap="round" stroke-linejoin="round" stroke-width="1.25"/><path d="M21.75,9.86a12,12,0,0,1,12,12" fill="none" stroke="#fff" stroke-linecap="round" stroke-linejoin="round" stroke-width="1.25"/><path d="M28.37,35.28V37A2.37,2.37,0,0,1,26,39.37H17.48A2.37,2.37,0,0,1,15.12,37V35.28" fill="none" stroke="#fff" stroke-linecap="round" stroke-linejoin="round" stroke-width="1.25"/><polyline points="26.65 39.27 26.65 41.65 16.84 41.65 16.84 39.27" fill="none" stroke="#fff" stroke-linecap="round" stroke-linejoin="round" stroke-width="1.25"/><polyline points="26.65 41.65 26.65 44.02 16.84 44.02 16.84 41.65" fill="none" stroke="#fff" stroke-linecap="round" stroke-linejoin="round" stroke-width="1.25"/><polyline points="26.65 44.02 26.65 46.39 16.84 46.39 16.84 44.02" fill="none" stroke="#fff" stroke-linecap="round" stroke-linejoin="round" stroke-width="1.25"/><path d="M25.45,46.39a3.71,3.71,0,0,1-7.41,0" fill="none" stroke="#fff" stroke-linecap="round" stroke-linejoin="round" stroke-width="1.25"/><polyline points="19.88 23.33 18.01 24.75 16.14 23.33" fill="none" stroke="#fff" stroke-linecap="round" stroke-linejoin="round" stroke-width="1.25"/><polyline points="23.61 23.33 21.75 24.75 19.88 23.33" fill="none" stroke="#fff" stroke-linecap="round" stroke-linejoin="round" stroke-width="1.25"/><polyline points="27.35 23.33 25.48 24.75 23.61 23.33" fill="none" stroke="#fff" stroke-linecap="round" stroke-linejoin="round" stroke-width="1.25"/><path d="M18,24.75s1.87,3.52,1.87,14.52" fill="none" stroke="#fff" stroke-linecap="round" stroke-linejoin="round" stroke-width="1.25"/><path d="M25.48,24.75s-1.87,3.52-1.87,14.52" fill="none" stroke="#fff" stroke-linecap="round" stroke-linejoin="round" stroke-width="1.25"/><line x1="21.75" y1="3.87" x2="21.75" y2="0.63" fill="none" stroke="#fff" stroke-linecap="round" stroke-linejoin="round" stroke-width="1.25"/><line x1="34.43" y1="9.09" x2="36.73" y2="6.79" fill="none" stroke="#fff" stroke-linecap="round" stroke-linejoin="round" stroke-width="1.25"/><line x1="39.72" y1="21.75" x2="42.97" y2="21.75" fill="none" stroke="#fff" stroke-linecap="round" stroke-linejoin="round" stroke-width="1.25"/><line x1="34.5" y1="34.43" x2="36.8" y2="36.73" fill="none" stroke="#fff" stroke-linecap="round" stroke-linejoin="round" stroke-width="1.25"/><line x1="9.16" y1="34.51" x2="6.86" y2="36.8" fill="none" stroke="#fff" stroke-linecap="round" stroke-linejoin="round" stroke-width="1.25"/><line x1="3.87" y1="21.85" x2="0.63" y2="21.85" fill="none" stroke="#fff" stroke-linecap="round" stroke-linejoin="round" stroke-width="1.25"/><line x1="9.09" y1="9.16" x2="6.79" y2="6.86" fill="none" stroke="#fff" stroke-linecap="round" stroke-linejoin="round" stroke-width="1.25"/></svg>