<svg id="Layer_1" data-name="Layer 1" xmlns="http://www.w3.org/2000/svg" width="48.25" height="48.25" viewBox="0 0 48.25 48.25"><title>hit-songs-deconstructed-form-icon</title><polyline points="2.68 0.63 2.68 45.57 47.63 45.57" fill="none" stroke="#f63" stroke-linecap="round" stroke-linejoin="round" stroke-width="1.25"/><path d="M13.09,34.13a2,2,0,1,1-2-2A2,2,0,0,1,13.09,34.13Z" transform="translate(0)" fill="none" stroke="#f63" stroke-linecap="round" stroke-linejoin="round" stroke-width="1.25"/><path d="M27,36.12a2,2,0,1,1-2-2A2,2,0,0,1,27,36.12Z" transform="translate(0)" fill="none" stroke="#f63" stroke-linecap="round" stroke-linejoin="round" stroke-width="1.25"/><path d="M40.82,34.13a2,2,0,1,1-2-2A2,2,0,0,1,40.82,34.13Z" transform="translate(0)" fill="none" stroke="#f63" stroke-linecap="round" stroke-linejoin="round" stroke-width="1.25"/><path d="M13.09,21.3a2,2,0,1,1-2-2A2,2,0,0,1,13.09,21.3Z" transform="translate(0)" fill="none" stroke="#f63" stroke-linecap="round" stroke-linejoin="round" stroke-width="1.25"/><path d="M27,6.92a2,2,0,1,1-2-2A2,2,0,0,1,27,6.92Z" transform="translate(0)" fill="none" stroke="#f63" stroke-linecap="round" stroke-linejoin="round" stroke-width="1.25"/><path d="M40.82,13.34a2,2,0,1,1-2-2A2,2,0,0,1,40.82,13.34Z" transform="translate(0)" fill="none" stroke="#f63" stroke-linecap="round" stroke-linejoin="round" stroke-width="1.25"/><line x1="8.73" y1="37.35" x2="2.68" y2="45.57" fill="none" stroke="#f63" stroke-linecap="round" stroke-linejoin="round" stroke-width="1.25"/><line x1="23.01" y1="35.84" x2="13.05" y2="34.41" fill="none" stroke="#f63" stroke-linecap="round" stroke-linejoin="round" stroke-width="1.25"/><line x1="31.56" y1="25.29" x2="26.18" y2="34.13" fill="none" stroke="#f63" stroke-linecap="round" stroke-linejoin="round" stroke-width="1.25"/><line x1="37.79" y1="15.04" x2="33.06" y2="22.81" fill="none" stroke="#f63" stroke-linecap="round" stroke-linejoin="round" stroke-width="1.25"/><line x1="43.79" y1="29.69" x2="40.31" y2="32.81" fill="none" stroke="#f63" stroke-linecap="round" stroke-linejoin="round" stroke-width="1.25"/><line x1="46.85" y1="26.95" x2="45.32" y2="28.32" fill="none" stroke="#f63" stroke-linecap="round" stroke-linejoin="round" stroke-width="1.25"/><line x1="25.98" y1="8.91" x2="37.93" y2="32.36" fill="none" stroke="#f63" stroke-linecap="round" stroke-linejoin="round" stroke-width="1.25"/><line x1="16.63" y1="15.56" x2="23.58" y2="8.35" fill="none" stroke="#f63" stroke-linecap="round" stroke-linejoin="round" stroke-width="1.25"/><line x1="12.48" y1="19.87" x2="14.74" y2="17.52" fill="none" stroke="#f63" stroke-linecap="round" stroke-linejoin="round" stroke-width="1.25"/><line x1="2.68" y1="11.35" x2="9.82" y2="19.78" fill="none" stroke="#f63" stroke-linecap="round" stroke-linejoin="round" stroke-width="1.25"/><line x1="2.68" y1="37.86" x2="0.63" y2="37.86" fill="none" stroke="#f63" stroke-linecap="round" stroke-linejoin="round" stroke-width="1.25"/><line x1="2.68" y1="24.73" x2="0.63" y2="24.73" fill="none" stroke="#f63" stroke-linecap="round" stroke-linejoin="round" stroke-width="1.25"/><line x1="2.68" y1="11.6" x2="0.63" y2="11.6" fill="none" stroke="#f63" stroke-linecap="round" stroke-linejoin="round" stroke-width="1.25"/><line x1="38.28" y1="45.57" x2="38.28" y2="47.63" fill="none" stroke="#f63" stroke-linecap="round" stroke-linejoin="round" stroke-width="1.25"/><line x1="25.15" y1="45.57" x2="25.15" y2="47.63" fill="none" stroke="#f63" stroke-linecap="round" stroke-linejoin="round" stroke-width="1.25"/><line x1="12.02" y1="45.57" x2="12.02" y2="47.63" fill="none" stroke="#f63" stroke-linecap="round" stroke-linejoin="round" stroke-width="1.25"/><line x1="46.85" y1="15.78" x2="40.73" y2="13.92" fill="none" stroke="#f63" stroke-linecap="round" stroke-linejoin="round" stroke-width="1.25"/></svg>