<?xml version="1.0" encoding="utf-8"?>
<!-- Generator: Adobe Illustrator 15.1.0, SVG Export Plug-In . SVG Version: 6.00 Build 0)  -->
<!DOCTYPE svg PUBLIC "-//W3C//DTD SVG 1.1//EN" "http://www.w3.org/Graphics/SVG/1.1/DTD/svg11.dtd">
<svg version="1.1" id="Layer_1" xmlns="http://www.w3.org/2000/svg" xmlns:xlink="http://www.w3.org/1999/xlink" x="0px" y="0px"
	 width="46.062px" height="54.543px" viewBox="0 0 46.062 54.543" enable-background="new 0 0 46.062 54.543" xml:space="preserve">
<g>
	<path fill="#FFFFFF" d="M40.854,0c-2.872,0-5.209,2.337-5.209,5.209v8.537c-0.912-0.785-2.084-1.278-3.38-1.278
		c-1.95,0-3.633,1.09-4.525,2.681c-0.894-1.591-2.576-2.681-4.526-2.681c-1.296,0-2.468,0.493-3.38,1.278V5.209
		C19.834,2.337,17.498,0,14.627,0c-2.872,0-5.209,2.337-5.209,5.209v17.33H6.521c-0.339,0-0.649,0.187-0.808,0.485L0.106,33.597
		c-0.137,0.257-0.143,0.562-0.017,0.825l9.418,19.604c0.044,0.091,0.103,0.169,0.17,0.237c0.013,0.014,0.029,0.023,0.043,0.036
		c0.066,0.061,0.139,0.108,0.217,0.146c0.025,0.013,0.05,0.023,0.076,0.033c0.103,0.039,0.209,0.065,0.319,0.065
		c0.001,0,0.003-0.001,0.004-0.001H28.81h12.339c2.71,0,4.914-2.204,4.914-4.914V31.012V5.209C46.062,2.337,43.727,0,40.854,0z
		 M28.885,17.676c0-1.863,1.517-3.38,3.381-3.38c1.863,0,3.38,1.517,3.38,3.38v15.239c0,1.864-1.517,3.381-3.38,3.381
		c-1.864,0-3.381-1.517-3.381-3.381V17.676z M23.214,14.296c1.864,0,3.381,1.517,3.381,3.38v15.239c0,1.864-1.517,3.381-3.381,3.381
		c-1.863,0-3.38-1.517-3.38-3.381v-1.956c0.29-0.099,0.554-0.216,0.824-0.329v2.119c0,1.41,1.146,2.557,2.557,2.557
		s2.557-1.146,2.557-2.557v-2.836c0-0.505-0.409-0.914-0.914-0.914h-1.515c0.256-0.226,0.502-0.458,0.723-0.71
		c2.025-2.313,1.713-4.851,1.698-4.957c-0.061-0.454-0.448-0.793-0.906-0.793h-5.023v-4.863
		C19.834,15.812,21.351,14.296,23.214,14.296z M22.486,30.827h1.457v1.922c0,0.401-0.327,0.729-0.729,0.729
		s-0.729-0.327-0.729-0.729V30.827z M11.246,5.209c0-1.864,1.517-3.381,3.381-3.381c1.863,0,3.379,1.517,3.379,3.381v12.467v4.863
		h-6.76V5.209z M7.071,24.367H23.93c-0.086,0.695-0.375,1.744-1.27,2.75c-1.684,1.895-4.935,2.914-9.396,2.97l-2.273-2.355
		c-0.352-0.365-0.932-0.374-1.293-0.023c-0.363,0.351-0.374,0.93-0.023,1.293l2.044,2.118l-1.94,2.932l-2.888,0.59
		c-0.494,0.101-0.813,0.584-0.712,1.079c0.088,0.433,0.469,0.731,0.895,0.731c0.061,0,0.122-0.007,0.185-0.02l3.07-0.628
		c1.139,0.251,8.357,2.024,11.933,7.332c1.817,2.697,2.405,5.922,1.779,9.579H10.907L1.938,34.046L7.071,24.367z M44.234,49.629
		c0,1.701-1.385,3.086-3.086,3.086H28.81h-2.921c0.624-4.014-0.076-7.584-2.119-10.61c-3.352-4.968-9.312-7.09-11.955-7.817
		l1.565-2.364c1.716-0.025,3.25-0.194,4.626-0.483v1.476c0,2.872,2.336,5.209,5.208,5.209c1.95,0,3.633-1.09,4.526-2.681
		c0.893,1.591,2.575,2.681,4.525,2.681c2.872,0,5.208-2.337,5.208-5.209V17.676V5.209c0-1.864,1.517-3.381,3.381-3.381
		c1.863,0,3.38,1.517,3.38,3.381v25.803V49.629z"/>
	<path fill="#FFFFFF" d="M42.28,26.377h-2.758c-0.505,0-0.914,0.409-0.914,0.914s0.409,0.914,0.914,0.914h2.758
		c0.505,0,0.914-0.409,0.914-0.914S42.785,26.377,42.28,26.377z"/>
	<path fill="#FFFFFF" d="M42.28,17.184h-2.758c-0.505,0-0.914,0.409-0.914,0.914s0.409,0.914,0.914,0.914h2.758
		c0.505,0,0.914-0.409,0.914-0.914S42.785,17.184,42.28,17.184z"/>
	<path fill="#FFFFFF" d="M42.28,7.991h-2.758c-0.505,0-0.914,0.409-0.914,0.914s0.409,0.914,0.914,0.914h2.758
		c0.505,0,0.914-0.409,0.914-0.914S42.785,7.991,42.28,7.991z"/>
	<path fill="#FFFFFF" d="M16.005,17.184h-2.757c-0.505,0-0.914,0.409-0.914,0.914s0.409,0.914,0.914,0.914h2.757
		c0.505,0,0.914-0.409,0.914-0.914S16.51,17.184,16.005,17.184z"/>
	<path fill="#FFFFFF" d="M16.005,7.991h-2.757c-0.505,0-0.914,0.409-0.914,0.914s0.409,0.914,0.914,0.914h2.757
		c0.505,0,0.914-0.409,0.914-0.914S16.51,7.991,16.005,7.991z"/>
	<path fill="#FFFFFF" d="M32.265,35.306c1.41,0,2.557-1.146,2.557-2.557v-2.836c0-0.505-0.409-0.914-0.914-0.914h-3.285
		c-0.505,0-0.914,0.409-0.914,0.914v2.836C29.708,34.159,30.854,35.306,32.265,35.306z M31.536,30.827h1.457v1.922
		c0,0.401-0.327,0.729-0.729,0.729s-0.729-0.327-0.729-0.729V30.827z"/>
</g>
</svg>
