<?xml version="1.0" encoding="utf-8"?>
<!-- Generator: Adobe Illustrator 15.1.0, SVG Export Plug-In . SVG Version: 6.00 Build 0)  -->
<!DOCTYPE svg PUBLIC "-//W3C//DTD SVG 1.1//EN" "http://www.w3.org/Graphics/SVG/1.1/DTD/svg11.dtd">
<svg version="1.1" id="Layer_1" xmlns="http://www.w3.org/2000/svg" xmlns:xlink="http://www.w3.org/1999/xlink" x="0px" y="0px"
	 width="65.699px" height="54.541px" viewBox="0 0 65.699 54.541" enable-background="new 0 0 65.699 54.541" xml:space="preserve">
<g>
	<g>
		<g>
			<path fill="#FF6633" d="M24.015,54.541H23.94c-1.572,0-2.944-1.069-3.337-2.6l-5.064-20.038l-0.37,0.986
				c-0.501,1.338-1.798,2.236-3.228,2.236H3.443C1.545,35.126,0,33.579,0,31.679c0-1.897,1.545-3.441,3.443-3.441H9.56l3.397-9.06
				c0.51-1.356,1.786-2.231,3.254-2.231l0.151,0.003c1.524,0.084,2.789,1.128,3.159,2.598l3.969,15.697l6.247-32.45
				C30.051,1.206,31.392,0.06,33,0.003L33.139,0c1.552,0,2.912,1.051,3.31,2.556l5.19,19.336l3.496-8.158
				c0.544-1.266,1.786-2.083,3.165-2.083c1.5,0.033,2.737,0.913,3.231,2.242l4.807,12.904h5.918c1.898,0,3.443,1.546,3.443,3.445
				s-1.545,3.445-3.443,3.445h-8.309c-1.43,0-2.727-0.901-3.229-2.243l-2.645-7.088l-4.022,9.388
				c-0.572,1.336-1.953,2.173-3.403,2.077c-1.467-0.105-2.705-1.127-3.086-2.542l-3.889-14.486l-6.347,32.953
				c-0.306,1.593-1.655,2.742-3.283,2.794C24.034,54.541,24.024,54.541,24.015,54.541z M15.71,27.91
				c0.017,0,0.034,0.001,0.051,0.001c0.401,0.022,0.741,0.303,0.84,0.692l5.783,22.884c0.184,0.715,0.824,1.216,1.557,1.216
				l0.074,0.919l-0.029-0.918c0.75-0.024,1.396-0.573,1.537-1.305l7.102-36.874c0.081-0.42,0.441-0.729,0.869-0.744
				c0.448-0.045,0.81,0.267,0.921,0.68l4.923,18.341c0.178,0.66,0.756,1.137,1.438,1.186l0.102,0.004
				c0.641,0,1.237-0.391,1.486-0.972l4.927-11.496c0.146-0.338,0.478-0.557,0.845-0.557c0.007,0,0.015,0,0.022,0
				c0.375,0.01,0.707,0.246,0.839,0.598l3.445,9.236c0.234,0.627,0.84,1.049,1.507,1.049h8.309c0.886,0,1.605-0.721,1.605-1.607
				s-0.72-1.607-1.605-1.607h-6.557c-0.384,0-0.728-0.238-0.861-0.599l-5.029-13.503c-0.23-0.619-0.808-1.029-1.471-1.044
				c-0.001,0-0.001,0-0.001,0c-0.681,0-1.26,0.38-1.513,0.97l-4.541,10.594c-0.154,0.358-0.506,0.572-0.91,0.555
				c-0.391-0.028-0.721-0.301-0.822-0.679l-5.879-21.9c-0.183-0.691-0.827-1.19-1.533-1.19c-0.824,0.028-1.451,0.565-1.598,1.308
				l-7.026,36.502c-0.081,0.423-0.445,0.732-0.876,0.745c-0.421,0.011-0.812-0.276-0.917-0.693l-4.982-19.702
				c-0.17-0.676-0.773-1.174-1.467-1.212c-0.001,0-0.002,0-0.003,0c-0.755,0-1.354,0.407-1.592,1.038l-3.621,9.655
				c-0.135,0.359-0.478,0.597-0.86,0.597H3.443c-0.886,0-1.605,0.72-1.605,1.604c0,0.888,0.72,1.609,1.605,1.609h8.498
				c0.667,0,1.272-0.419,1.507-1.043l1.401-3.738C14.984,28.146,15.328,27.91,15.71,27.91z"/>
		</g>
	</g>
</g>
</svg>
