<?xml version="1.0" encoding="utf-8"?>
<!-- Generator: Adobe Illustrator 14.0.0, SVG Export Plug-In . SVG Version: 6.00 Build 43363)  -->
<!DOCTYPE svg PUBLIC "-//W3C//DTD SVG 1.1//EN" "http://www.w3.org/Graphics/SVG/1.1/DTD/svg11.dtd">
<svg version="1.1" id="Layer_1" xmlns="http://www.w3.org/2000/svg" xmlns:xlink="http://www.w3.org/1999/xlink" x="0px" y="0px"
	 width="150px" height="46.238px" viewBox="0 0 150 46.238" enable-background="new 0 0 150 46.238" xml:space="preserve">
<rect x="39.722" y="17.955" fill="#333333" width="3.939" height="26.807"/>
<polygon fill="#333333" points="53.106,44.762 50.589,27.912 50.444,26.781 50.225,26.781 50.225,27.912 50.225,44.762 
	46.578,44.762 46.578,17.955 51.392,17.955 53.726,30.21 53.908,31.633 53.981,31.633 54.164,30.21 56.498,17.955 61.312,17.955 
	61.312,44.762 57.666,44.762 57.666,27.912 57.666,26.781 57.446,26.781 57.3,27.912 54.784,44.762 "/>
<polygon fill="#333333" points="70.756,44.762 68.24,27.912 68.094,26.781 67.875,26.781 67.875,27.912 67.875,44.762 
	64.228,44.762 64.228,17.955 69.042,17.955 71.376,30.21 71.559,31.633 71.632,31.633 71.814,30.21 74.148,17.955 78.963,17.955 
	78.963,44.762 75.315,44.762 75.315,27.912 75.315,26.781 75.097,26.781 74.951,27.912 72.434,44.762 "/>
<polygon fill="#333333" points="81.879,17.955 90.887,17.955 90.887,22.004 85.817,22.004 85.817,29.043 89.465,29.043 
	89.465,33.346 85.817,33.346 85.817,40.713 90.887,40.713 90.887,44.762 81.879,44.762 "/>
<g>
	<path fill="#333333" d="M100.113,44.762L98.07,33.455h-1.058v11.307h-3.939V17.956h3.939c4.668,0,6.711,2.698,6.711,7.732
		c0,2.662-0.693,5.069-2.188,6.091l2.517,12.983H100.113z M97.013,21.858v7.951c1.094,0,2.918-0.146,2.918-3.976
		C99.931,22.004,98.106,21.858,97.013,21.858"/>
	<path fill="#333333" d="M111.125,17.664c4.742-0.109,5.508,4.121,5.508,7.112l-3.866,0.364c0-1.787-0.255-3.866-1.568-3.866
		c-1.021,0.037-1.349,1.13-1.349,2.663c0,1.823,1.567,3.866,3.1,6.091c1.824,2.735,3.684,5.397,3.684,8.279
		c0,3.574-1.167,6.747-5.471,6.747c-5.069,0-5.726-3.829-5.726-7.806l3.865-0.364c0,2.225,0.219,4.559,1.86,4.559
		c1.167,0,1.604-1.276,1.604-2.953c0-1.788-1.678-3.939-3.173-6.201c-1.86-2.734-3.61-5.471-3.61-8.352
		C105.983,21.019,107.405,17.736,111.125,17.664"/>
	<rect x="118.746" y="17.955" fill="#333333" width="3.939" height="26.807"/>
	<path fill="#333333" d="M130.599,45.054c-5.288,0-5.252-5.799-5.252-5.799V23.462c0,0-0.036-5.799,5.252-5.799
		s5.252,5.799,5.252,5.799v15.792C135.851,39.255,135.887,45.054,130.599,45.054 M130.599,21.493c-1.386,0-1.313,1.969-1.313,1.969
		v15.792c0,0-0.072,1.97,1.313,1.97s1.312-1.97,1.312-1.97V23.462C131.911,23.462,131.984,21.493,130.599,21.493"/>
	<polygon fill="#333333" points="142.669,30.793 142.341,29.554 142.122,29.554 142.122,30.793 142.122,44.762 138.511,44.762 
		138.511,17.955 142.013,17.955 145.842,31.924 146.17,33.164 146.389,33.164 146.389,31.924 146.389,17.955 150,17.955 150,44.762 
		146.498,44.762 	"/>
	<polygon fill="#333333" points="42,9.083 41.153,9.083 41.153,12.31 40.064,12.31 40.064,4.9 41.153,4.9 41.153,7.964 42,7.964 
		42,4.9 43.088,4.9 43.088,12.31 42,12.31 	"/>
	<rect x="45.487" y="4.899" fill="#333333" width="1.089" height="7.41"/>
	<polygon fill="#333333" points="48.59,6.019 48.59,4.899 51.736,4.899 51.736,6.019 50.708,6.019 50.708,12.309 49.619,12.309 
		49.619,6.019 	"/>
	<path fill="#333333" d="M58.246,4.819c1.311-0.031,1.522,1.139,1.522,1.965L58.7,6.886c0-0.494-0.071-1.069-0.434-1.069
		c-0.282,0.01-0.373,0.313-0.373,0.736c0,0.504,0.433,1.068,0.856,1.684c0.504,0.756,1.019,1.492,1.019,2.288
		c0,0.988-0.322,1.865-1.512,1.865c-1.401,0-1.583-1.059-1.583-2.157l1.069-0.101c0,0.615,0.061,1.26,0.514,1.26
		c0.322,0,0.444-0.353,0.444-0.816c0-0.494-0.464-1.089-0.877-1.713c-0.514-0.756-0.999-1.512-0.999-2.309
		C56.824,5.746,57.218,4.839,58.246,4.819"/>
	<path fill="#333333" d="M63.325,12.39c-1.462,0-1.452-1.602-1.452-1.602V6.422c0,0-0.01-1.603,1.452-1.603s1.452,1.603,1.452,1.603
		v4.366C64.777,10.788,64.787,12.39,63.325,12.39 M63.325,5.878c-0.383,0-0.363,0.544-0.363,0.544v4.366c0,0-0.02,0.544,0.363,0.544
		c0.383,0,0.363-0.544,0.363-0.544V6.422C63.688,6.422,63.708,5.878,63.325,5.878"/>
	<polygon fill="#333333" points="68.253,8.448 68.162,8.106 68.102,8.106 68.102,8.448 68.102,12.31 67.104,12.31 67.104,4.9 
		68.072,4.9 69.13,8.761 69.221,9.104 69.281,9.104 69.281,8.761 69.281,4.9 70.279,4.9 70.279,12.31 69.312,12.31 	"/>
	<path fill="#333333" d="M74.421,7.561V6.422c0,0,0.021-0.544-0.363-0.544c-0.383,0-0.363,0.544-0.363,0.544v4.456
		c0,0-0.02,0.544,0.363,0.544c0.383,0,0.363-0.544,0.363-0.544V9.537h-0.433V8.62h1.522v3.689h-0.646l-0.131-0.353
		c-0.202,0.251-0.504,0.434-0.847,0.434c-1.381,0-1.28-1.603-1.28-1.603V6.422c0,0-0.01-1.603,1.452-1.603
		c1.461,0,1.452,1.603,1.452,1.603v1.139H74.421z"/>
	<path fill="#333333" d="M79.248,4.819c1.311-0.031,1.522,1.139,1.522,1.965l-1.068,0.101c0-0.494-0.07-1.069-0.434-1.069
		c-0.282,0.01-0.373,0.313-0.373,0.736c0,0.504,0.434,1.068,0.856,1.684c0.505,0.756,1.019,1.492,1.019,2.288
		c0,0.988-0.322,1.865-1.513,1.865c-1.4,0-1.582-1.059-1.582-2.157l1.068-0.101c0,0.615,0.061,1.26,0.514,1.26
		c0.323,0,0.444-0.353,0.444-0.816c0-0.494-0.464-1.089-0.878-1.713c-0.514-0.756-0.997-1.512-0.997-2.309
		C77.827,5.746,78.22,4.839,79.248,4.819"/>
	<path fill="#333333" d="M86.947,12.309h-0.856v-7.41h0.856c2.017,0.011,2.168,0.807,2.168,3.71
		C89.115,11.503,88.964,12.299,86.947,12.309 M87.18,11.221c0.766,0,0.816-0.191,0.807-2.622c0.01-2.419-0.041-2.611-0.807-2.611
		V11.221z"/>
	<polygon fill="#333333" points="91.433,4.9 93.922,4.9 93.922,6.019 92.521,6.019 92.521,7.965 93.529,7.965 93.529,9.154 
		92.521,9.154 92.521,11.19 93.922,11.19 93.922,12.31 91.433,12.31 	"/>
	<path fill="#333333" d="M98.951,9.769v1.018c0,0,0.01,1.603-1.452,1.603c-1.461,0-1.451-1.603-1.451-1.603V6.422
		c0,0-0.01-1.603,1.451-1.603c1.462,0,1.452,1.603,1.452,1.603V7.44h-1.018V6.422c0,0,0.04-0.544-0.414-0.544
		c-0.383,0-0.383,0.544-0.383,0.544v4.365c0,0,0,0.544,0.383,0.544c0.454,0,0.414-0.544,0.414-0.544V9.769H98.951z"/>
	<path fill="#333333" d="M102.579,12.39c-1.462,0-1.452-1.602-1.452-1.602V6.422c0,0-0.01-1.603,1.452-1.603
		s1.452,1.603,1.452,1.603v4.366C104.031,10.788,104.041,12.39,102.579,12.39 M102.579,5.878c-0.383,0-0.363,0.544-0.363,0.544
		v4.366c0,0-0.02,0.544,0.363,0.544s0.362-0.544,0.362-0.544V6.422C102.941,6.422,102.962,5.878,102.579,5.878"/>
	<polygon fill="#333333" points="107.507,8.448 107.416,8.106 107.355,8.106 107.355,8.448 107.355,12.31 106.357,12.31 
		106.357,4.9 107.325,4.9 108.384,8.761 108.475,9.104 108.535,9.104 108.535,8.761 108.535,4.9 109.533,4.9 109.533,12.31 
		108.565,12.31 	"/>
	<path fill="#333333" d="M113.282,4.819c1.311-0.031,1.521,1.139,1.521,1.965l-1.068,0.101c0-0.494-0.07-1.069-0.434-1.069
		c-0.282,0.01-0.373,0.313-0.373,0.736c0,0.504,0.434,1.068,0.856,1.684c0.505,0.756,1.019,1.492,1.019,2.288
		c0,0.988-0.322,1.865-1.512,1.865c-1.401,0-1.583-1.059-1.583-2.157l1.068-0.101c0,0.615,0.061,1.26,0.515,1.26
		c0.322,0,0.443-0.353,0.443-0.816c0-0.494-0.464-1.089-0.877-1.713c-0.515-0.756-0.998-1.512-0.998-2.309
		C111.86,5.746,112.254,4.839,113.282,4.819"/>
	<polygon fill="#333333" points="116.597,6.019 116.597,4.899 119.742,4.899 119.742,6.019 118.714,6.019 118.714,12.309 
		117.625,12.309 117.625,6.019 	"/>
	<path fill="#333333" d="M123.702,12.31l-0.564-3.125h-0.292v3.125h-1.089V4.9h1.089c1.291,0,1.855,0.746,1.855,2.137
		c0,0.736-0.191,1.401-0.605,1.683l0.695,3.589H123.702z M122.846,5.979v2.197c0.302,0,0.807-0.04,0.807-1.099
		C123.652,6.019,123.147,5.979,122.846,5.979"/>
	<path fill="#333333" d="M129.881,4.9v5.887c0,0,0.01,1.603-1.452,1.603s-1.452-1.603-1.452-1.603V4.9h1.09v5.887
		c0,0-0.021,0.544,0.362,0.544s0.363-0.544,0.363-0.544V4.9H129.881z"/>
	<path fill="#333333" d="M135.102,9.769v1.018c0,0,0.01,1.603-1.452,1.603s-1.452-1.603-1.452-1.603V6.422
		c0,0-0.01-1.603,1.452-1.603s1.452,1.603,1.452,1.603V7.44h-1.019V6.422c0,0,0.04-0.544-0.413-0.544
		c-0.383,0-0.383,0.544-0.383,0.544v4.365c0,0,0,0.544,0.383,0.544c0.453,0,0.413-0.544,0.413-0.544V9.769H135.102z"/>
	<polygon fill="#333333" points="136.964,6.019 136.964,4.899 140.11,4.899 140.11,6.019 139.081,6.019 139.081,12.309 
		137.993,12.309 137.993,6.019 	"/>
	<polygon fill="#333333" points="142.125,4.9 144.615,4.9 144.615,6.019 143.214,6.019 143.214,7.965 144.222,7.965 144.222,9.154 
		143.214,9.154 143.214,11.19 144.615,11.19 144.615,12.31 142.125,12.31 	"/>
	<path fill="#333333" d="M147.668,12.309h-0.856v-7.41h0.856c2.016,0.011,2.167,0.807,2.167,3.71
		C149.835,11.503,149.684,12.299,147.668,12.309 M147.899,11.221c0.767,0,0.816-0.191,0.807-2.622
		c0.01-2.419-0.04-2.611-0.807-2.611V11.221z"/>
	<path fill="#FF6633" d="M33.488,26.873v1.998h-0.02c-0.096,4.203-1.751,8.157-4.71,11.166c-0.436,0.441-0.892,0.848-1.364,1.229
		c0.33-0.282,0.655-0.57,0.965-0.884c2.947-2.997,4.568-6.958,4.568-11.158c0-0.06-0.007-0.118-0.009-0.178
		c0.002-0.06,0.009-0.116,0.009-0.175v-6.492c0-0.309-0.558-0.309-0.558,0v6.492h-0.02c-0.094,3.908-1.636,7.583-4.388,10.382
		c-0.409,0.414-0.838,0.796-1.281,1.154c0.301-0.26,0.598-0.522,0.882-0.81c2.737-2.784,4.248-6.47,4.248-10.374
		c0-0.06-0.009-0.118-0.01-0.178c0.001-0.06,0.01-0.117,0.01-0.175v-4.256c0-0.308-0.56-0.308-0.56,0v4.256h-0.018
		c-0.096,3.612-1.522,7.01-4.069,9.599c-0.38,0.387-0.783,0.74-1.195,1.074c0.27-0.234,0.542-0.47,0.797-0.73
		c2.533-2.575,3.927-5.98,3.927-9.591c0-0.06-0.009-0.118-0.009-0.178c0.001-0.059,0.009-0.116,0.009-0.174V17.668
		c0-0.309-0.559-0.309-0.559,0v11.203h-0.019c-0.095,3.318-1.41,6.437-3.748,8.814c-0.355,0.36-0.732,0.689-1.114,1.001
		c0.24-0.211,0.485-0.422,0.715-0.655c2.326-2.366,3.607-5.493,3.607-8.809c0-0.06-0.01-0.119-0.01-0.179
		c0.003-0.058,0.01-0.115,0.01-0.173V11.617c0-0.309-0.56-0.309-0.56,0v17.254h-0.019c-0.095,3.023-1.294,5.863-3.428,8.031
		c-0.324,0.327-0.662,0.627-1.011,0.91c0.209-0.184,0.417-0.365,0.612-0.565c2.119-2.155,3.288-5.005,3.288-8.024
		c0-0.06-0.008-0.12-0.008-0.182c0-0.057,0.006-0.113,0.006-0.17V13.648c0-0.309-0.558-0.309-0.558,0v15.223h-0.02
		c-0.093,2.728-1.18,5.29-3.107,7.247c-0.293,0.299-0.604,0.573-0.926,0.833c0.179-0.158,0.359-0.315,0.53-0.488
		c1.911-1.943,2.964-4.515,2.964-7.239c0-0.06-0.008-0.119-0.008-0.179c0.002-0.059,0.008-0.116,0.008-0.174V11.617v-1.224
		c0-0.309-0.558-0.309-0.558,0v1.224v17.254h-0.02c-0.093,2.433-1.067,4.717-2.786,6.464c-0.268,0.271-0.552,0.521-0.845,0.757
		c0.152-0.135,0.304-0.267,0.446-0.412c1.705-1.733,2.646-4.027,2.646-6.457c0-0.06-0.009-0.118-0.01-0.178
		c0.001-0.059,0.01-0.115,0.01-0.173v-0.001V11.617V8.991c0-0.309-0.56-0.309-0.56,0v2.625v17.254h-0.018
		c-0.095,2.138-0.954,4.144-2.467,5.68c-0.241,0.247-0.499,0.471-0.765,0.685c0.125-0.111,0.252-0.22,0.368-0.339
		c1.499-1.524,2.324-3.538,2.324-5.673c0-0.06-0.009-0.119-0.009-0.179c0-0.059,0.009-0.116,0.009-0.174V11.617V8.599V6.444
		c0-0.31-0.558-0.31-0.558,0v2.155v3.018v17.254h-0.021c-0.091,1.842-0.838,3.569-2.142,4.896c-0.218,0.222-0.45,0.422-0.688,0.611
		c0.097-0.089,0.197-0.173,0.291-0.268c1.29-1.312,2.001-3.048,2.001-4.888c0-0.06-0.008-0.119-0.009-0.18
		c0.002-0.058,0.009-0.115,0.009-0.173v-2.034v-3.952V11.617V8.599V8.136c0-0.309-0.559-0.309-0.559,0v0.463v3.018v11.268v3.952
		v2.034h-0.041c-0.091,1.547-0.703,2.999-1.8,4.113c-1.201,1.219-2.804,1.897-4.515,1.911s-3.327-0.642-4.547-1.844
		c-1.115-1.098-1.772-2.532-1.887-4.075c0.001-0.037,0.012-0.07,0.015-0.105h-0.039V11.617V8.599V8.136c0-0.309-0.559-0.309-0.559,0
		v0.463v3.018v17.254c0,0.057,0.008,0.111,0.009,0.168c-0.001,0.062-0.009,0.121-0.009,0.184l0,0c0,1.882,0.739,3.645,2.08,4.963
		c0.081,0.08,0.168,0.15,0.25,0.225c-0.222-0.176-0.438-0.36-0.644-0.562c-1.357-1.334-2.133-3.091-2.227-4.978H9.497V11.617V8.599
		V6.444c0-0.31-0.559-0.31-0.559,0v2.155v3.018v17.254c0,0.057,0.008,0.112,0.01,0.169c-0.002,0.061-0.01,0.12-0.01,0.183l0,0
		c0,2.185,0.858,4.229,2.415,5.76c0.105,0.105,0.219,0.199,0.331,0.297c-0.25-0.199-0.493-0.406-0.725-0.634
		c-1.571-1.546-2.465-3.586-2.56-5.774h-0.02V11.617V9.255c0-0.309-0.558-0.309-0.558,0v2.362v17.254l0,0v0.006
		c0.001,0.054,0.006,0.107,0.008,0.16c-0.002,0.063-0.009,0.124-0.009,0.186c0,2.485,0.975,4.814,2.747,6.556
		c0.134,0.132,0.274,0.248,0.414,0.371c-0.277-0.221-0.547-0.454-0.805-0.706c-1.787-1.76-2.799-4.082-2.894-6.572H7.261V11.617
		v-1.233c0-0.31-0.558-0.31-0.558,0v1.233v17.254c0,0.061,0.008,0.12,0.008,0.181c-0.002,0.057-0.008,0.113-0.008,0.171l0,0
		c0,2.787,1.094,5.398,3.082,7.354c0.159,0.157,0.33,0.299,0.499,0.444c-0.309-0.243-0.608-0.502-0.89-0.781
		c-2.004-1.971-3.134-4.575-3.23-7.368H6.145V13.467c0-0.309-0.559-0.309-0.559,0v15.404v0.001c0,0.057,0.006,0.112,0.008,0.17
		c-0.002,0.061-0.008,0.121-0.008,0.181c0,3.09,1.213,5.983,3.414,8.149c0.188,0.186,0.389,0.354,0.587,0.524
		c-0.337-0.268-0.667-0.552-0.98-0.86c-2.216-2.183-3.464-5.07-3.56-8.165h-0.02V11.617v-0.013c0-0.309-0.559-0.309-0.559,0v0.013
		v17.254l0,0c0,0.058,0.007,0.113,0.008,0.171c0,0.061-0.008,0.121-0.008,0.181c0,3.392,1.331,6.568,3.747,8.946
		c0.219,0.215,0.449,0.41,0.68,0.604c-0.369-0.292-0.728-0.604-1.071-0.94c-2.432-2.395-3.797-5.566-3.895-8.962h-0.02V17.762
		c0-0.309-0.558-0.309-0.558,0v11.109v0.001c0,0.058,0.008,0.113,0.008,0.17c-0.002,0.061-0.008,0.121-0.008,0.181
		c0,3.693,1.449,7.153,4.081,9.743c0.247,0.243,0.507,0.461,0.767,0.682c-0.399-0.316-0.789-0.652-1.159-1.018
		c-2.648-2.606-4.133-6.061-4.228-9.759H2.792v-4.256c0-0.308-0.559-0.283-0.559,0.026v4.229c0,0.058,0.008,0.113,0.009,0.171
		c0,0.06-0.009,0.119-0.009,0.181l0,0c0,3.994,1.569,7.738,4.416,10.54c0.273,0.27,0.563,0.514,0.853,0.758
		c-0.43-0.341-0.847-0.702-1.246-1.094c-2.862-2.818-4.465-6.555-4.562-10.556H1.676v-6.485c0-0.309-0.56-0.309-0.56,0v6.486
		c0,0.058,0.008,0.113,0.01,0.17c0,0.06-0.01,0.12-0.01,0.181l0,0c0,4.298,1.688,8.323,4.751,11.336
		c0.302,0.298,0.618,0.565,0.936,0.834c-0.458-0.363-0.903-0.75-1.329-1.17c-3.08-3.029-4.8-7.05-4.897-11.352h-0.02v-2.017
		c0-0.31-0.558-0.31-0.558,0v2.017c0,0.058,0.008,0.113,0.008,0.171c0,0.061-0.008,0.12-0.008,0.181
		c0,4.599,1.804,8.908,5.082,12.133c6.692,6.585,17.492,6.498,24.076-0.191c3.153-3.204,4.889-7.444,4.889-11.938
		c0-0.06-0.009-0.119-0.009-0.18c0-0.059,0.009-0.116,0.009-0.175v-1.998C34.046,26.563,33.488,26.563,33.488,26.873 M20.127,45.009
		c-0.045,0.009-0.092,0.017-0.136,0.025c-3.837,0.696-7.874,0.022-11.332-2.017c-0.08-0.088-0.114-0.21-0.05-0.318
		c0.077-0.134,0.25-0.18,0.381-0.101c0.171,0.1,0.352,0.178,0.523,0.27c0.126,0.068,0.254,0.134,0.382,0.198
		c0.344,0.171,0.69,0.332,1.043,0.477c0.125,0.053,0.253,0.101,0.38,0.149c0.359,0.138,0.721,0.266,1.087,0.376
		c0.126,0.038,0.253,0.07,0.377,0.104c0.373,0.103,0.744,0.196,1.122,0.271c0.128,0.025,0.26,0.044,0.39,0.066
		c0.372,0.064,0.745,0.123,1.121,0.16c0.149,0.015,0.299,0.019,0.449,0.031c0.356,0.024,0.712,0.048,1.069,0.05
		c0.03,0,0.058,0.003,0.088,0.003c0.394,0,0.788-0.016,1.182-0.046c0.149-0.011,0.298-0.032,0.447-0.048
		c0.331-0.034,0.663-0.077,0.993-0.133c0.16-0.027,0.321-0.055,0.48-0.087c0.458-0.091,0.914-0.195,1.364-0.326
		c0.081-0.023,0.158-0.048,0.24-0.072c0.407-0.127,0.81-0.268,1.208-0.427c0.057-0.022,0.113-0.04,0.169-0.063
		c0.393-0.163,0.78-0.349,1.163-0.546c0.168-0.085,0.335-0.176,0.499-0.269c0.083-0.047,0.169-0.088,0.253-0.136
		c0.129-0.08,0.302-0.034,0.382,0.1c0.07,0.124,0.029,0.274-0.083,0.357c-0.08,0.047-0.158,0.098-0.239,0.144
		c-0.177,0.101-0.358,0.198-0.54,0.291c-0.341,0.177-0.688,0.341-1.038,0.491c-0.081,0.034-0.16,0.071-0.243,0.105
		c-0.424,0.174-0.856,0.324-1.29,0.462c-0.089,0.028-0.179,0.055-0.269,0.082C21.182,44.785,20.656,44.909,20.127,45.009
		 M9.173,41.734c0.079-0.134,0.25-0.18,0.382-0.101c0.124,0.073,0.259,0.123,0.386,0.191c0.278,0.152,0.562,0.289,0.848,0.422
		c0.237,0.111,0.473,0.23,0.716,0.328c0.467,0.187,0.942,0.347,1.423,0.483c0.273,0.078,0.548,0.137,0.822,0.199
		c0.277,0.062,0.556,0.119,0.836,0.166c0.281,0.046,0.562,0.091,0.847,0.12c0.324,0.035,0.65,0.05,0.977,0.063
		c0.205,0.008,0.407,0.029,0.613,0.029c0.173,0,0.345-0.019,0.516-0.025c0.371-0.013,0.741-0.031,1.11-0.072
		c0.241-0.026,0.477-0.065,0.714-0.104c0.362-0.058,0.721-0.129,1.08-0.214c0.198-0.048,0.396-0.09,0.592-0.146
		c0.557-0.157,1.107-0.336,1.646-0.56c0.007-0.002,0.013-0.006,0.018-0.008c0.555-0.23,1.094-0.505,1.623-0.807
		c0.043-0.024,0.09-0.04,0.134-0.066c0.135-0.079,0.305-0.033,0.382,0.102c0.072,0.122,0.031,0.274-0.083,0.358
		c-0.076,0.043-0.147,0.091-0.222,0.134c-0.167,0.093-0.333,0.183-0.501,0.269c-0.316,0.163-0.636,0.314-0.96,0.455
		c-0.077,0.033-0.155,0.069-0.233,0.101c-0.396,0.162-0.796,0.302-1.198,0.43c-0.089,0.027-0.175,0.053-0.261,0.079
		c-0.485,0.143-0.975,0.257-1.47,0.351c-0.04,0.009-0.081,0.016-0.123,0.022c-3.577,0.649-7.34,0.021-10.559-1.881
		C9.144,41.968,9.109,41.844,9.173,41.734 M9.735,40.77c0.079-0.134,0.248-0.179,0.382-0.1c0.123,0.07,0.252,0.119,0.377,0.187
		c0.241,0.13,0.485,0.248,0.729,0.363c0.261,0.121,0.519,0.244,0.784,0.35c0.401,0.157,0.808,0.297,1.221,0.414
		c0.258,0.074,0.519,0.13,0.779,0.188c0.251,0.057,0.5,0.107,0.753,0.15c0.263,0.043,0.528,0.084,0.794,0.112
		c0.292,0.031,0.586,0.045,0.882,0.058c0.194,0.009,0.39,0.027,0.584,0.027c0.16,0,0.319-0.018,0.481-0.023
		c0.339-0.012,0.683-0.028,1.022-0.066c0.22-0.024,0.437-0.06,0.654-0.096c0.34-0.055,0.677-0.119,1.012-0.199
		c0.177-0.043,0.356-0.082,0.533-0.132c1.058-0.295,2.082-0.724,3.056-1.277c0.036-0.02,0.075-0.034,0.111-0.056
		c0.134-0.079,0.305-0.032,0.382,0.101c0.074,0.126,0.03,0.279-0.084,0.362c-0.04,0.023-0.078,0.048-0.119,0.071
		c-1.009,0.578-2.075,1.018-3.171,1.328c-0.184,0.052-0.369,0.096-0.554,0.14c-0.352,0.085-0.706,0.153-1.061,0.21
		c-0.218,0.036-0.434,0.074-0.65,0.1c-0.439,0.051-0.88,0.077-1.321,0.086c-0.307,0.006-0.612-0.006-0.917-0.019
		c-0.283-0.013-0.567-0.027-0.85-0.056c-0.283-0.029-0.564-0.069-0.846-0.115c-0.257-0.042-0.512-0.097-0.766-0.152
		c-0.278-0.061-0.556-0.117-0.831-0.195c-0.457-0.13-0.906-0.283-1.352-0.46c-0.259-0.103-0.511-0.228-0.766-0.347
		c-0.246-0.116-0.494-0.235-0.736-0.366c-0.155-0.084-0.306-0.177-0.46-0.267C9.707,41.003,9.671,40.879,9.735,40.77 M10.302,39.805
		c0.078-0.134,0.248-0.18,0.381-0.101c0.083,0.049,0.172,0.081,0.256,0.128c0.319,0.177,0.646,0.337,0.975,0.484
		c0.112,0.05,0.221,0.109,0.332,0.155c0.439,0.181,0.889,0.328,1.341,0.456c0.16,0.046,0.323,0.081,0.484,0.119
		c0.325,0.079,0.652,0.144,0.98,0.195c0.174,0.027,0.347,0.056,0.522,0.076c0.405,0.046,0.813,0.072,1.22,0.079
		c0.075,0.001,0.15,0.012,0.225,0.012h0.031c0.023,0,0.048,0,0.072-0.001c0.477-0.004,0.946-0.041,1.409-0.097
		c0.114-0.014,0.225-0.035,0.338-0.052c0.412-0.062,0.822-0.141,1.229-0.244c0.091-0.022,0.182-0.045,0.271-0.069
		c1.031-0.284,2.016-0.695,2.938-1.232c0.008-0.003,0.014-0.005,0.02-0.01c0.135-0.079,0.305-0.033,0.383,0.101
		c0.074,0.127,0.03,0.285-0.088,0.367c-0.032,0.018-0.062,0.037-0.093,0.055c-0.939,0.539-1.929,0.947-2.946,1.235
		c-0.16,0.046-0.321,0.082-0.483,0.122c-0.336,0.081-0.673,0.146-1.013,0.2c-0.19,0.031-0.38,0.065-0.571,0.088
		c-0.431,0.05-0.865,0.077-1.301,0.085c-0.249,0.002-0.498-0.011-0.748-0.022c-0.272-0.011-0.542-0.024-0.813-0.053
		c-0.254-0.025-0.508-0.062-0.762-0.104c-0.245-0.039-0.485-0.09-0.728-0.144c-0.25-0.055-0.5-0.105-0.747-0.176
		c-0.424-0.12-0.842-0.262-1.254-0.427c-0.235-0.092-0.458-0.205-0.688-0.312c-0.234-0.109-0.468-0.223-0.698-0.347
		c-0.14-0.077-0.276-0.16-0.415-0.241C10.274,40.045,10.235,39.917,10.302,39.805 M10.863,38.838
		c0.076-0.133,0.246-0.179,0.38-0.101c0.079,0.045,0.161,0.076,0.24,0.119c0.286,0.158,0.576,0.302,0.871,0.434
		c0.106,0.048,0.209,0.104,0.316,0.147c0.401,0.165,0.811,0.3,1.224,0.416c0.142,0.041,0.282,0.07,0.422,0.104
		c0.306,0.074,0.613,0.135,0.921,0.184c0.151,0.023,0.297,0.048,0.448,0.065c0.392,0.045,0.787,0.072,1.181,0.077
		c0.051,0.002,0.101,0.008,0.151,0.008h0.002c0.03,0,0.062-0.001,0.093-0.001c0.436-0.003,0.868-0.039,1.293-0.09
		c0.088-0.01,0.173-0.027,0.258-0.04c0.394-0.057,0.787-0.133,1.174-0.23c0.068-0.019,0.14-0.035,0.208-0.055
		c0.95-0.259,1.856-0.638,2.707-1.133h0.001c0.133-0.079,0.305-0.033,0.381,0.101c0.078,0.134,0.034,0.303-0.099,0.381l0,0
		c0,0-0.003,0.002-0.003,0.003c-0.901,0.523-1.855,0.914-2.835,1.185c-0.074,0.021-0.149,0.04-0.224,0.059
		c-0.404,0.104-0.812,0.181-1.223,0.242c-0.091,0.013-0.184,0.031-0.277,0.043c-0.479,0.06-0.963,0.093-1.446,0.094h-0.011
		c-0.052,0-0.101-0.006-0.151-0.007c-0.416-0.006-0.83-0.033-1.242-0.081c-0.158-0.018-0.316-0.045-0.473-0.069
		c-0.323-0.05-0.643-0.113-0.962-0.19c-0.15-0.036-0.3-0.069-0.449-0.111c-0.433-0.122-0.863-0.264-1.283-0.437
		c-0.11-0.045-0.217-0.104-0.328-0.152c-0.311-0.139-0.617-0.291-0.919-0.458c-0.096-0.053-0.188-0.111-0.283-0.167
		C10.834,39.09,10.795,38.955,10.863,38.838 M11.425,37.873c0.078-0.134,0.247-0.18,0.382-0.1c0.076,0.044,0.157,0.073,0.233,0.116
		c0.238,0.13,0.479,0.248,0.722,0.358c0.117,0.052,0.226,0.112,0.342,0.16c0.358,0.146,0.722,0.266,1.09,0.369
		c0.132,0.038,0.266,0.067,0.4,0.1c0.27,0.064,0.541,0.118,0.813,0.161c0.138,0.021,0.274,0.045,0.415,0.061
		c0.352,0.041,0.708,0.066,1.063,0.07c0.046,0,0.09,0.006,0.134,0.006h0.005c0.025,0,0.053,0,0.08-0.001
		c0.395-0.003,0.785-0.034,1.171-0.081c0.077-0.01,0.15-0.023,0.227-0.034c0.359-0.053,0.717-0.122,1.068-0.213
		c0.061-0.015,0.122-0.029,0.18-0.046c0.858-0.234,1.679-0.577,2.447-1.024c0,0,0.002-0.001,0.003-0.002
		c0.133-0.078,0.304-0.032,0.381,0.101c0.079,0.133,0.033,0.303-0.1,0.381c-0.002,0.002-0.004,0.004-0.007,0.006
		c-0.816,0.474-1.68,0.828-2.564,1.074c-0.072,0.02-0.142,0.036-0.214,0.055c-0.361,0.092-0.726,0.162-1.091,0.217
		c-0.091,0.013-0.182,0.03-0.271,0.042c-0.431,0.054-0.864,0.083-1.297,0.084h-0.019c-0.064,0-0.125-0.008-0.188-0.01
		c-0.356-0.005-0.711-0.028-1.065-0.068c-0.153-0.018-0.305-0.043-0.458-0.066c-0.28-0.044-0.558-0.1-0.836-0.166
		c-0.145-0.035-0.29-0.067-0.434-0.107c-0.386-0.11-0.771-0.236-1.146-0.391c-0.117-0.047-0.229-0.108-0.345-0.161
		c-0.263-0.118-0.524-0.246-0.781-0.388c-0.092-0.052-0.18-0.108-0.271-0.162C11.398,38.127,11.357,37.99,11.425,37.873
		 M11.987,36.909c0.078-0.135,0.249-0.181,0.383-0.101c0.075,0.042,0.151,0.071,0.225,0.111c0.191,0.104,0.387,0.199,0.583,0.289
		c0.138,0.063,0.276,0.131,0.416,0.188c0.293,0.116,0.59,0.217,0.891,0.303c0.132,0.037,0.266,0.066,0.397,0.099
		c0.226,0.053,0.451,0.098,0.679,0.134c0.134,0.021,0.27,0.044,0.403,0.059c0.297,0.034,0.593,0.054,0.889,0.059
		c0.057,0.001,0.112,0.008,0.169,0.008h0.017c0.018,0,0.037,0,0.057-0.001c0.352-0.002,0.698-0.029,1.042-0.07
		c0.073-0.01,0.145-0.023,0.216-0.034c0.318-0.047,0.635-0.108,0.948-0.188c0.052-0.013,0.104-0.026,0.154-0.041
		c0.77-0.209,1.505-0.516,2.194-0.918c0.13-0.074,0.298-0.031,0.377,0.101c0.078,0.133,0.033,0.304-0.1,0.382
		c-0.736,0.431-1.515,0.751-2.315,0.973c-0.059,0.016-0.121,0.03-0.18,0.047c-0.328,0.083-0.66,0.147-0.993,0.197
		c-0.079,0.012-0.155,0.026-0.233,0.036c-0.381,0.047-0.762,0.072-1.145,0.074c-0.089,0.001-0.176-0.008-0.267-0.01
		c-0.305-0.006-0.61-0.024-0.913-0.06c-0.11-0.014-0.22-0.028-0.328-0.046c-0.299-0.045-0.597-0.104-0.894-0.177
		c-0.085-0.021-0.175-0.039-0.262-0.062c-0.366-0.103-0.729-0.225-1.085-0.37c-0.091-0.036-0.175-0.084-0.265-0.123
		c-0.248-0.111-0.496-0.233-0.737-0.367c-0.084-0.046-0.167-0.097-0.249-0.146C11.961,37.167,11.919,37.027,11.987,36.909
		 M12.552,35.942c0.079-0.133,0.251-0.179,0.383-0.101c0.066,0.04,0.14,0.065,0.207,0.104c0.155,0.084,0.313,0.16,0.471,0.233
		c0.151,0.07,0.3,0.141,0.456,0.2c0.235,0.092,0.474,0.175,0.713,0.244c0.126,0.036,0.251,0.063,0.377,0.093
		c0.186,0.044,0.373,0.081,0.56,0.111c0.127,0.021,0.254,0.042,0.38,0.056c0.241,0.027,0.482,0.042,0.723,0.048
		c0.068,0.002,0.133,0.01,0.201,0.01h0.016c0.015,0,0.033,0,0.049-0.001c0.306-0.002,0.607-0.026,0.906-0.062
		c0.065-0.009,0.131-0.021,0.194-0.03c0.279-0.042,0.554-0.094,0.829-0.164c0.044-0.012,0.091-0.022,0.135-0.034
		c0.675-0.184,1.322-0.453,1.929-0.805c0.131-0.074,0.297-0.03,0.374,0.102c0.076,0.133,0.031,0.305-0.102,0.381
		c-0.652,0.381-1.343,0.665-2.055,0.861c-0.044,0.012-0.09,0.023-0.136,0.035c-0.297,0.075-0.596,0.133-0.899,0.178
		c-0.064,0.009-0.129,0.021-0.194,0.029c-0.336,0.042-0.674,0.064-1.013,0.066c-0.063,0.001-0.125-0.005-0.189-0.006
		c-0.309-0.005-0.619-0.021-0.927-0.061c-0.044-0.005-0.084-0.011-0.127-0.018c-0.334-0.046-0.666-0.11-0.995-0.196
		c-0.023-0.007-0.047-0.011-0.07-0.018c-0.345-0.093-0.684-0.209-1.017-0.346c-0.071-0.029-0.139-0.066-0.21-0.099
		c-0.226-0.1-0.448-0.21-0.667-0.33c-0.076-0.043-0.152-0.09-0.224-0.134C12.523,36.205,12.483,36.062,12.552,35.942 M13.116,34.977
		c0.079-0.134,0.247-0.179,0.382-0.1c0.064,0.037,0.133,0.062,0.198,0.098c0.11,0.06,0.224,0.114,0.338,0.168
		c0.167,0.079,0.334,0.154,0.507,0.22c0.18,0.068,0.362,0.132,0.545,0.185c0.11,0.032,0.223,0.057,0.333,0.082
		c0.159,0.038,0.322,0.07,0.484,0.097c0.105,0.017,0.212,0.034,0.319,0.046c0.227,0.025,0.451,0.042,0.677,0.045
		c0.04,0,0.081,0.006,0.122,0.006h0.001c0.02,0,0.039,0,0.057-0.001c0.269-0.002,0.534-0.023,0.798-0.055
		c0.037-0.005,0.074-0.013,0.112-0.018c0.265-0.038,0.528-0.089,0.787-0.157c0.02-0.005,0.038-0.009,0.056-0.014
		c0.595-0.158,1.161-0.394,1.693-0.703c0.132-0.071,0.296-0.029,0.372,0.102c0.076,0.134,0.031,0.305-0.1,0.382
		c-0.575,0.336-1.185,0.586-1.811,0.757c-0.024,0.007-0.051,0.013-0.077,0.02c-0.274,0.072-0.554,0.126-0.836,0.166
		c-0.042,0.006-0.084,0.015-0.128,0.021c-0.299,0.037-0.6,0.058-0.904,0.059c-0.044,0-0.088-0.004-0.133-0.004
		c-0.287-0.005-0.571-0.021-0.854-0.056c-0.019-0.003-0.038-0.006-0.059-0.009c-0.638-0.086-1.266-0.252-1.868-0.502
		c-0.016-0.007-0.028-0.015-0.043-0.021c-0.244-0.103-0.481-0.226-0.714-0.354c-0.059-0.033-0.114-0.067-0.174-0.103
		C13.087,35.248,13.045,35.1,13.116,34.977"/>
	<path fill="#FF6633" d="M4.748,10.671c0.153,0,0.279-0.125,0.279-0.279V8.991c0-0.309-0.559-0.309-0.559,0v1.401
		C4.468,10.546,4.594,10.671,4.748,10.671"/>
	<path fill="#FF6633" d="M3.632,16.895c0.153,0,0.279-0.125,0.279-0.279v-2.967c0-0.31-0.559-0.31-0.559,0v2.967
		C3.352,16.77,3.478,16.895,3.632,16.895"/>
	<path fill="#FF6633" d="M3.632,12.89c0.153,0,0.279-0.125,0.279-0.28v-0.651c0-0.308-0.559-0.308-0.559,0v0.651
		C3.352,12.764,3.478,12.89,3.632,12.89"/>
	<path fill="#FF6633" d="M10.289,7.315c0.154,0,0.28-0.125,0.28-0.28V6.384c0-0.309-0.559-0.309-0.559,0v0.651
		C10.01,7.19,10.136,7.315,10.289,7.315"/>
	<path fill="#FF6633" d="M12.535,4.378c0.153,0,0.278-0.125,0.278-0.28V3.446c0-0.308-0.558-0.308-0.558,0v0.652
		C12.255,4.252,12.381,4.378,12.535,4.378"/>
	<path fill="#FF6633" d="M15.888,3.072c0.153,0,0.278-0.125,0.278-0.279V1.026c0-0.31-0.558-0.31-0.558,0v1.766
		C15.608,2.947,15.733,3.072,15.888,3.072"/>
	<path fill="#FF6633" d="M18.122,3.072c0.154,0,0.28-0.125,0.28-0.279V1.026c0-0.31-0.56-0.31-0.56,0v1.766
		C17.842,2.947,17.968,3.072,18.122,3.072"/>
	<path fill="#FF6633" d="M19.24,4.907c0.153,0,0.279-0.125,0.279-0.279V2.86c0-0.309-0.559-0.309-0.559,0v1.767
		C18.96,4.782,19.086,4.907,19.24,4.907"/>
	<path fill="#FF6633" d="M23.71,7.315c0.153,0,0.279-0.125,0.279-0.28V6.384c0-0.309-0.559-0.309-0.559,0v0.651
		C23.43,7.19,23.557,7.315,23.71,7.315"/>
	<path fill="#FF6633" d="M2.514,23.853c0.153,0,0.279-0.126,0.279-0.28v-3.684c0-0.309-0.559-0.309-0.559,0v3.684
		C2.234,23.727,2.359,23.853,2.514,23.853"/>
	<path fill="#FF6633" d="M8.101,8.457c0.153,0,0.278-0.125,0.278-0.28V4.493c0-0.309-0.558-0.309-0.558,0v3.684
		C7.821,8.332,7.946,8.457,8.101,8.457"/>
	<path fill="#FF6633" d="M25.945,8.457c0.153,0,0.28-0.125,0.28-0.28V4.493c0-0.309-0.56-0.309-0.56,0v3.684
		C25.665,8.332,25.792,8.457,25.945,8.457"/>
	<path fill="#FF6633" d="M2.514,18.859c0.153,0,0.279-0.125,0.279-0.279v-2.45c0-0.309-0.559-0.309-0.559,0v2.45
		C2.234,18.734,2.359,18.859,2.514,18.859"/>
	<path fill="#FF6633" d="M1.379,21.545c0.155,0,0.28-0.125,0.28-0.279v-3.748c0-0.309-0.559-0.309-0.559,0v3.748
		C1.101,21.42,1.226,21.545,1.379,21.545"/>
	<path fill="#FF6633" d="M12.535,9.656c0.153,0,0.278-0.125,0.278-0.279V8.599V5.329c0-0.309-0.558-0.309-0.558,0v3.271v0.778
		C12.255,9.531,12.381,9.656,12.535,9.656"/>
	<path fill="#FF6633" d="M21.475,4.378c0.153,0,0.28-0.125,0.28-0.28V3.446c0-0.308-0.558-0.308-0.558,0v0.652
		C21.196,4.252,21.321,4.378,21.475,4.378"/>
	<path fill="#FF6633" d="M21.475,9.656c0.153,0,0.28-0.125,0.28-0.279V8.599V5.329c0-0.309-0.558-0.309-0.558,0v3.271v0.778
		C21.196,9.531,21.321,9.656,21.475,9.656"/>
	<path fill="#FF6633" d="M1.379,16.45c0.155,0,0.28-0.125,0.28-0.279v-1.092c0-0.309-0.559-0.309-0.559,0v1.092
		C1.101,16.326,1.226,16.45,1.379,16.45"/>
	<path fill="#FF6633" d="M0.278,26.136c0.155,0,0.28-0.126,0.28-0.28v-3.363c0-0.309-0.558-0.309-0.558,0v3.363
		C0,26.01,0.125,26.136,0.278,26.136"/>
	<path fill="#FF6633" d="M0.278,21.015c0.155,0,0.28-0.125,0.28-0.28v-0.713c0-0.309-0.558-0.309-0.558,0v0.713
		C0,20.889,0.125,21.015,0.278,21.015"/>
	<path fill="#FF6633" d="M5.586,9.292v2.325v0.706c0,0.154,0.126,0.279,0.279,0.279c0.155,0,0.28-0.125,0.28-0.279v-0.706V9.292
		C6.145,8.983,5.586,8.983,5.586,9.292"/>
	<path fill="#FF6633" d="M6.989,9.495c0.154,0,0.28-0.125,0.28-0.28V8.599V6.185c0-0.309-0.558-0.309-0.558,0v2.414v0.616
		C6.711,9.37,6.835,9.495,6.989,9.495"/>
	<path fill="#FF6633" d="M5.839,7.782c0.155,0,0.28-0.125,0.28-0.28V5.917c0-0.308-0.559-0.308-0.559,0v1.584
		C5.561,7.657,5.687,7.782,5.839,7.782"/>
	<path fill="#FF6633" d="M9.218,5.607c0.152,0,0.279-0.125,0.279-0.279V3.744c0-0.309-0.559-0.309-0.559,0v1.584
		C8.938,5.482,9.062,5.607,9.218,5.607"/>
	<path fill="#FF6633" d="M11.418,5.607c0.153,0,0.28-0.125,0.28-0.279v-3.21c0-0.309-0.56-0.309-0.56,0v3.21
		C11.138,5.482,11.264,5.607,11.418,5.607"/>
	<path fill="#FF6633" d="M22.593,5.607c0.153,0,0.28-0.125,0.28-0.279v-3.21c0-0.309-0.56-0.309-0.56,0v3.21
		C22.313,5.482,22.439,5.607,22.593,5.607"/>
	<path fill="#FF6633" d="M13.652,3.727c0.154,0,0.28-0.125,0.28-0.28V2.188c0-0.309-0.558-0.309-0.558,0v1.258
		C13.374,3.601,13.498,3.727,13.652,3.727"/>
	<path fill="#FF6633" d="M20.356,3.727c0.155,0,0.28-0.125,0.28-0.28V2.188c0-0.309-0.558-0.309-0.558,0v1.258
		C20.079,3.601,20.203,3.727,20.356,3.727"/>
	<path fill="#FF6633" d="M24.827,5.607c0.155,0,0.28-0.125,0.28-0.279V3.744c0-0.309-0.558-0.309-0.558,0v1.584
		C24.549,5.482,24.673,5.607,24.827,5.607"/>
	<path fill="#FF6633" d="M29.304,10.671c0.154,0,0.278-0.125,0.278-0.279V8.991c0-0.309-0.558-0.309-0.558,0v1.401
		C29.024,10.546,29.151,10.671,29.304,10.671"/>
	<path fill="#FF6633" d="M30.42,16.895c0.154,0,0.279-0.125,0.279-0.279v-2.967c0-0.31-0.559-0.31-0.559,0v2.967
		C30.141,16.77,30.267,16.895,30.42,16.895"/>
	<path fill="#FF6633" d="M30.42,12.89c0.154,0,0.279-0.125,0.279-0.28v-0.651c0-0.308-0.559-0.308-0.559,0v0.651
		C30.141,12.764,30.267,12.89,30.42,12.89"/>
	<path fill="#FF6633" d="M31.538,23.853c0.154,0,0.279-0.126,0.279-0.28v-3.684c0-0.309-0.558-0.309-0.558,0v3.684
		C31.259,23.727,31.383,23.853,31.538,23.853"/>
	<path fill="#FF6633" d="M31.538,18.859c0.154,0,0.279-0.125,0.279-0.279v-2.45c0-0.309-0.558-0.309-0.558,0v2.45
		C31.259,18.734,31.383,18.859,31.538,18.859"/>
	<path fill="#FF6633" d="M2.514,14.97c0.153,0,0.279-0.125,0.279-0.279v-3.074v-0.459c0-0.309-0.559-0.309-0.559,0v0.459v3.074
		C2.234,14.845,2.359,14.97,2.514,14.97"/>
	<path fill="#FF6633" d="M31.538,14.97c0.154,0,0.279-0.125,0.279-0.279v-3.074v-0.459c0-0.309-0.558-0.309-0.558,0v0.459v3.074
		C31.259,14.845,31.383,14.97,31.538,14.97"/>
	<path fill="#FF6633" d="M32.672,21.545c0.153,0,0.278-0.125,0.278-0.279v-3.748c0-0.309-0.558-0.309-0.558,0v3.748
		C32.393,21.42,32.519,21.545,32.672,21.545"/>
	<path fill="#FF6633" d="M32.672,16.45c0.153,0,0.278-0.125,0.278-0.279v-1.092c0-0.309-0.558-0.309-0.558,0v1.092
		C32.393,16.326,32.519,16.45,32.672,16.45"/>
	<path fill="#FF6633" d="M33.493,22.492v3.363c0,0.155,0.126,0.279,0.28,0.279c0.154,0,0.279-0.124,0.279-0.279v-3.363
		C34.052,22.184,33.493,22.184,33.493,22.492"/>
	<path fill="#FF6633" d="M33.493,20.022v0.713c0,0.154,0.126,0.28,0.28,0.28c0.154,0,0.279-0.125,0.279-0.28v-0.713
		C34.052,19.713,33.493,19.713,33.493,20.022"/>
	<path fill="#FF6633" d="M28.186,12.602c0.154,0,0.279-0.125,0.279-0.28v-0.705V9.292c0-0.309-0.559-0.309-0.559,0v2.325v0.705
		C27.906,12.476,28.033,12.602,28.186,12.602"/>
	<path fill="#FF6633" d="M27.063,9.495c0.153,0,0.278-0.125,0.278-0.28V8.599V6.185c0-0.309-0.558-0.309-0.558,0v2.414v0.616
		C26.783,9.37,26.908,9.495,27.063,9.495"/>
	<path fill="#FF6633" d="M28.211,7.782c0.153,0,0.28-0.125,0.28-0.28V5.917c0-0.308-0.56-0.308-0.56,0v1.584
		C27.931,7.657,28.059,7.782,28.211,7.782"/>
	<path fill="#FF6633" d="M22.873,11.617V8.599V6.444c0-0.31-0.56-0.31-0.56,0v2.155v3.018v13.851c0.224,0.349,0.409,0.713,0.56,1.09
		V11.617z"/>
	<path fill="#FF6633" d="M21.754,24.754V11.617v-1.225c0-0.309-0.558-0.309-0.558,0v1.225v12.562
		c0.077,0.069,0.166,0.12,0.243,0.195C21.558,24.492,21.646,24.629,21.754,24.754"/>
	<path fill="#FF6633" d="M20.636,11.617V8.599V4.537c0-0.31-0.558-0.31-0.558,0v4.062v3.018v11.771
		c0.19,0.106,0.377,0.216,0.558,0.343V11.617z"/>
	<path fill="#FF6633" d="M19.519,11.617V8.599V5.671c0-0.309-0.559-0.309-0.559,0v2.928v3.018v11.281
		c0.189,0.062,0.375,0.123,0.559,0.202V11.617z"/>
	<path fill="#FF6633" d="M18.402,11.617V8.599V3.769c0-0.309-0.56-0.309-0.56,0v4.831v3.018v11.026
		c0.189,0.025,0.374,0.053,0.56,0.095V11.617z"/>
	<path fill="#FF6633" d="M17.284,11.617V8.599V0.232c0-0.31-0.558-0.31-0.558,0v8.367v3.018v10.975
		c0.186-0.009,0.371-0.005,0.558,0.002V11.617z"/>
	<path fill="#FF6633" d="M16.166,11.617V8.599V3.769c0-0.309-0.558-0.309-0.558,0v4.831v3.018v11.125
		c0.185-0.043,0.371-0.066,0.558-0.091V11.617z"/>
	<path fill="#FF6633" d="M15.049,11.617V8.599V5.693c0-0.309-0.56-0.309-0.56,0v2.906v3.018V23.11
		c0.183-0.081,0.371-0.136,0.56-0.199V11.617z"/>
	<path fill="#FF6633" d="M13.932,11.617V8.599V4.537c0-0.31-0.558-0.31-0.558,0v4.062v3.018v12.137
		c0.179-0.13,0.368-0.236,0.558-0.344V11.617z"/>
	<path fill="#FF6633" d="M12.813,24.219V11.617v-1.224c0-0.309-0.558-0.309-0.558,0v1.224v13.184c0.1-0.116,0.176-0.244,0.286-0.354
		C12.626,24.359,12.725,24.299,12.813,24.219"/>
	<path fill="#FF6633" d="M11.698,11.617V8.599V6.444c0-0.31-0.56-0.31-0.56,0v2.155v3.018v15.042
		c0.146-0.392,0.331-0.771,0.56-1.134V11.617z"/>
	<path fill="#FF6633" d="M17.769,29.571c0.406-0.412,0.398-1.073-0.012-1.479c-0.414-0.405-1.073-0.401-1.479,0.013
		c-0.406,0.41-0.4,1.072,0.013,1.479C16.701,29.988,17.363,29.982,17.769,29.571"/>
	<path fill="#FF6633" d="M17.004,33.837L17.004,33.837c1.343,0,2.604-0.528,3.548-1.486c1.925-1.954,1.898-5.115-0.056-7.045
		c-0.942-0.923-2.184-1.431-3.497-1.431c-1.344,0-2.603,0.528-3.546,1.487c-0.933,0.946-1.44,2.199-1.432,3.525
		c0.01,1.331,0.54,2.58,1.49,3.515C14.449,33.327,15.69,33.837,17.004,33.837 M13.734,25.637c0.868-0.884,2.027-1.37,3.266-1.37
		c1.21,0,2.354,0.467,3.221,1.318c1.801,1.777,1.827,4.69,0.053,6.491c-0.871,0.883-2.031,1.369-3.27,1.369
		c-1.21,0-2.353-0.469-3.216-1.32c-0.877-0.863-1.364-2.013-1.375-3.239C12.404,27.662,12.875,26.509,13.734,25.637"/>
</g>
</svg>
