<?xml version="1.0" encoding="utf-8"?>
<!-- Generator: Adobe Illustrator 15.1.0, SVG Export Plug-In . SVG Version: 6.00 Build 0)  -->
<!DOCTYPE svg PUBLIC "-//W3C//DTD SVG 1.1//EN" "http://www.w3.org/Graphics/SVG/1.1/DTD/svg11.dtd">
<svg version="1.1" id="Layer_1" xmlns="http://www.w3.org/2000/svg" xmlns:xlink="http://www.w3.org/1999/xlink" x="0px" y="0px"
	 width="10px" height="10.002px" viewBox="290.679 500.927 10 10.002" enable-background="new 290.679 500.927 10 10.002"
	 xml:space="preserve">
<g id="Settings">
	<g>
		<path fill="#A7A7A7" d="M300.646,505.373c-0.015-0.142-0.179-0.247-0.32-0.247c-0.458,0-0.865-0.269-1.036-0.686
			c-0.174-0.426-0.062-0.923,0.28-1.235c0.108-0.099,0.12-0.263,0.031-0.379c-0.235-0.296-0.501-0.566-0.792-0.799
			c-0.114-0.092-0.281-0.079-0.38,0.029c-0.298,0.33-0.833,0.454-1.247,0.28c-0.431-0.181-0.702-0.616-0.676-1.085
			c0.009-0.146-0.098-0.275-0.245-0.292c-0.374-0.043-0.751-0.044-1.125-0.002c-0.145,0.015-0.252,0.141-0.247,0.286
			c0.016,0.463-0.259,0.892-0.686,1.065c-0.408,0.167-0.94,0.047-1.238-0.281c-0.098-0.107-0.263-0.12-0.377-0.032
			c-0.3,0.234-0.572,0.506-0.809,0.801c-0.092,0.115-0.079,0.282,0.03,0.381c0.348,0.313,0.46,0.815,0.28,1.247
			c-0.173,0.411-0.599,0.676-1.088,0.676c-0.159-0.006-0.272,0.102-0.289,0.246c-0.044,0.375-0.044,0.759-0.002,1.138
			c0.016,0.142,0.185,0.244,0.328,0.244c0.436-0.011,0.854,0.26,1.029,0.687c0.175,0.426,0.063,0.922-0.279,1.236
			c-0.107,0.099-0.121,0.262-0.031,0.378c0.232,0.294,0.5,0.563,0.791,0.8c0.115,0.091,0.281,0.079,0.381-0.03
			c0.299-0.331,0.834-0.454,1.247-0.28c0.432,0.181,0.703,0.615,0.676,1.084c-0.009,0.146,0.1,0.275,0.246,0.293
			c0.191,0.021,0.383,0.033,0.576,0.033c0.184,0,0.366-0.011,0.549-0.029c0.145-0.017,0.252-0.142,0.248-0.286
			c-0.017-0.464,0.258-0.893,0.684-1.066c0.412-0.168,0.94-0.046,1.238,0.282c0.099,0.106,0.262,0.12,0.377,0.031
			c0.299-0.234,0.571-0.506,0.809-0.801c0.092-0.114,0.079-0.281-0.03-0.381c-0.348-0.313-0.461-0.814-0.281-1.247
			c0.17-0.403,0.582-0.678,1.023-0.678l0.062,0.001c0.144,0.012,0.276-0.099,0.292-0.245
			C300.689,506.134,300.689,505.751,300.646,505.373z M295.687,507.605c-0.919,0-1.667-0.747-1.667-1.667
			c0-0.921,0.749-1.669,1.667-1.669c0.92,0,1.668,0.748,1.668,1.669C297.355,506.858,296.606,507.605,295.687,507.605z"/>
	</g>
</g>
</svg>
