<?xml version="1.0" encoding="utf-8"?>
<!-- Generator: Adobe Illustrator 15.1.0, SVG Export Plug-In . SVG Version: 6.00 Build 0)  -->
<!DOCTYPE svg PUBLIC "-//W3C//DTD SVG 1.1//EN" "http://www.w3.org/Graphics/SVG/1.1/DTD/svg11.dtd">
<svg version="1.1" id="Layer_1" xmlns="http://www.w3.org/2000/svg" xmlns:xlink="http://www.w3.org/1999/xlink" x="0px" y="0px"
	 width="8.893px" height="9.775px" viewBox="263.128 499.695 8.893 9.775" enable-background="new 263.128 499.695 8.893 9.775"
	 xml:space="preserve">
<path fill="#A7A7A7" d="M271.836,508.228l-1.669-1.918c0.547-0.636,0.913-1.434,0.975-2.323c0.075-1.068-0.272-2.104-0.975-2.911
	c-0.704-0.81-1.679-1.295-2.748-1.369c-2.209-0.163-4.128,1.536-4.281,3.723c-0.075,1.069,0.271,2.104,0.975,2.912
	c0.703,0.81,1.679,1.295,2.748,1.369c0.095,0.007,0.188,0.01,0.282,0.01c0.667,0,1.291-0.181,1.848-0.475l1.712,1.968
	c0.148,0.171,0.357,0.258,0.566,0.258c0.174,0,0.35-0.061,0.492-0.185C272.075,509.014,272.108,508.54,271.836,508.228z
	 M266.967,506.213c-0.669-0.047-1.281-0.352-1.721-0.856c-0.44-0.507-0.657-1.154-0.611-1.824c0.091-1.311,1.19-2.336,2.502-2.336
	c0.059,0,0.119,0.002,0.178,0.006c0.669,0.047,1.28,0.352,1.72,0.856c0.44,0.507,0.657,1.153,0.611,1.823
	C269.551,505.251,268.339,506.297,266.967,506.213z"/>
</svg>
